<?xml version="1.0" encoding="UTF-8"?>
<svg xmlns="http://www.w3.org/2000/svg" xmlns:xlink="http://www.w3.org/1999/xlink" width="900px" height="580px" viewBox="0 0 900 580" version="1.1">
<g id="surface1">
<path style=" stroke:none;fill-rule:nonzero;fill:rgb(90.196078%,90.196078%,90.196078%);fill-opacity:1;" d="M 189.46875 577.890625 L 51.925781 577.890625 C 51.925781 577.890625 49.136719 530.8125 65.632812 530.277344 C 82.128906 529.742188 80.269531 551.140625 100.949219 521.71875 C 121.625 492.296875 146.71875 493.902344 149.96875 511.289062 C 153.222656 528.675781 143.699219 542.582031 161.121094 538.300781 C 178.546875 534.023438 203.640625 545.257812 189.46875 577.890625 Z M 189.46875 577.890625 "/>
<path style=" stroke:none;fill-rule:nonzero;fill:rgb(100%,100%,100%);fill-opacity:1;" d="M 118.375 577.898438 L 117.910156 577.878906 C 118.992188 546.886719 124.632812 526.972656 129.171875 515.722656 C 134.101562 503.511719 138.847656 498.566406 138.898438 498.519531 L 139.207031 498.917969 C 139.160156 498.964844 134.464844 503.859375 129.578125 515.992188 C 125.0625 527.191406 119.453125 547.023438 118.375 577.898438 Z M 118.375 577.898438 "/>
<path style=" stroke:none;fill-rule:nonzero;fill:rgb(100%,100%,100%);fill-opacity:1;" d="M 168.15625 577.964844 L 167.710938 577.8125 C 171.167969 564.679688 177.402344 552.734375 185.855469 543.054688 L 186.167969 543.453125 C 177.777344 553.0625 171.589844 564.921875 168.15625 577.964844 Z M 168.15625 577.964844 "/>
<path style=" stroke:none;fill-rule:nonzero;fill:rgb(100%,100%,100%);fill-opacity:1;" d="M 73.589844 577.925781 L 73.128906 577.851562 C 74.628906 566.234375 73.042969 554.363281 68.578125 543.796875 C 66.746094 539.367188 64.324219 535.296875 61.398438 531.730469 L 61.71875 531.34375 C 64.683594 534.953125 67.140625 539.074219 68.996094 543.5625 C 73.503906 554.222656 75.101562 566.199219 73.589844 577.925781 Z M 73.589844 577.925781 "/>
<path style=" stroke:none;fill-rule:nonzero;fill:rgb(18.431373%,18.039216%,25.490196%);fill-opacity:1;" d="M 208.136719 578.605469 L 37.089844 578.605469 L 37.050781 577.9375 C 36.953125 576.277344 34.769531 537.136719 45.789062 523.171875 C 47.996094 520.1875 51.199219 518.417969 54.605469 518.300781 C 61.785156 518.066406 66.296875 521.160156 69.9375 523.644531 C 76.796875 528.332031 81.328125 531.425781 97.808594 507.980469 C 115.660156 482.582031 134.917969 477.117188 145.992188 480.152344 C 153.144531 482.117188 158.078125 487.667969 159.519531 495.378906 C 160.890625 502.683594 160.449219 509.546875 160.101562 515.0625 C 159.726562 520.960938 159.429688 525.621094 161.535156 527.734375 C 163.296875 529.496094 166.800781 529.65625 172.570312 528.238281 C 184.308594 525.355469 200.695312 527.820312 208.917969 540.050781 C 213.339844 546.632812 216.824219 558.59375 208.308594 578.207031 Z M 38.257812 577.171875 L 207.363281 577.171875 C 213.710938 562.347656 213.910156 549.820312 207.933594 540.929688 C 200.390625 529.707031 184.566406 526.753906 172.832031 529.636719 C 166.558594 531.179688 162.824219 530.921875 160.71875 528.8125 C 158.144531 526.230469 158.460938 521.257812 158.859375 514.960938 C 159.203125 509.539062 159.632812 502.789062 158.304688 495.683594 C 156.964844 488.53125 152.371094 483.378906 145.703125 481.550781 C 134.984375 478.605469 116.257812 484.003906 98.773438 508.882812 C 81.621094 533.289062 76.453125 529.761719 69.304688 524.875 C 65.617188 522.359375 61.433594 519.507812 54.640625 519.730469 C 51.574219 519.84375 48.691406 521.441406 46.707031 524.132812 C 36.808594 536.683594 38.015625 571.878906 38.257812 577.171875 Z M 38.257812 577.171875 "/>
<path style=" stroke:none;fill-rule:nonzero;fill:rgb(24.705882%,23.921569%,33.72549%);fill-opacity:1;" d="M 767.015625 579.398438 L 598.542969 579.398438 L 598.511719 578.3125 L 590.464844 313.449219 L 775.089844 313.449219 Z M 600.433594 577.148438 L 765.125 577.148438 L 773.066406 315.703125 L 592.492188 315.703125 Z M 600.433594 577.148438 "/>
<path style=" stroke:none;fill-rule:nonzero;fill:rgb(24.705882%,23.921569%,33.72549%);fill-opacity:1;" d="M 625.917969 362.523438 L 638.730469 362.523438 L 638.730469 545.082031 L 625.917969 545.082031 Z M 625.917969 362.523438 "/>
<path style=" stroke:none;fill-rule:nonzero;fill:rgb(24.705882%,23.921569%,33.72549%);fill-opacity:1;" d="M 676.371094 362.523438 L 689.1875 362.523438 L 689.1875 545.082031 L 676.371094 545.082031 Z M 676.371094 362.523438 "/>
<path style=" stroke:none;fill-rule:nonzero;fill:rgb(24.705882%,23.921569%,33.72549%);fill-opacity:1;" d="M 726.828125 362.523438 L 739.640625 362.523438 L 739.640625 545.082031 L 726.828125 545.082031 Z M 726.828125 362.523438 "/>
<path style=" stroke:none;fill-rule:nonzero;fill:rgb(24.705882%,23.921569%,33.72549%);fill-opacity:1;" d="M 882.144531 391.226562 L 881.320312 390.625 L 672.054688 238.378906 L 690.207031 205.3125 L 691.035156 205.914062 L 900.296875 358.160156 Z M 674.753906 237.679688 L 881.535156 388.117188 L 897.597656 358.859375 L 690.816406 208.417969 Z M 674.753906 237.679688 "/>
<path style=" stroke:none;fill-rule:nonzero;fill:rgb(24.705882%,23.921569%,33.72549%);fill-opacity:1;" d="M 831.621094 226.109375 C 819.199219 217.058594 803.339844 217.167969 791.011719 226.382812 C 778.683594 235.601562 772.144531 252.238281 774.277344 268.984375 L 784.253906 276.242188 C 779.105469 262.484375 782.34375 246.46875 792.238281 236.742188 C 802.132812 227.011719 816.378906 225.835938 827.378906 233.839844 C 838.378906 241.847656 843.566406 257.164062 840.175781 271.628906 C 836.785156 286.09375 825.609375 296.328125 812.605469 296.878906 L 822.582031 304.136719 C 836.636719 299.171875 846.886719 285.238281 848.832031 268.460938 C 850.777344 251.6875 844.058594 235.144531 831.628906 226.109375 Z M 831.621094 226.109375 "/>
<path style=" stroke:none;fill-rule:nonzero;fill:rgb(24.705882%,23.921569%,33.72549%);fill-opacity:1;" d="M 0 577.84375 L 889.238281 577.84375 L 889.238281 580.097656 L 0 580.097656 Z M 0 577.84375 "/>
<path style=" stroke:none;fill-rule:nonzero;fill:rgb(99.607843%,72.156863%,72.156863%);fill-opacity:1;" d="M 388.40625 562.476562 L 374.160156 562.476562 L 367.378906 499.210938 L 388.410156 499.210938 Z M 388.40625 562.476562 "/>
<path style=" stroke:none;fill-rule:nonzero;fill:rgb(18.431373%,18.039216%,25.490196%);fill-opacity:1;" d="M 346.683594 577.703125 L 391.457031 577.703125 L 391.457031 557.789062 L 363.742188 557.789062 C 354.320312 557.789062 346.683594 566.582031 346.683594 577.429688 Z M 346.683594 577.703125 "/>
<path style=" stroke:none;fill-rule:nonzero;fill:rgb(99.607843%,72.156863%,72.156863%);fill-opacity:1;" d="M 383.398438 464.445312 L 393.226562 476.320312 L 437.691406 438.335938 L 423.1875 420.808594 Z M 383.398438 464.445312 "/>
<path style=" stroke:none;fill-rule:nonzero;fill:rgb(18.431373%,18.039216%,25.490196%);fill-opacity:1;" d="M 403.351562 481.761719 L 384.226562 458.660156 L 371.699219 472.402344 L 402.597656 509.722656 L 402.769531 509.53125 C 409.589844 502.046875 409.851562 489.613281 403.351562 481.761719 Z M 403.351562 481.761719 "/>
<path style=" stroke:none;fill-rule:nonzero;fill:rgb(99.607843%,72.156863%,72.156863%);fill-opacity:1;" d="M 284.230469 291.121094 C 282.40625 287.742188 281.976562 283.605469 283.054688 279.820312 C 284.132812 276.039062 286.613281 273.003906 289.824219 271.527344 L 345.757812 107.40625 L 367.5625 122.4375 L 305.425781 279.878906 C 307.261719 286.398438 304.574219 293.472656 299.167969 296.339844 C 293.757812 299.207031 287.34375 296.96875 284.230469 291.121094 Z M 284.230469 291.121094 "/>
<path style=" stroke:none;fill-rule:nonzero;fill:rgb(99.607843%,72.156863%,72.156863%);fill-opacity:1;" d="M 496.546875 302.886719 C 493.09375 302.601562 489.933594 300.574219 487.90625 297.34375 C 485.882812 294.117188 485.203125 290.019531 486.050781 286.160156 L 403.53125 137.648438 L 426.902344 126.160156 L 501.089844 276.535156 C 506.761719 278.648438 510.160156 285.3125 509 292.039062 C 507.839844 298.769531 502.488281 303.433594 496.546875 302.890625 Z M 496.546875 302.886719 "/>
<path style=" stroke:none;fill-rule:nonzero;fill:rgb(18.431373%,18.039216%,25.490196%);fill-opacity:1;" d="M 346.308594 274.6875 L 360.914062 524.609375 L 395.820312 521.066406 L 403.007812 336.679688 L 422.515625 415.867188 L 464.605469 419.414062 L 447.945312 262.867188 Z M 346.308594 274.6875 "/>
<path style=" stroke:none;fill-rule:nonzero;fill:rgb(18.431373%,18.039216%,25.490196%);fill-opacity:1;" d="M 428.675781 404.050781 L 422.511719 415.867188 L 379.398438 450.144531 L 410.195312 469.054688 C 410.195312 469.054688 469.742188 431.234375 464.609375 419.414062 Z M 428.675781 404.050781 "/>
<path style=" stroke:none;fill-rule:nonzero;fill:rgb(80%,80%,80%);fill-opacity:1;" d="M 315.742188 173.574219 L 327.894531 134.15625 C 333.355469 116.441406 344.742188 101.976562 359.523438 93.984375 C 375.96875 87.011719 393.855469 85.882812 410.867188 90.75 L 415.289062 92.011719 C 427.078125 95.304688 438.125 101.445312 447.695312 110.03125 C 455.183594 116.828125 461.917969 125.433594 462.519531 134.6875 C 462.523438 134.707031 462.527344 134.726562 462.535156 134.746094 C 464.605469 145.210938 465.632812 199.578125 465.632812 199.578125 L 447.339844 199.578125 L 450.234375 272.855469 L 450 272.328125 C 450 272.328125 344.488281 295.3125 344.488281 283.496094 L 344.488281 207.847656 L 342.324219 180.460938 Z M 315.742188 173.574219 "/>
<path style=" stroke:none;fill-rule:nonzero;fill:rgb(99.607843%,72.156863%,72.156863%);fill-opacity:1;" d="M 443.464844 46.84375 C 443.464844 65.433594 430.375 80.503906 414.226562 80.503906 C 398.078125 80.503906 384.988281 65.433594 384.988281 46.84375 C 384.988281 28.25 398.078125 13.179688 414.226562 13.179688 C 430.375 13.179688 443.464844 28.25 443.464844 46.84375 Z M 443.464844 46.84375 "/>
<path style=" stroke:none;fill-rule:nonzero;fill:rgb(18.431373%,18.039216%,25.490196%);fill-opacity:1;" d="M 418.605469 31.746094 L 441.308594 32.792969 C 444.167969 32.785156 447.285156 32.667969 449.460938 30.542969 C 452.738281 27.332031 452.1875 21.277344 450.433594 16.753906 C 445.542969 4.160156 434.632812 -0.351562 422.652344 0.0195312 C 410.671875 0.390625 398.117188 5.066406 391.664062 16.6875 C 385.214844 28.3125 383.46875 42.988281 385.902344 56.492188 C 391.617188 42.519531 403.355469 33.09375 416.722656 31.75 Z M 418.605469 31.746094 "/>
<path style=" stroke:none;fill-rule:nonzero;fill:rgb(0.392157%,50.196078%,23.529412%);fill-opacity:1;" d="M 553.425781 361 L 471.25 294.699219 C 469.660156 293.410156 469.273438 290.886719 470.386719 289.050781 L 534.882812 183.105469 C 536.003906 181.273438 538.195312 180.832031 539.789062 182.109375 L 621.964844 248.414062 C 623.554688 249.703125 623.941406 252.226562 622.828125 254.0625 L 558.332031 360.003906 C 557.214844 361.835938 555.019531 362.28125 553.425781 361 Z M 553.425781 361 "/>
<path style=" stroke:none;fill-rule:nonzero;fill:rgb(100%,100%,100%);fill-opacity:1;" d="M 571.90625 289.058594 L 523.6875 250.152344 C 521.339844 248.261719 520.773438 244.539062 522.414062 241.835938 C 524.058594 239.136719 527.292969 238.484375 529.636719 240.375 L 577.855469 279.28125 C 580.203125 281.171875 580.769531 284.894531 579.128906 287.59375 C 577.484375 290.296875 574.25 290.949219 571.90625 289.058594 Z M 571.90625 289.058594 "/>
<path style=" stroke:none;fill-rule:nonzero;fill:rgb(100%,100%,100%);fill-opacity:1;" d="M 560.839844 307.234375 L 512.621094 268.332031 C 510.273438 266.4375 509.699219 262.714844 511.34375 260.011719 C 512.992188 257.3125 516.226562 256.65625 518.570312 258.554688 L 566.789062 297.457031 C 569.132812 299.351562 569.699219 303.074219 568.058594 305.769531 C 566.414062 308.46875 563.183594 309.125 560.839844 307.234375 Z M 560.839844 307.234375 "/>
<path style=" stroke:none;fill-rule:nonzero;fill:rgb(100%,100%,100%);fill-opacity:1;" d="M 549.652344 325.609375 L 501.433594 286.703125 C 499.089844 284.8125 498.519531 281.089844 500.164062 278.390625 C 501.808594 275.6875 505.042969 275.035156 507.386719 276.925781 L 555.605469 315.832031 C 557.949219 317.726562 558.519531 321.449219 556.875 324.148438 C 555.230469 326.847656 552 327.5 549.652344 325.609375 Z M 549.652344 325.609375 "/>
<path style=" stroke:none;fill-rule:nonzero;fill:rgb(100%,100%,100%);fill-opacity:1;" d="M 571.769531 253.097656 L 553.09375 238.027344 C 550.746094 236.136719 550.175781 232.414062 551.820312 229.710938 C 553.464844 227.007812 556.699219 226.355469 559.046875 228.25 L 577.722656 243.320312 C 580.066406 245.214844 580.636719 248.9375 578.992188 251.636719 C 577.347656 254.335938 574.113281 254.988281 571.769531 253.097656 Z M 571.769531 253.097656 "/>
</g>
</svg>
