<?xml version="1.0" encoding="UTF-8"?>
<svg xmlns="http://www.w3.org/2000/svg" xmlns:xlink="http://www.w3.org/1999/xlink" width="900px" height="580px" viewBox="0 0 900 580" version="1.1">
<g id="surface1">
<path style=" stroke:none;fill-rule:nonzero;fill:rgb(94.901961%,94.901961%,94.901961%);fill-opacity:1;" d="M 718.179688 105.703125 C 713.507812 146.65625 700.195312 189.839844 679.3125 231.503906 C 653.492188 283.027344 618.214844 328.410156 577.292969 362.742188 L 575.023438 361.167969 C 615.746094 327 650.863281 281.816406 676.578125 230.507812 C 699.816406 184.136719 713.636719 135.882812 716.566406 90.984375 L 719.46875 91.371094 C 719.160156 96.113281 718.730469 100.890625 718.179688 105.703125 Z M 718.179688 105.703125 "/>
<path style=" stroke:none;fill-rule:nonzero;fill:rgb(94.901961%,94.901961%,94.901961%);fill-opacity:1;" d="M 736.792969 343.546875 C 679.316406 416.273438 609.582031 468.238281 540.441406 489.863281 L 539.042969 487.824219 C 607.707031 466.347656 677.03125 414.648438 734.246094 342.253906 Z M 736.792969 343.546875 "/>
<path style=" stroke:none;fill-rule:nonzero;fill:rgb(94.901961%,94.901961%,94.901961%);fill-opacity:1;" d="M 716.785156 156.691406 C 712.113281 197.644531 698.796875 240.824219 677.917969 282.488281 C 652.097656 334.011719 616.820312 379.394531 575.898438 413.730469 L 573.628906 412.15625 C 614.351562 377.984375 649.46875 332.804688 675.179688 281.492188 C 698.417969 235.125 712.242188 186.871094 715.171875 141.972656 L 718.074219 142.359375 C 717.765625 147.101562 717.335938 151.878906 716.785156 156.691406 Z M 716.785156 156.691406 "/>
<path style=" stroke:none;fill-rule:nonzero;fill:rgb(90.196078%,90.196078%,90.196078%);fill-opacity:1;" d="M 71.53125 261.828125 L 33.820312 261.828125 C 32.1875 261.832031 30.644531 261.238281 29.628906 260.222656 C 28.625 259.230469 28.25 257.929688 28.605469 256.691406 C 32.199219 244.085938 31.972656 230.980469 27.949219 218.460938 C 27.425781 216.773438 28.25 215.003906 30.023438 213.992188 C 49.414062 202.898438 64.683594 203.222656 75.414062 214.949219 C 75.898438 215.484375 76.21875 216.101562 76.351562 216.75 C 79.21875 230.457031 79.375 244.433594 76.820312 258.175781 C 76.453125 260.273438 74.195312 261.832031 71.53125 261.828125 Z M 71.53125 261.828125 "/>
<path style=" stroke:none;fill-rule:nonzero;fill:rgb(100%,100%,100%);fill-opacity:1;" d="M 59.839844 231.792969 L 46.867188 231.792969 C 45.375 231.792969 44.164062 230.828125 44.164062 229.640625 C 44.164062 228.453125 45.375 227.488281 46.867188 227.488281 L 59.839844 227.488281 C 61.332031 227.492188 62.539062 228.453125 62.539062 229.640625 C 62.539062 230.828125 61.332031 231.789062 59.839844 231.792969 Z M 59.839844 231.792969 "/>
<path style=" stroke:none;fill-rule:nonzero;fill:rgb(100%,100%,100%);fill-opacity:1;" d="M 59.839844 239.335938 L 46.867188 239.335938 C 45.375 239.335938 44.164062 238.375 44.164062 237.183594 C 44.164062 235.996094 45.375 235.035156 46.867188 235.035156 L 59.839844 235.035156 C 61.332031 235.035156 62.539062 236 62.539062 237.183594 C 62.539062 238.371094 61.332031 239.332031 59.839844 239.335938 Z M 59.839844 239.335938 "/>
<path style=" stroke:none;fill-rule:nonzero;fill:rgb(100%,100%,100%);fill-opacity:1;" d="M 59.839844 246.882812 L 46.867188 246.882812 C 45.375 246.882812 44.164062 245.917969 44.164062 244.730469 C 44.164062 243.542969 45.375 242.578125 46.867188 242.578125 L 59.839844 242.578125 C 61.332031 242.582031 62.539062 243.542969 62.539062 244.730469 C 62.539062 245.917969 61.332031 246.878906 59.839844 246.882812 Z M 59.839844 246.882812 "/>
<path style=" stroke:none;fill-rule:nonzero;fill:rgb(90.196078%,90.196078%,90.196078%);fill-opacity:1;" d="M 756.90625 395.746094 L 719.195312 395.746094 C 717.5625 395.75 716.019531 395.15625 715.003906 394.140625 C 714.003906 393.148438 713.625 391.847656 713.980469 390.609375 C 717.574219 378.003906 717.347656 364.902344 713.324219 352.378906 C 712.800781 350.691406 713.625 348.921875 715.398438 347.910156 C 734.789062 336.816406 750.0625 337.140625 760.789062 348.867188 C 761.273438 349.402344 761.59375 350.019531 761.726562 350.667969 C 764.59375 364.375 764.75 378.351562 762.195312 392.09375 C 761.828125 394.191406 759.570312 395.753906 756.90625 395.746094 Z M 756.90625 395.746094 "/>
<path style=" stroke:none;fill-rule:nonzero;fill:rgb(100%,100%,100%);fill-opacity:1;" d="M 745.214844 365.710938 L 732.242188 365.710938 C 730.75 365.707031 729.542969 364.746094 729.542969 363.558594 C 729.542969 362.371094 730.75 361.410156 732.242188 361.40625 L 745.214844 361.40625 C 746.710938 361.40625 747.921875 362.371094 747.921875 363.558594 C 747.921875 364.746094 746.710938 365.710938 745.214844 365.710938 Z M 745.214844 365.710938 "/>
<path style=" stroke:none;fill-rule:nonzero;fill:rgb(100%,100%,100%);fill-opacity:1;" d="M 745.214844 373.253906 L 732.242188 373.253906 C 730.75 373.253906 729.542969 372.289062 729.542969 371.105469 C 729.542969 369.917969 730.75 368.953125 732.242188 368.953125 L 745.214844 368.953125 C 746.710938 368.953125 747.921875 369.914062 747.921875 371.105469 C 747.921875 372.292969 746.710938 373.253906 745.214844 373.253906 Z M 745.214844 373.253906 "/>
<path style=" stroke:none;fill-rule:nonzero;fill:rgb(100%,100%,100%);fill-opacity:1;" d="M 745.214844 380.800781 L 732.242188 380.800781 C 730.75 380.796875 729.542969 379.835938 729.542969 378.648438 C 729.542969 377.460938 730.75 376.5 732.242188 376.496094 L 745.214844 376.496094 C 746.710938 376.496094 747.921875 377.460938 747.921875 378.648438 C 747.921875 379.835938 746.710938 380.800781 745.214844 380.800781 Z M 745.214844 380.800781 "/>
<path style=" stroke:none;fill-rule:nonzero;fill:rgb(80%,80%,80%);fill-opacity:1;" d="M 899.609375 579.183594 C 899.609375 579.484375 899.460938 579.769531 899.195312 579.980469 C 898.933594 580.191406 898.570312 580.308594 898.199219 580.308594 L 1.410156 580.308594 C 0.632812 580.308594 0 579.804688 0 579.183594 C 0 578.566406 0.632812 578.0625 1.410156 578.0625 L 898.199219 578.0625 C 898.570312 578.0625 898.933594 578.179688 899.195312 578.390625 C 899.460938 578.601562 899.609375 578.886719 899.609375 579.183594 Z M 899.609375 579.183594 "/>
<path style=" stroke:none;fill-rule:nonzero;fill:rgb(94.901961%,94.901961%,94.901961%);fill-opacity:1;" d="M 236.566406 510.472656 L 234.214844 484.453125 C 218.804688 478.328125 201.75 475.285156 184.53125 475.59375 C 208.757812 490.484375 206.816406 520.253906 223.597656 540.628906 C 234.320312 553.433594 251.785156 561.664062 271.058594 563 L 291.222656 572.226562 C 295.890625 547.6875 286.816406 522.753906 266.386719 503.996094 C 260.660156 498.839844 254.140625 494.28125 246.980469 490.417969 C 242.570312 500.484375 236.566406 510.472656 236.566406 510.472656 Z M 236.566406 510.472656 "/>
<path style=" stroke:none;fill-rule:nonzero;fill:rgb(94.901961%,94.901961%,94.901961%);fill-opacity:1;" d="M 663.042969 514.242188 L 665.394531 488.226562 C 680.800781 482.101562 697.855469 479.058594 715.078125 479.363281 C 690.851562 494.257812 692.792969 524.027344 676.011719 544.398438 C 665.289062 557.207031 647.824219 565.4375 628.546875 566.769531 L 608.386719 575.996094 C 603.71875 551.460938 612.792969 526.527344 633.222656 507.769531 C 638.949219 502.613281 645.46875 498.050781 652.628906 494.191406 C 657.035156 504.257812 663.042969 514.242188 663.042969 514.242188 Z M 663.042969 514.242188 "/>
<path style=" stroke:none;fill-rule:nonzero;fill:rgb(33.72549%,17.254902%,17.254902%);fill-opacity:1;" d="M 461.660156 202.710938 C 461.660156 212.605469 451.574219 220.628906 439.132812 220.628906 C 426.691406 220.628906 416.601562 212.605469 416.601562 202.710938 C 416.601562 192.8125 426.691406 184.792969 439.132812 184.792969 C 451.574219 184.792969 461.660156 192.8125 461.660156 202.710938 Z M 461.660156 202.710938 "/>
<path style=" stroke:none;fill-rule:nonzero;fill:rgb(100%,100%,100%);fill-opacity:1;" d="M 450.699219 195.242188 C 449.992188 194.707031 448.886719 194.707031 448.183594 195.242188 C 443.402344 198.273438 439.109375 201.761719 435.398438 205.628906 C 434.488281 204.226562 433.574219 202.824219 432.664062 201.421875 C 431.613281 199.804688 428.542969 201.234375 429.59375 202.851562 C 430.925781 204.902344 432.257812 206.953125 433.589844 209 C 433.917969 209.425781 434.5 209.6875 435.125 209.6875 C 435.753906 209.6875 436.335938 209.425781 436.660156 209 C 440.617188 204.574219 445.34375 200.613281 450.699219 197.242188 C 451.386719 196.6875 451.386719 195.796875 450.699219 195.242188 Z M 450.699219 195.242188 "/>
<path style=" stroke:none;fill-rule:nonzero;fill:rgb(62.745098%,38.039216%,41.568627%);fill-opacity:1;" d="M 338.324219 253.519531 L 304.351562 211.085938 L 343.691406 194.328125 L 354.015625 226.703125 L 426.769531 257.972656 C 434.777344 255.679688 443.621094 258.867188 446.738281 265.167969 C 449.851562 271.464844 446.101562 278.589844 438.277344 281.25 C 430.453125 283.910156 421.386719 281.136719 417.816406 274.992188 Z M 338.324219 253.519531 "/>
<path style=" stroke:none;fill-rule:nonzero;fill:rgb(24.705882%,23.921569%,33.72549%);fill-opacity:1;" d="M 279.527344 160.1875 C 268.851562 172.65625 306.789062 217.964844 306.789062 217.964844 C 308.636719 214.796875 326.304688 250.375 329.261719 248.273438 C 337.671875 242.300781 350.835938 225.664062 358.152344 224.921875 C 362.339844 224.496094 348.449219 200.890625 348.449219 200.890625 C 348.449219 200.890625 342.101562 186.953125 333.484375 169.148438 C 328.773438 158.84375 317.753906 151.179688 304.285156 148.839844 C 304.285156 148.839844 290.203125 147.722656 279.527344 160.1875 Z M 279.527344 160.1875 "/>
<path style=" stroke:none;fill-rule:nonzero;fill:rgb(62.745098%,38.039216%,41.568627%);fill-opacity:1;" d="M 280.050781 566.316406 L 296.183594 566.316406 L 303.859375 516.816406 L 280.046875 516.820312 Z M 280.050781 566.316406 "/>
<path style=" stroke:none;fill-rule:nonzero;fill:rgb(18.431373%,18.039216%,25.490196%);fill-opacity:1;" d="M 275.933594 562.125 L 280.472656 562.125 L 298.207031 556.390625 L 307.707031 562.125 L 307.710938 562.125 C 318.894531 562.125 327.960938 569.335938 327.960938 578.230469 L 327.960938 578.753906 L 275.933594 578.757812 Z M 275.933594 562.125 "/>
<path style=" stroke:none;fill-rule:nonzero;fill:rgb(62.745098%,38.039216%,41.568627%);fill-opacity:1;" d="M 355.007812 566.316406 L 371.144531 566.316406 L 378.820312 516.816406 L 355.007812 516.820312 Z M 355.007812 566.316406 "/>
<path style=" stroke:none;fill-rule:nonzero;fill:rgb(18.431373%,18.039216%,25.490196%);fill-opacity:1;" d="M 350.894531 562.125 L 355.433594 562.125 L 373.164062 556.390625 L 382.667969 562.125 L 382.671875 562.125 C 393.855469 562.125 402.917969 569.335938 402.921875 578.230469 L 402.921875 578.753906 L 350.894531 578.757812 Z M 350.894531 562.125 "/>
<path style=" stroke:none;fill-rule:nonzero;fill:rgb(18.431373%,18.039216%,25.490196%);fill-opacity:1;" d="M 361.992188 295.707031 L 257.042969 297.792969 C 237.113281 306.40625 236.808594 325.039062 243.339844 347.167969 C 243.339844 347.167969 241.136719 360.316406 245.542969 363.824219 C 249.953125 367.332031 252.160156 367.332031 249.953125 373.46875 C 247.75 379.605469 259.398438 389.628906 257.984375 390.757812 C 256.570312 391.882812 253.261719 398.019531 253.261719 398.019531 L 264.285156 447.992188 C 264.285156 447.992188 272 534.792969 274.207031 536.542969 C 276.410156 538.296875 278.617188 536.542969 276.410156 540.929688 C 274.207031 545.3125 272 543.558594 274.207031 545.3125 C 276.160156 546.988281 278 548.742188 279.71875 550.574219 L 306.371094 550.574219 C 306.371094 550.574219 308.378906 541.804688 308.378906 540.929688 C 308.378906 540.050781 310.582031 534.792969 310.582031 533.914062 C 310.582031 533.039062 308.636719 531.488281 308.636719 531.488281 C 307.960938 529.707031 307.507812 527.875 307.277344 526.023438 C 307.277344 524.269531 300.664062 456.761719 300.664062 456.761719 L 313.890625 369.085938 L 345.859375 455.007812 C 345.859375 455.007812 345.859375 530.40625 348.0625 532.160156 C 350.269531 533.914062 350.269531 533.039062 349.167969 536.542969 C 348.0625 540.050781 343.65625 539.175781 346.960938 541.804688 C 350.269531 544.433594 351.371094 540.050781 350.269531 544.433594 L 349.167969 548.820312 L 382.238281 549.195312 C 382.238281 549.195312 386.648438 541.804688 384.441406 539.175781 C 382.238281 536.542969 382.371094 537.261719 385.058594 532.957031 C 387.75 528.652344 388.851562 527.777344 387.75 526.902344 C 386.648438 526.023438 386.648438 521.359375 386.648438 521.359375 L 381.136719 437.472656 C 381.136719 437.472656 380.03125 348.921875 380.03125 346.289062 C 379.949219 344.9375 380.261719 343.585938 380.949219 342.347656 L 380.949219 338.777344 L 376.726562 326.125 Z M 361.992188 295.707031 "/>
<path style=" stroke:none;fill-rule:nonzero;fill:rgb(62.745098%,38.039216%,41.568627%);fill-opacity:1;" d="M 331.558594 96.210938 C 331.558594 110.53125 316.957031 122.144531 298.949219 122.144531 C 280.941406 122.144531 266.339844 110.53125 266.339844 96.210938 C 266.339844 81.886719 280.941406 70.273438 298.949219 70.273438 C 316.957031 70.273438 331.558594 81.886719 331.558594 96.210938 Z M 331.558594 96.210938 "/>
<path style=" stroke:none;fill-rule:nonzero;fill:rgb(24.705882%,23.921569%,33.72549%);fill-opacity:1;" d="M 315.253906 139.285156 C 322.277344 142.605469 326.480469 148.710938 328.894531 154.921875 C 333.359375 166.417969 336.046875 178.304688 336.898438 190.320312 L 339.445312 226.292969 L 371.003906 302.882812 C 343.652344 321.289062 240.851562 307.066406 240.851562 307.066406 C 240.851562 307.066406 237.699219 306.230469 240.851562 303.71875 C 244.007812 301.210938 247.082031 303.433594 243.925781 300.925781 C 240.769531 298.414062 242.945312 301.210938 243.996094 298.699219 C 245.050781 296.191406 243.996094 297.863281 242.945312 297.027344 C 241.894531 296.191406 251.089844 288.660156 251.089844 288.660156 L 242.671875 244.695312 L 232.15625 156.015625 C 244.777344 143.46875 270.164062 136.070312 270.164062 136.070312 L 276.722656 126.679688 L 309.519531 128.765625 Z M 315.253906 139.285156 "/>
<path style=" stroke:none;fill-rule:nonzero;fill:rgb(18.431373%,18.039216%,25.490196%);fill-opacity:1;" d="M 325.828125 82.429688 C 328.363281 83.933594 330.242188 86.03125 331.199219 88.429688 C 331.566406 84.511719 331.589844 80.578125 331.269531 76.660156 C 330.882812 73.90625 328.445312 73.285156 325.621094 72.570312 C 323.074219 71.921875 320.191406 71.1875 319.414062 68.515625 C 309.164062 60.582031 291.320312 60.984375 279.109375 63.75 C 272.390625 65.273438 268.523438 67.226562 268.175781 68.375 L 268.105469 68.609375 L 267.832031 68.71875 C 262.652344 70.777344 261.644531 77.28125 261.710938 82.375 C 261.835938 91.972656 266.003906 102.871094 268.351562 103.757812 C 268.476562 103.804688 268.507812 103.785156 268.558594 103.75 C 272.09375 101.503906 276.40625 103.921875 278.300781 105.234375 C 280.601562 92.960938 293.132812 83.519531 308.667969 82.355469 C 311.132812 82.164062 313.578125 81.839844 315.988281 81.378906 C 317.207031 81.128906 318.464844 80.996094 319.726562 80.988281 C 321.898438 80.960938 324.027344 81.464844 325.828125 82.429688 Z M 325.828125 82.429688 "/>
<path style=" stroke:none;fill-rule:nonzero;fill:rgb(100%,72.156863%,72.156863%);fill-opacity:1;" d="M 528.257812 316.371094 L 590.984375 265.710938 L 607.511719 225.195312 L 580.914062 216.636719 C 567.742188 227.207031 554.179688 259.5625 554.179688 259.5625 L 511.367188 305.261719 C 511.023438 305.363281 510.683594 305.472656 510.347656 305.597656 C 504.90625 307.640625 502.023438 312.445312 503.445312 317.097656 C 504.871094 321.746094 510.210938 324.957031 516.222656 324.78125 C 522.238281 324.609375 527.265625 321.09375 528.257812 316.371094 Z M 528.257812 316.371094 "/>
<path style=" stroke:none;fill-rule:nonzero;fill:rgb(33.72549%,17.254902%,17.254902%);fill-opacity:1;" d="M 573.660156 221.273438 L 607.292969 229.011719 L 607.417969 228.992188 C 619.78125 227.082031 629.558594 210.742188 635.585938 197.371094 C 639.699219 188.21875 634.199219 178.097656 623 174.210938 C 614.855469 171.4375 605.433594 172.578125 598.699219 177.160156 L 581.929688 188.644531 Z M 573.660156 221.273438 "/>
<path style=" stroke:none;fill-rule:nonzero;fill:rgb(100%,72.156863%,72.156863%);fill-opacity:1;" d="M 544.886719 564.8125 L 526.796875 564.8125 L 518.195312 509.324219 L 544.890625 509.324219 Z M 544.886719 564.8125 "/>
<path style=" stroke:none;fill-rule:nonzero;fill:rgb(18.431373%,18.039216%,25.490196%);fill-opacity:1;" d="M 549.5 560.113281 L 544.410156 560.113281 L 524.53125 553.6875 L 513.878906 560.113281 C 501.34375 560.113281 491.179688 568.195312 491.179688 578.167969 L 491.179688 578.753906 L 549.5 578.757812 Z M 549.5 560.113281 "/>
<path style=" stroke:none;fill-rule:nonzero;fill:rgb(100%,72.156863%,72.156863%);fill-opacity:1;" d="M 625.144531 564.8125 L 607.054688 564.8125 L 598.453125 509.324219 L 625.148438 509.324219 Z M 625.144531 564.8125 "/>
<path style=" stroke:none;fill-rule:nonzero;fill:rgb(18.431373%,18.039216%,25.490196%);fill-opacity:1;" d="M 629.757812 560.113281 L 624.667969 560.113281 L 604.789062 553.6875 L 594.136719 560.113281 C 581.597656 560.113281 571.4375 568.195312 571.433594 578.167969 L 571.433594 578.753906 L 629.757812 578.757812 Z M 629.757812 560.113281 "/>
<path style=" stroke:none;fill-rule:nonzero;fill:rgb(18.431373%,18.039216%,25.490196%);fill-opacity:1;" d="M 652.722656 325.808594 C 652.722656 325.808594 654.835938 345.964844 649.554688 365.285156 C 644.273438 384.601562 644.273438 439.003906 644.273438 439.003906 L 632.660156 545.019531 L 597.808594 542.5 L 588.304688 365.285156 L 554.515625 424.914062 L 557.683594 433.3125 L 553.460938 435.414062 C 553.460938 435.414062 556.625 451.792969 554.515625 451.792969 C 552.402344 451.792969 547.121094 454.3125 547.121094 454.3125 L 551.347656 540.820312 L 515.441406 539.980469 L 502.769531 418.195312 L 516.496094 348.484375 L 517.554688 335.046875 L 522.304688 335.203125 L 524.726562 329.589844 L 529.167969 319.929688 Z M 652.722656 325.808594 "/>
<path style=" stroke:none;fill-rule:nonzero;fill:rgb(33.72549%,17.254902%,17.254902%);fill-opacity:1;" d="M 654.546875 330.042969 L 654.738281 329.832031 C 664.789062 318.640625 649.671875 291.746094 647.390625 287.847656 L 656.992188 285.367188 L 654.832031 270.746094 L 653.808594 264.230469 L 661.148438 258.390625 L 661.167969 258.246094 L 665.390625 228.847656 L 671.53125 209.324219 C 676.246094 194.296875 670.398438 178.417969 656.234375 167.785156 L 642.039062 157.136719 L 624.785156 136.835938 L 596.964844 136.835938 L 587.425781 151.164062 C 568.339844 154.675781 555.132812 168.53125 556.046875 184.09375 L 558.210938 221.683594 L 549.746094 268.480469 L 549.742188 276.949219 L 540.214844 285.371094 L 542.296875 293.640625 L 535.046875 296.113281 L 531.847656 307.992188 C 530.519531 309.382812 521.777344 318.65625 521.777344 321.1875 C 521.777344 321.570312 522.132812 321.9375 522.890625 322.347656 C 528.847656 325.554688 561.78125 332.097656 576.359375 327.457031 C 591.886719 322.519531 653.605469 329.929688 654.226562 330.003906 Z M 654.546875 330.042969 "/>
<path style=" stroke:none;fill-rule:nonzero;fill:rgb(100%,72.156863%,72.156863%);fill-opacity:1;" d="M 644.128906 100.972656 C 644.128906 117.160156 627.632812 130.28125 607.28125 130.28125 C 586.929688 130.28125 570.433594 117.160156 570.433594 100.972656 C 570.433594 84.789062 586.929688 71.667969 607.28125 71.667969 C 627.632812 71.667969 644.128906 84.789062 644.128906 100.972656 Z M 644.128906 100.972656 "/>
<path style=" stroke:none;fill-rule:nonzero;fill:rgb(18.431373%,18.039216%,25.490196%);fill-opacity:1;" d="M 603.75 130.753906 C 609.457031 130.707031 615.148438 130.273438 620.761719 129.457031 C 626.320312 128.4375 638.582031 120.898438 641.921875 116.445312 C 644.40625 113.132812 645.894531 108.015625 646.710938 104.300781 C 648.929688 94.367188 645.75 84.152344 637.960938 76.1875 C 636.472656 74.539062 634.457031 73.238281 632.117188 72.425781 C 631.910156 72.367188 631.699219 72.3125 631.484375 72.269531 C 628.097656 71.636719 625.023438 70.207031 622.664062 68.175781 C 622.203125 67.761719 621.707031 67.378906 621.179688 67.023438 C 618.53125 65.335938 615.417969 64.171875 612.09375 63.625 C 606.722656 62.597656 599.042969 63.882812 589.261719 67.449219 C 584.351562 69.238281 578.898438 68.738281 574.695312 68.101562 C 574.214844 68.039062 573.730469 68.183594 573.417969 68.480469 C 571.683594 69.84375 569.363281 70.636719 566.925781 70.695312 C 565.433594 70.777344 563.917969 72.457031 562.09375 74.640625 C 561.679688 75.136719 561.195312 75.714844 560.847656 76.066406 L 560.777344 75.40625 L 559.953125 76.164062 C 557.332031 78.585938 556.453125 81.90625 557.625 84.964844 C 558.796875 88.023438 561.859375 90.390625 565.738281 91.234375 C 567.25 91.519531 568.796875 91.683594 570.351562 91.722656 C 571.292969 91.769531 572.269531 91.820312 573.203125 91.929688 C 579.324219 92.796875 584.417969 96.15625 586.625 100.773438 C 587.144531 101.839844 588.253906 102.652344 589.632812 102.972656 C 591.007812 103.292969 592.496094 103.085938 593.65625 102.414062 C 595.585938 101.15625 598.171875 100.726562 600.578125 101.265625 C 601.605469 101.695312 602.421875 102.390625 602.882812 103.238281 C 603.4375 104.183594 604.335938 104.976562 605.460938 105.511719 C 609.296875 106.988281 609.78125 113.859375 608.609375 119.621094 C 607.476562 125.175781 605.015625 129.226562 602.625 129.472656 C 600.78125 129.660156 600.574219 129.769531 600.449219 130.03125 L 600.335938 130.269531 L 600.550781 130.480469 C 601.582031 130.753906 602.671875 130.847656 603.75 130.753906 Z M 603.75 130.753906 "/>
<path style=" stroke:none;fill-rule:nonzero;fill:rgb(100%,72.156863%,72.156863%);fill-opacity:1;" d="M 573.179688 224.40625 L 555.46875 206.457031 C 537.429688 210.410156 505.417969 233.101562 505.417969 233.101562 L 439.675781 255.792969 C 433.609375 254.984375 427.6875 257.757812 425.636719 262.367188 C 423.585938 266.980469 425.996094 272.097656 431.355469 274.503906 C 436.714844 276.90625 443.46875 275.898438 447.371094 272.117188 L 533.488281 253.007812 Z M 573.179688 224.40625 "/>
<path style=" stroke:none;fill-rule:nonzero;fill:rgb(33.72549%,17.254902%,17.254902%);fill-opacity:1;" d="M 568.9375 228.511719 L 596.882812 203.734375 L 598.433594 186.175781 C 599.023438 179.144531 594.542969 172.453125 586.875 168.917969 C 576.261719 164.101562 562.773438 166.644531 556.007812 174.738281 C 546.132812 186.574219 535.511719 202.578125 540.976562 211.601562 L 541.03125 211.695312 Z M 568.9375 228.511719 "/>
<path style=" stroke:none;fill-rule:nonzero;fill:rgb(90.196078%,90.196078%,90.196078%);fill-opacity:1;" d="M 311.359375 321.640625 L 238.726562 292.054688 C 233.558594 289.949219 231.847656 284.367188 234.910156 279.613281 L 282.269531 206.066406 C 285.332031 201.308594 292.027344 199.152344 297.195312 201.257812 L 369.828125 230.84375 C 374.992188 232.945312 376.703125 238.527344 373.640625 243.285156 L 326.285156 316.832031 C 323.21875 321.585938 316.523438 323.746094 311.359375 321.640625 Z M 311.359375 321.640625 "/>
<path style=" stroke:none;fill-rule:nonzero;fill:rgb(100%,100%,100%);fill-opacity:1;" d="M 298.949219 308.039062 L 249.601562 287.9375 C 244.761719 285.96875 243.160156 280.738281 246.027344 276.285156 L 285.371094 215.183594 C 288.242188 210.730469 294.511719 208.710938 299.351562 210.679688 L 358.953125 234.957031 C 363.792969 236.929688 365.394531 242.15625 362.523438 246.613281 L 341.152344 279.804688 C 328.375 299.648438 320.5 316.820312 298.949219 308.039062 Z M 298.949219 308.039062 "/>
<path style=" stroke:none;fill-rule:nonzero;fill:rgb(33.72549%,17.254902%,17.254902%);fill-opacity:1;" d="M 323.347656 274.671875 L 279.636719 256.867188 C 278.535156 256.242188 278.171875 255.066406 278.792969 254.105469 C 279.410156 253.148438 280.820312 252.691406 282.105469 253.039062 L 325.8125 270.84375 C 326.917969 271.46875 327.277344 272.644531 326.660156 273.605469 C 326.042969 274.566406 324.632812 275.019531 323.347656 274.671875 Z M 323.347656 274.671875 "/>
<path style=" stroke:none;fill-rule:nonzero;fill:rgb(33.72549%,17.254902%,17.254902%);fill-opacity:1;" d="M 284.742188 268.496094 L 274.765625 264.433594 C 273.660156 263.808594 273.300781 262.632812 273.917969 261.671875 C 274.539062 260.710938 275.949219 260.257812 277.230469 260.605469 L 287.207031 264.667969 C 288.3125 265.292969 288.671875 266.46875 288.054688 267.429688 C 287.4375 268.390625 286.027344 268.84375 284.742188 268.496094 Z M 284.742188 268.496094 "/>
<path style=" stroke:none;fill-rule:nonzero;fill:rgb(33.72549%,17.254902%,17.254902%);fill-opacity:1;" d="M 297.535156 283.257812 L 269.894531 272 C 268.789062 271.375 268.429688 270.199219 269.046875 269.238281 C 269.667969 268.277344 271.074219 267.824219 272.359375 268.171875 L 300.003906 279.429688 C 301.105469 280.054688 301.46875 281.230469 300.847656 282.191406 C 300.230469 283.152344 298.820312 283.605469 297.535156 283.257812 Z M 297.535156 283.257812 "/>
<path style=" stroke:none;fill-rule:nonzero;fill:rgb(33.72549%,17.254902%,17.254902%);fill-opacity:1;" d="M 340.644531 247.8125 L 296.933594 230.007812 C 295.832031 229.382812 295.46875 228.207031 296.089844 227.246094 C 296.707031 226.285156 298.117188 225.832031 299.402344 226.179688 L 343.109375 243.980469 C 344.214844 244.609375 344.574219 245.785156 343.957031 246.746094 C 343.339844 247.703125 341.929688 248.160156 340.644531 247.8125 Z M 340.644531 247.8125 "/>
<path style=" stroke:none;fill-rule:nonzero;fill:rgb(33.72549%,17.254902%,17.254902%);fill-opacity:1;" d="M 302.039062 241.636719 L 292.0625 237.574219 C 290.957031 236.949219 290.597656 235.773438 291.214844 234.8125 C 291.835938 233.851562 293.246094 233.398438 294.527344 233.742188 L 304.503906 237.808594 C 305.609375 238.433594 305.96875 239.609375 305.351562 240.570312 C 304.734375 241.527344 303.324219 241.984375 302.039062 241.636719 Z M 302.039062 241.636719 "/>
<path style=" stroke:none;fill-rule:nonzero;fill:rgb(33.72549%,17.254902%,17.254902%);fill-opacity:1;" d="M 314.832031 256.398438 L 287.191406 245.140625 C 286.085938 244.511719 285.726562 243.335938 286.34375 242.378906 C 286.960938 241.417969 288.371094 240.960938 289.65625 241.308594 L 317.300781 252.570312 C 318.402344 253.195312 318.765625 254.371094 318.144531 255.332031 C 317.527344 256.292969 316.117188 256.746094 314.832031 256.398438 Z M 314.832031 256.398438 "/>
<path style=" stroke:none;fill-rule:nonzero;fill:rgb(62.745098%,38.039216%,41.568627%);fill-opacity:1;" d="M 251.171875 257.613281 L 234.761719 209.027344 L 278.609375 202.425781 L 276.253906 235.773438 L 333.867188 282.957031 C 342.367188 282.679688 349.605469 287.832031 350.203125 294.582031 C 350.796875 301.332031 344.535156 307.234375 336.066406 307.90625 C 327.597656 308.578125 319.996094 303.769531 318.90625 297.058594 Z M 251.171875 257.613281 "/>
<path style=" stroke:none;fill-rule:nonzero;fill:rgb(24.705882%,23.921569%,33.72549%);fill-opacity:1;" d="M 230.273438 154.550781 C 215.390625 163.898438 234.492188 216.171875 234.492188 216.171875 C 237.453125 213.589844 240.890625 251.746094 244.503906 250.445312 C 254.777344 246.753906 273.613281 234.019531 280.871094 235.058594 C 285.023438 235.652344 280.671875 209.820312 280.671875 209.820312 C 280.671875 209.820312 279.875 195.011719 278.371094 175.96875 C 277.761719 165.015625 270.136719 155.074219 258.171875 149.628906 C 258.171875 149.628906 245.160156 145.207031 230.273438 154.550781 Z M 230.273438 154.550781 "/>
<path style=" stroke:none;fill-rule:nonzero;fill:rgb(90.196078%,90.196078%,90.196078%);fill-opacity:1;" d="M 477.929688 365.449219 L 438.292969 350.566406 C 436.578125 349.921875 435.324219 348.691406 434.890625 347.222656 C 434.457031 345.785156 434.871094 344.269531 436.019531 343.105469 C 447.5 331.4375 455.382812 317.789062 459.039062 303.257812 C 459.609375 300.964844 462.136719 299.308594 465.078125 299.304688 C 485.292969 299.359375 500.398438 305.230469 509.980469 316.753906 C 511.003906 317.964844 511.300781 319.476562 510.796875 320.878906 C 505.25 336.085938 496.808594 350.527344 485.765625 363.703125 C 484.070312 365.761719 480.722656 366.507812 477.929688 365.449219 Z M 477.929688 365.449219 "/>
<path style=" stroke:none;fill-rule:nonzero;fill:rgb(100%,100%,100%);fill-opacity:1;" d="M 489.589844 344.574219 L 459.285156 333.191406 C 457.714844 332.601562 457.042969 331.109375 457.78125 329.863281 C 458.523438 328.613281 460.398438 328.078125 461.96875 328.667969 L 492.273438 340.050781 C 493.84375 340.640625 494.515625 342.128906 493.773438 343.378906 C 493.03125 344.628906 491.160156 345.164062 489.589844 344.574219 Z M 489.589844 344.574219 "/>
<path style=" stroke:none;fill-rule:nonzero;fill:rgb(100%,100%,100%);fill-opacity:1;" d="M 494.296875 336.644531 L 463.992188 325.261719 C 462.421875 324.671875 461.75 323.179688 462.492188 321.933594 C 463.230469 320.683594 465.105469 320.148438 466.675781 320.738281 L 496.980469 332.121094 C 498.550781 332.710938 499.222656 334.203125 498.484375 335.449219 C 497.742188 336.699219 495.867188 337.234375 494.296875 336.644531 Z M 494.296875 336.644531 "/>
<path style=" stroke:none;fill-rule:nonzero;fill:rgb(94.901961%,94.901961%,94.901961%);fill-opacity:1;" d="M 453.800781 87.722656 L 450.980469 87.96875 C 438.402344 48.65625 414.023438 21.421875 380.472656 9.207031 C 337.824219 -6.320312 285.085938 4.105469 231.972656 38.566406 C 178.59375 73.199219 131.335938 127.90625 98.910156 192.613281 L 96.171875 191.613281 C 128.742188 126.628906 176.238281 71.65625 229.921875 36.828125 C 283.871094 1.824219 337.683594 -8.675781 381.449219 7.257812 C 415.960938 19.820312 440.980469 47.644531 453.800781 87.722656 Z M 453.800781 87.722656 "/>
<path style=" stroke:none;fill-rule:nonzero;fill:rgb(94.901961%,94.901961%,94.901961%);fill-opacity:1;" d="M 142.566406 138.921875 C 135.191406 151.28125 128.171875 164.085938 121.710938 176.980469 C 84.523438 251.1875 65.679688 326.96875 67.21875 396.140625 L 64.3125 395.894531 C 62.773438 326.464844 81.671875 250.421875 118.972656 175.984375 C 125.453125 163.054688 132.492188 150.210938 139.890625 137.816406 Z M 142.566406 138.921875 "/>
<path style=" stroke:none;fill-rule:nonzero;fill:rgb(94.901961%,94.901961%,94.901961%);fill-opacity:1;" d="M 141.171875 189.90625 C 133.796875 202.269531 126.777344 215.074219 120.316406 227.96875 C 83.128906 302.171875 64.285156 377.957031 65.824219 447.128906 L 62.917969 446.878906 C 61.378906 377.453125 80.277344 301.40625 117.578125 226.972656 C 124.058594 214.042969 131.097656 201.199219 138.496094 188.804688 Z M 141.171875 189.90625 "/>
<path style=" stroke:none;fill-rule:nonzero;fill:rgb(80%,80%,80%);fill-opacity:1;" d="M 58.8125 196.171875 C 53.253906 193.230469 46.140625 193.957031 42.929688 197.800781 C 39.714844 201.640625 41.617188 207.136719 47.175781 210.078125 C 52.734375 213.019531 59.84375 212.292969 63.058594 208.449219 C 66.269531 204.609375 64.371094 199.113281 58.8125 196.171875 Z M 58.8125 196.171875 "/>
<path style=" stroke:none;fill-rule:nonzero;fill:rgb(80%,80%,80%);fill-opacity:1;" d="M 742.933594 334.871094 C 737.375 331.929688 730.261719 332.65625 727.050781 336.5 C 723.835938 340.339844 725.738281 345.835938 731.296875 348.777344 C 736.855469 351.71875 743.964844 350.992188 747.179688 347.148438 C 750.390625 343.308594 748.492188 337.8125 742.933594 334.871094 Z M 742.933594 334.871094 "/>
</g>
</svg>
