<?xml version="1.0" standalone="no"?>
<!DOCTYPE svg PUBLIC "-//W3C//DTD SVG 1.0//EN" "http://www.w3.org/TR/2001/REC-SVG-20010904/DTD/svg10.dtd">
<svg xmlns="http://www.w3.org/2000/svg" xmlns:xlink="http://www.w3.org/1999/xlink" id="body_1" width="675" height="591">

<g transform="matrix(1.1782569 0 0 1.1782569 -0 82.62004)">
    <path transform="matrix(1 0 0 1 -313.5599 -269.32635)"  d="M731.5719 357.32635C 731.5719 391.99445 677.3821 494.23334 646.3117 550.00397C 642.02026 557.7096 633.89197 562.48663 625.0719 562.48663C 616.25183 562.48663 608.12354 557.7096 603.83203 550.00397C 572.7617 494.23337 518.57184 391.99445 518.57184 357.32635C 518.57184 308.72528 566.25354 269.32635 625.07184 269.32635C 683.89014 269.32635 731.5719 308.72528 731.5719 357.32635z" stroke="none" fill="#EF9C01" fill-rule="nonzero" />
    <path d="M370.012 87C 370.012 103.01626 364.3494 116.68699 353.02417 128.01219C 341.69897 139.3374 328.02826 145 312.012 145C 295.99573 145 282.325 139.3374 270.99982 128.01219C 259.67462 116.68699 254.01201 103.01626 254.012 87C 254.01201 70.98374 259.67462 57.31301 270.99982 45.98781C 282.325 34.662605 295.99573 29 312.012 29C 328.02826 29 341.69897 34.662605 353.02417 45.98781C 364.3494 57.31301 370.012 70.98374 370.012 87C 370.012 87.67493 370.0002 88.349655 369.97665 89.02417" stroke="none" fill="#FFFFFF" fill-rule="nonzero" />
    <path d="M104.721375 104.73964C 104.72138 114.33273 101.32971 122.52094 94.546364 129.30428C 87.76302 136.08762 79.574814 139.4793 69.98172 139.4793C 60.388634 139.4793 52.20042 136.08762 45.417076 129.30428C 38.63374 122.52094 35.24207 114.33273 35.24207 104.73964C 35.24207 95.14655 38.63374 86.958336 45.417076 80.174995C 52.20042 73.391655 60.388634 69.999985 69.98172 69.999985C 79.574814 69.999985 87.76302 73.391655 94.546364 80.174995C 101.32971 86.958336 104.72138 95.14655 104.721375 104.73964C 104.72138 105.1439 104.714325 105.54803 104.70021 105.952034" stroke="none" fill="#FF6584" fill-rule="nonzero" />
    <path d="M227.4199 354.85574C 227.4199 351.27054 265.0692 348.36417 311.512 348.36417C 357.95477 348.36417 395.60406 351.27054 395.60406 354.85574C 395.60406 358.44095 357.95477 361.34732 311.512 361.34732C 265.0692 361.34732 227.4199 358.44095 227.4199 354.85574" stroke="none" fill="#EF9C01" fill-rule="nonzero" />
    <path transform="matrix(0.16018236 -0.9870875 0.9870875 0.16018236 -410.53336 420.21115)"  d="M376.72635 401.75806C 376.72638 407.27704 374.77512 411.98776 370.8726 415.89026C 366.9701 419.7928 362.25934 421.74402 356.7404 421.74402C 351.22144 421.74402 346.51068 419.7928 342.6082 415.89026C 338.7057 411.98776 336.75446 407.27704 336.75443 401.75806C 336.75446 396.23914 338.7057 391.52838 342.6082 387.62585C 346.51068 383.72336 351.22144 381.7721 356.7404 381.7721C 362.25934 381.7721 366.9701 383.72336 370.8726 387.62585C 374.77512 391.52838 376.72638 396.23914 376.72635 401.75806C 376.72638 401.99066 376.7223 402.22314 376.71417 402.45557" stroke="none" fill="#EF9C01" fill-rule="nonzero" fill-opacity="0.4" />
    <path transform="matrix(1 0 0 1 -313.5599 -269.32635)"  d="M824.33014 504.85632C 666.9401 445.85632 474.98013 503.3763 364.15015 621.0363C 363.52014 621.6963 362.89014 622.36633 362.28015 623.0363L362.28015 623.0363L360.59015 623.0363C 361.17014 622.36633 361.77014 621.6963 362.36014 621.0363C 475.49014 494.42633 664.9001 443.96634 824.33014 504.85632z" stroke="none" fill="#3F3D56" fill-rule="nonzero" />
    <path transform="matrix(1 0 0 1 -313.5599 -269.32635)"  d="M867.34015 524.42633C 853.4282 517.00696 839.06335 510.47083 824.33014 504.85632C 839.1018 510.3783 853.47266 516.9172 867.34015 524.42633z" stroke="none" fill="#3F3D56" fill-rule="nonzero" />
    <path d="M489.56076 174.31503C 489.56076 180.36813 487.4207 185.53476 483.1405 189.81494C 478.86032 194.09512 473.69366 196.2352 467.6406 196.2352C 461.58752 196.2352 456.4209 194.09512 452.1407 189.81494C 447.86053 185.53476 445.72046 180.36813 445.72043 174.31503C 445.72046 168.26195 447.86053 163.0953 452.1407 158.81512C 456.4209 154.53496 461.58752 152.39487 467.6406 152.39487C 473.69366 152.39487 478.86032 154.53496 483.1405 158.81512C 487.4207 163.0953 489.56076 168.26195 489.56076 174.31503C 489.56076 174.57011 489.55634 174.82512 489.54742 175.08003" stroke="none" fill="#EF9C01" fill-rule="nonzero" fill-opacity="0.4" />
    <path transform="matrix(1 0 0 1 -313.5599 -269.32635)"  d="M783.64136 612.24744C 785.3353 618.5093 791.13745 622.38745 791.13745 622.38745C 791.13745 622.38745 794.1932 616.1131 792.4992 609.85126C 790.80524 603.5894 785.0031 599.71124 785.0031 599.71124C 785.0031 599.71124 781.94745 605.9856 783.64136 612.24744z" stroke="none" fill="#3F3D56" fill-rule="nonzero" />
    <path transform="matrix(1 0 0 1 -313.5599 -269.32635)"  d="M786.1305 610.9017C 790.7787 615.4265 791.3465 622.38226 791.3465 622.38226C 791.3465 622.38226 784.378 622.0018 779.7298 617.4769C 775.0816 612.9521 774.5138 605.99634 774.5138 605.99634C 774.5138 605.99634 781.4823 606.37683 786.1305 610.9017z" stroke="none" fill="#EF9C01" fill-rule="nonzero" />
    <path transform="matrix(1 0 0 1 -313.5599 -269.32635)"  d="M316.9199 525.1817L316.9199 534.8417L316.43988 535.3617L316.43988 525.08167C 316.59988 525.11176 316.75992 525.15173 316.9199 525.1817z" stroke="none" fill="#3F3D56" fill-rule="nonzero" />
    <path transform="matrix(1 0 0 1 -313.5599 -269.32635)"  d="M347.69992 621.03174C 347.5599 621.2617 347.4099 621.49176 347.25992 621.72174L347.25992 621.72174L316.4399 621.72174L316.4399 525.66174L316.91992 525.18176L321.00992 529.8318L321.00992 523.0318L334.00992 523.0318L334.00992 544.6118L347.13992 559.5218L347.25992 559.6618C 347.41992 560.1618 347.56992 560.6618 347.7199 561.1618C 347.72095 561.16943 347.7245 561.17645 347.72992 561.1818C 349.69907 567.4835 351.3149 573.89014 352.56992 580.3718C 355.4299 595.66174 354.9999 609.6817 347.69992 621.03174z" stroke="none" fill="#CCCCCC" fill-rule="nonzero" />
    <path d="M5.4271 308.95297L13.70156 308.95297L13.70156 315.84836L5.4271 315.84836z" stroke="none" fill="#3F3D56" fill-rule="nonzero" />
    <path d="M5.4271 321.36465L13.70156 321.36465L13.70156 328.26004L5.4271 328.26004z" stroke="none" fill="#3F3D56" fill-rule="nonzero" />
    <path transform="matrix(1 0 0 1 -313.5599 -269.32635)"  d="M582.14777 565.178L578.01074 558.28296L616.62476 525.18494C 645.1719 511.44427 679.58295 515.409 715.91876 525.18494L715.91876 525.18494L715.91876 534.83795L680.06274 573.45294L638.68976 581.7269L582.14777 565.178z" stroke="none" fill="#3F3D56" fill-rule="nonzero" />
    <path transform="matrix(1 0 0 1 -313.5599 -269.32635)"  d="M733.01074 544.608C 739.86786 536.9807 740.82056 529.7279 733.01074 523.03094L733.01074 523.03094L720.01074 523.03094L720.01074 529.83496L715.91876 525.18494L682.82074 558.28296L677.3037 563.79895L670.4087 591.381L682.8207 621.72L746.2577 621.72L746.2577 559.662L733.01074 544.608z" stroke="none" fill="#CCCCCC" fill-rule="nonzero" />
    <path transform="matrix(1 0 0 1 -313.5599 -269.32635)"  d="M578.01074 558.2827L682.82056 558.2827L682.82056 621.7202L578.0108 621.7202C 565.3308 608.0016 571.918 582.9973 578.01074 558.2827z" stroke="none" fill="#F2F2F2" fill-rule="nonzero" />
    <path d="M332.71515 308.95297L354.7804 308.95297L354.7804 328.26004L332.71515 328.26004z" stroke="none" fill="#3F3D56" fill-rule="nonzero" />
    <path d="M304.4441 308.26343L323.75116 308.26343L323.75116 352.39383L304.4441 352.39383z" stroke="none" fill="#CCCCCC" fill-rule="nonzero" />
    <path d="M282.379 315.159L282.379 308.264L274.105 308.264L274.105 315.159L281.689 315.159L282.379 315.159L282.379 315.159" stroke="none" fill="#3F3D56" fill-rule="nonzero" />
    <path d="M281.689 320.675L274.105 320.675L274.105 327.571L282.379 327.571L282.379 320.675L281.689 320.675L281.689 320.675" stroke="none" fill="#3F3D56" fill-rule="nonzero" />
    <path d="M287.89514 308.26343L296.16962 308.26343L296.16962 315.1588L287.89514 315.1588z" stroke="none" fill="#3F3D56" fill-rule="nonzero" />
    <path d="M287.89514 320.6751L296.16962 320.6751L296.16962 327.5705L287.89514 327.5705z" stroke="none" fill="#3F3D56" fill-rule="nonzero" />
    <path d="M398.911 315.849L398.911 308.953L390.636 308.953L390.636 315.849L398.221 315.849L398.911 315.849L398.911 315.849" stroke="none" fill="#3F3D56" fill-rule="nonzero" />
    <path d="M398.221 321.365L390.636 321.365L390.636 328.26L398.911 328.26L398.911 321.365L398.221 321.365L398.221 321.365" stroke="none" fill="#3F3D56" fill-rule="nonzero" />
    <path d="M404.42706 308.95297L412.70154 308.95297L412.70154 315.84836L404.42706 315.84836z" stroke="none" fill="#3F3D56" fill-rule="nonzero" />
    <path d="M404.42706 321.36465L412.70154 321.36465L412.70154 328.26004L404.42706 328.26004z" stroke="none" fill="#3F3D56" fill-rule="nonzero" />
    <path d="M81.966 180.01L75.071 174.493L113.685 140.016L211.599 140.016L211.599 170.356L148.162 213.108L81.966 180.01L81.966 180.01" stroke="none" fill="#3F3D56" fill-rule="nonzero" />
    <path transform="matrix(1 0 0 1 -313.5599 -269.32635)"  d="M543.0108 428.682L543.0108 410.031L530.0108 410.031L530.0108 414.599L525.1588 409.342L493.43982 443.819L481.0288 452.094L461.7838 592.697L490.80682 621.72003L558.25684 621.72003C 568.5917 569.73224 576.78687 516.3257 558.25684 445.19803L558.25684 445.19803L543.0108 428.682z" stroke="none" fill="#CCCCCC" fill-rule="nonzero" />
    <path transform="matrix(1 0 0 1 -313.5599 -269.32635)"  d="M388.63034 443.8194L493.44012 443.8194L493.44012 621.7202L388.63034 621.7202C 377.1612 552.60724 371.5598 488.51465 388.63034 443.8194z" stroke="none" fill="#F2F2F2" fill-rule="nonzero" />
    <path d="M115.75318 308.95297L135.06026 308.95297L135.06026 352.3939L115.75318 352.3939z" stroke="none" fill="#CCCCCC" fill-rule="nonzero" />
    <path d="M95.067 321.365L95.067 314.47L86.793 314.47L86.793 321.365L94.378 321.365L95.067 321.365L95.067 321.365" stroke="none" fill="#3F3D56" fill-rule="nonzero" />
    <path d="M94.378 326.881L86.793 326.881L86.793 333.777L95.067 333.777L95.067 326.881L94.378 326.881L94.378 326.881" stroke="none" fill="#3F3D56" fill-rule="nonzero" />
    <path d="M100.58335 314.46927L108.85779 314.46927L108.85779 321.36465L100.58335 321.36465z" stroke="none" fill="#3F3D56" fill-rule="nonzero" />
    <path d="M150.92 326.881L143.335 326.881L143.335 333.777L151.609 333.777L151.609 326.881L150.92 326.881L150.92 326.881" stroke="none" fill="#3F3D56" fill-rule="nonzero" />
    <path d="M157.12546 314.46927L165.3999 314.46927L165.3999 321.36465L157.12546 321.36465z" stroke="none" fill="#3F3D56" fill-rule="nonzero" />
    <path d="M157.12546 326.88095L165.3999 326.88095L165.3999 333.77634L157.12546 333.77634z" stroke="none" fill="#3F3D56" fill-rule="nonzero" />
    <path d="M209.53 183.457L209.53 176.562L201.256 176.562L201.256 183.457L208.841 183.457L209.53 183.457L209.53 183.457" stroke="none" fill="#3F3D56" fill-rule="nonzero" />
    <path d="M208.841 188.974L201.256 188.974L201.256 195.869L209.53 195.869L209.53 188.974L208.841 188.974L208.841 188.974" stroke="none" fill="#3F3D56" fill-rule="nonzero" />
    <path d="M215.04668 176.56168L223.32112 176.56168L223.32112 183.45706L215.04668 183.45706z" stroke="none" fill="#3F3D56" fill-rule="nonzero" />
    <path d="M215.04668 188.97334L223.32112 188.97334L223.32112 195.86873L215.04668 195.86873z" stroke="none" fill="#3F3D56" fill-rule="nonzero" />
    <path d="M209.53 222.072L209.53 215.176L201.256 215.176L201.256 222.072L208.841 222.072L209.53 222.072L209.53 222.072" stroke="none" fill="#3F3D56" fill-rule="nonzero" />
    <path d="M208.841 227.588L201.256 227.588L201.256 234.483L209.53 234.483L209.53 227.588L208.841 227.588L208.841 227.588" stroke="none" fill="#3F3D56" fill-rule="nonzero" />
    <path d="M215.04668 215.1758L223.32112 215.1758L223.32112 222.07118L215.04668 222.07118z" stroke="none" fill="#3F3D56" fill-rule="nonzero" />
    <path d="M215.04668 227.58746L223.32112 227.58746L223.32112 234.48285L215.04668 234.48285z" stroke="none" fill="#3F3D56" fill-rule="nonzero" />
    <path d="M209.53 260.686L209.53 253.79L201.256 253.79L201.256 260.686L208.841 260.686L209.53 260.686L209.53 260.686" stroke="none" fill="#3F3D56" fill-rule="nonzero" />
    <path d="M208.841 266.202L201.256 266.202L201.256 273.097L209.53 273.097L209.53 266.202L208.841 266.202L208.841 266.202" stroke="none" fill="#3F3D56" fill-rule="nonzero" />
    <path d="M215.04668 253.78992L223.32112 253.78992L223.32112 260.6853L215.04668 260.6853z" stroke="none" fill="#3F3D56" fill-rule="nonzero" />
    <path d="M215.04668 266.2016L223.32112 266.2016L223.32112 273.097L215.04668 273.097z" stroke="none" fill="#3F3D56" fill-rule="nonzero" />
    <path d="M209.53 299.3L209.53 292.404L201.256 292.404L201.256 299.3L208.841 299.3L209.53 299.3L209.53 299.3" stroke="none" fill="#3F3D56" fill-rule="nonzero" />
    <path d="M208.841 304.816L201.256 304.816L201.256 311.711L209.53 311.711L209.53 304.816L208.841 304.816L208.841 304.816" stroke="none" fill="#3F3D56" fill-rule="nonzero" />
    <path d="M215.04668 292.40405L223.32112 292.40405L223.32112 299.29944L215.04668 299.29944z" stroke="none" fill="#3F3D56" fill-rule="nonzero" />
    <path d="M215.04668 304.81573L223.32112 304.81573L223.32112 311.71112L215.04668 311.71112z" stroke="none" fill="#3F3D56" fill-rule="nonzero" />
    <path transform="matrix(1 0 0 1 -313.5599 -269.32635)"  d="M400.35248 452.7834L480.3389 452.7834L480.3389 469.3323C 454.70078 462.25668 427.9652 462.7642 400.35248 469.3323L400.35248 469.3323L400.35248 452.7834z" stroke="none" fill="#3F3D56" fill-rule="nonzero" />
    <path transform="matrix(1 0 0 1 -313.5599 -269.32635)"  d="M400.35248 485.88123C 425.31714 493.23642 451.97928 493.23642 480.3389 485.88123L480.3389 485.88123L480.3389 502.43015L400.35248 502.43015L400.35248 485.88123z" stroke="none" fill="#3F3D56" fill-rule="nonzero" />
    <path transform="matrix(1 0 0 1 -313.5599 -269.32635)"  d="M400.35248 518.979L480.3389 518.979L480.3389 535.528C 453.07974 526.8236 426.38947 526.4134 400.35248 535.528L400.35248 535.528L400.35248 518.979z" stroke="none" fill="#3F3D56" fill-rule="nonzero" />
    <path transform="matrix(1 0 0 1 -313.5599 -269.32635)"  d="M400.35248 552.07684C 426.43854 562.1305 453.12466 561.71204 480.3389 552.07684L480.3389 552.07684L480.3389 568.62585L400.35248 568.62585L400.35248 552.07684z" stroke="none" fill="#3F3D56" fill-rule="nonzero" />
    <path transform="matrix(1 0 0 1 -313.5599 -269.32635)"  d="M830.2399 523.32635L886.43994 523.32635L886.43994 550.4062L881.4199 551.97675L864.7199 557.18884L838.5199 551.1196L812.3499 545.05505L798.52997 541.85364L791.62994 539.30084C 797.36993 531.4248 807.80994 525.23047 830.2399 523.32635z" stroke="none" fill="#3F3D56" fill-rule="nonzero" />
    <path transform="matrix(1 0 0 1 -313.5599 -269.32635)"  d="M886.4399 539.30084L886.4399 621.7217L791.6299 621.7217C 791.59985 621.67065 791.5799 621.6244 791.54987 621.5734L791.54987 621.5734L791.54987 621.5688C 791.52734 621.5113 791.5006 621.45557 791.46985 621.402C 789.98987 618.423 788.6632 615.4517 787.48987 612.4881C 777.53986 587.4097 778.6199 562.9939 791.6299 539.3008L791.6299 539.3008L886.4399 539.30084z" stroke="none" fill="#F2F2F2" fill-rule="nonzero" />
    <path d="M518.7532 308.95297L538.06024 308.95297L538.06024 352.3939L518.7532 352.3939z" stroke="none" fill="#CCCCCC" fill-rule="nonzero" />
    <path d="M498.067 321.365L498.067 314.47L489.793 314.47L489.793 321.365L497.378 321.365L498.067 321.365L498.067 321.365" stroke="none" fill="#3F3D56" fill-rule="nonzero" />
    <path d="M497.378 326.881L489.793 326.881L489.793 333.777L498.067 333.777L498.067 326.881L497.378 326.881L497.378 326.881" stroke="none" fill="#3F3D56" fill-rule="nonzero" />
    <path d="M503.5833 314.46927L511.8578 314.46927L511.8578 321.36465L503.5833 321.36465z" stroke="none" fill="#3F3D56" fill-rule="nonzero" />
    <path d="M503.5833 326.88095L511.8578 326.88095L511.8578 333.77634L503.5833 333.77634z" stroke="none" fill="#3F3D56" fill-rule="nonzero" />
    <path d="M554.609 321.365L554.609 314.47L546.335 314.47L546.335 321.365L553.92 321.365L554.609 321.365L554.609 321.365" stroke="none" fill="#3F3D56" fill-rule="nonzero" />
    <path d="M553.92 326.881L546.335 326.881L546.335 333.777L554.609 333.777L554.609 326.881L553.92 326.881L553.92 326.881" stroke="none" fill="#3F3D56" fill-rule="nonzero" />
    <path d="M560.1254 314.46927L568.3999 314.46927L568.3999 321.36465L560.1254 321.36465z" stroke="none" fill="#3F3D56" fill-rule="nonzero" />
    <path d="M560.1254 326.88095L568.3999 326.88095L568.3999 333.77634L560.1254 333.77634z" stroke="none" fill="#3F3D56" fill-rule="nonzero" />
    <path transform="matrix(1 0 0 1 -313.5599 -269.32635)"  d="M812.35254 491.32635L824.2384 491.32635C 848.65027 491.32635 868.43994 511.11603 868.43994 535.5279L868.43994 535.5279L812.35254 535.5279L812.35254 491.32635z" stroke="none" fill="#3F3D56" fill-rule="nonzero" />
    <path transform="matrix(1 0 0 1 -313.5599 -269.32635)"  d="M452.3525 371.32635L464.23834 371.32635C 475.96133 371.32632 487.20416 375.98328 495.49356 384.27267C 503.78296 392.56207 508.4399 403.8049 508.4399 415.52792L508.4399 415.52792L452.3525 415.52792L452.3525 371.32635z" stroke="none" fill="#3F3D56" fill-rule="nonzero" />
    <path transform="matrix(1 0 0 1 -313.5599 -269.32635)"  d="M642.35254 482.32635L654.2384 482.32635C 678.65027 482.32635 698.43994 502.11603 698.43994 526.5279L698.43994 526.5279L642.35254 526.5279L642.35254 482.32635z" stroke="none" fill="#3F3D56" fill-rule="nonzero" />
    <path d="M498.7926 282.75052L554.88 282.75052L554.88 299.29944L498.7926 299.29944z" stroke="none" fill="#3F3D56" fill-rule="nonzero" />
    <path d="M2.88018 351.70996L572.8802 351.70996L572.8802 353.70996L2.88018 353.70996z" stroke="none" fill="#3F3D56" fill-rule="nonzero" />
    <path d="M53.45087 272.7053L55.45087 272.7053L55.45087 351.7053L53.45087 351.7053z" stroke="none" fill="#3F3D56" fill-rule="nonzero" />
    <path transform="matrix(1 0 0 1 -313.5599 -269.32635)"  d="M387.4685 552.0993C 387.59583 579.72363 368.16064 602.20764 368.16064 602.20764C 368.16064 602.20764 343.27136 579.42535 348.39172 552.2794C 353.54132 524.9785 369.59073 502.287 367.6996 502.17108C 367.6996 502.17108 387.3412 524.4749 387.4685 552.0993z" stroke="none" fill="#EF9C01" fill-rule="nonzero" />
    <path d="M253.45087 272.7053L255.45087 272.7053L255.45087 351.7053L253.45087 351.7053z" stroke="none" fill="#3F3D56" fill-rule="nonzero" />
    <path transform="matrix(1 0 0 1 -313.5599 -269.32635)"  d="M587.4685 552.0993C 589.27124 579.66504 568.16064 602.20764 568.16064 602.20764C 568.16064 602.20764 548.51904 579.90375 548.3917 552.2794C 548.2644 524.6551 567.6996 502.17105 567.6996 502.17105C 565.8048 509.7434 586.0099 529.7954 587.4685 552.0993z" stroke="none" fill="#EF9C01" fill-rule="nonzero" />
    <path d="M125.513 144.289L212.387 140.039L248.83 170.458L242.387 176.275L184.678 174.976L125.513 144.289L125.513 144.289" stroke="none" fill="#3F3D56" fill-rule="nonzero" />
    <path transform="matrix(1 0 0 1 -313.5599 -269.32635)"  d="M352.38992 554.78174L347.70993 559.0117L347.13992 559.5217L345.94992 560.60175L316.4399 559.9418L316.4399 525.0818C 315.47992 524.8718 314.5199 524.6718 313.5599 524.4818L313.5599 524.4818L315.94992 524.3618L316.4399 524.7718L321.00992 528.5818L334.00992 539.4418L348.5299 551.56177L352.38992 554.78174z" stroke="none" fill="#3F3D56" fill-rule="nonzero" />
    <path d="M315.513 259.289L402.387 255.039L438.83 285.458L432.387 291.275L374.678 289.976L315.513 259.289L315.513 259.289" stroke="none" fill="#3F3D56" fill-rule="nonzero" />
</g>
</svg>