<?xml version="1.0" encoding="UTF-8"?>
<svg xmlns="http://www.w3.org/2000/svg" xmlns:xlink="http://www.w3.org/1999/xlink" width="900px" height="580px" viewBox="0 0 900 580" version="1.1">
<g id="surface1">
<path style=" stroke:none;fill-rule:nonzero;fill:rgb(24.705882%,23.921569%,33.72549%);fill-opacity:1;" d="M 893.378906 379.875 L 545.875 379.875 C 542.144531 379.871094 539.121094 376.796875 539.117188 373 L 539.117188 6.875 C 539.121094 3.078125 542.144531 0.00390625 545.875 0 L 893.378906 0 C 897.105469 0.00390625 900.128906 3.078125 900.132812 6.875 L 900.132812 373 C 900.128906 376.796875 897.105469 379.871094 893.378906 379.875 Z M 545.875 2.398438 C 543.445312 2.398438 541.476562 4.402344 541.472656 6.875 L 541.472656 373 C 541.476562 375.472656 543.445312 377.476562 545.875 377.480469 L 893.378906 377.480469 C 895.808594 377.476562 897.777344 375.472656 897.777344 373 L 897.777344 6.875 C 897.777344 4.402344 895.808594 2.398438 893.378906 2.398438 Z M 545.875 2.398438 "/>
<path style=" stroke:none;fill-rule:nonzero;fill:rgb(93.72549%,61.176471%,0.392157%);fill-opacity:1;" d="M 785.125 153.875 C 801.085938 183.859375 795.386719 220.992188 771.207031 244.605469 C 747.027344 268.214844 710.320312 272.484375 681.523438 255.035156 C 652.726562 237.589844 638.9375 202.722656 647.828125 169.847656 C 656.722656 136.972656 686.109375 114.191406 719.625 114.1875 C 720.214844 114.1875 720.804688 114.195312 721.390625 114.210938 L 720.605469 81.847656 C 720.277344 81.84375 719.953125 81.835938 719.625 81.835938 C 671.375 81.851562 629.195312 114.9375 616.917969 162.402344 C 604.636719 209.867188 625.34375 259.789062 667.332031 283.960938 C 709.324219 308.136719 762.054688 300.488281 795.734375 265.339844 C 829.410156 230.191406 835.574219 176.371094 810.746094 134.289062 Z M 785.125 153.875 "/>
<path style=" stroke:none;fill-rule:nonzero;fill:rgb(90.196078%,90.196078%,90.196078%);fill-opacity:1;" d="M 785.125 153.875 L 810.746094 134.289062 C 791.71875 102.039062 757.578125 82.175781 720.605469 81.847656 L 721.390625 114.210938 C 748.09375 114.847656 772.414062 129.980469 785.125 153.875 Z M 785.125 153.875 "/>
<path style=" stroke:none;fill-rule:nonzero;fill:rgb(24.705882%,23.921569%,33.72549%);fill-opacity:1;" d="M 772.40625 284.054688 L 773.71875 282.730469 L 811.035156 321.050781 L 809.722656 322.375 Z M 772.40625 284.054688 "/>
<path style=" stroke:none;fill-rule:nonzero;fill:rgb(24.705882%,23.921569%,33.72549%);fill-opacity:1;" d="M 771.738281 95.207031 L 797.675781 48.160156 L 799.292969 49.082031 L 773.351562 96.128906 Z M 771.738281 95.207031 "/>
<path style=" stroke:none;fill-rule:nonzero;fill:rgb(93.72549%,61.176471%,0.392157%);fill-opacity:1;" d="M 838.304688 336.515625 L 783.230469 336.515625 C 781.191406 336.511719 779.542969 334.832031 779.539062 332.757812 L 779.539062 324.867188 C 779.542969 322.796875 781.191406 321.117188 783.230469 321.113281 L 838.304688 321.113281 C 840.339844 321.117188 841.992188 322.796875 841.996094 324.867188 L 841.996094 332.757812 C 841.992188 334.832031 840.339844 336.511719 838.304688 336.515625 Z M 838.304688 336.515625 "/>
<path style=" stroke:none;fill-rule:nonzero;fill:rgb(90.196078%,90.196078%,90.196078%);fill-opacity:1;" d="M 824.34375 49.292969 L 769.269531 49.292969 C 767.230469 49.292969 765.578125 47.613281 765.578125 45.539062 L 765.578125 37.648438 C 765.578125 35.574219 767.230469 33.894531 769.269531 33.890625 L 824.34375 33.890625 C 826.378906 33.894531 828.03125 35.574219 828.035156 37.648438 L 828.035156 45.539062 C 828.03125 47.613281 826.378906 49.292969 824.34375 49.292969 Z M 824.34375 49.292969 "/>
<path style=" stroke:none;fill-rule:nonzero;fill:rgb(24.705882%,23.921569%,33.72549%);fill-opacity:1;" d="M 483.566406 174.804688 L 90.855469 174.804688 C 87.300781 174.800781 84.421875 171.871094 84.417969 168.257812 L 84.417969 7.746094 C 84.421875 4.132812 87.300781 1.203125 90.855469 1.199219 L 483.566406 1.199219 C 487.121094 1.203125 490 4.132812 490.003906 7.746094 L 490.003906 168.257812 C 490 171.871094 487.121094 174.800781 483.566406 174.804688 Z M 90.855469 3.59375 C 88.601562 3.597656 86.773438 5.453125 86.773438 7.746094 L 86.773438 168.257812 C 86.773438 170.550781 88.601562 172.40625 90.855469 172.410156 L 483.566406 172.410156 C 485.820312 172.40625 487.644531 170.550781 487.648438 168.257812 L 487.648438 7.746094 C 487.644531 5.457031 485.820312 3.597656 483.566406 3.59375 Z M 90.855469 3.59375 "/>
<path style=" stroke:none;fill-rule:nonzero;fill:rgb(90.196078%,90.196078%,90.196078%);fill-opacity:1;" d="M 243.9375 134.972656 L 205.890625 134.972656 C 203.882812 134.96875 202.171875 133.484375 201.847656 131.46875 C 199.363281 115.074219 199.363281 98.382812 201.847656 81.984375 C 202.171875 79.96875 203.882812 78.488281 205.890625 78.484375 L 243.9375 78.484375 C 245.1875 78.480469 246.371094 79.0625 247.140625 80.0625 C 247.929688 81.078125 248.214844 82.40625 247.910156 83.660156 C 244.351562 98.824219 244.351562 114.628906 247.910156 129.796875 C 248.214844 131.050781 247.929688 132.378906 247.140625 133.394531 C 246.371094 134.394531 245.1875 134.976562 243.9375 134.972656 Z M 243.9375 134.972656 "/>
<path style=" stroke:none;fill-rule:nonzero;fill:rgb(90.196078%,90.196078%,90.196078%);fill-opacity:1;" d="M 371.335938 134.972656 L 333.285156 134.972656 C 331.277344 134.964844 329.566406 133.484375 329.242188 131.46875 C 326.761719 115.074219 326.761719 98.382812 329.242188 81.984375 C 329.566406 79.96875 331.277344 78.488281 333.285156 78.484375 L 371.335938 78.484375 C 372.585938 78.480469 373.765625 79.0625 374.535156 80.066406 C 375.324219 81.078125 375.609375 82.40625 375.308594 83.660156 C 371.746094 98.824219 371.746094 114.628906 375.308594 129.796875 C 375.609375 131.050781 375.324219 132.378906 374.535156 133.390625 C 373.765625 134.390625 372.585938 134.976562 371.335938 134.972656 Z M 371.335938 134.972656 "/>
<path style=" stroke:none;fill-rule:nonzero;fill:rgb(93.72549%,61.176471%,0.392157%);fill-opacity:1;" d="M 179.21875 97.519531 L 141.171875 97.519531 C 139.164062 97.515625 137.453125 96.035156 137.128906 94.019531 C 134.644531 77.621094 134.644531 60.933594 137.128906 44.535156 C 137.453125 42.519531 139.164062 41.039062 141.171875 41.035156 L 179.21875 41.035156 C 180.46875 41.03125 181.648438 41.613281 182.421875 42.613281 C 183.210938 43.625 183.492188 44.953125 183.191406 46.207031 C 179.632812 61.375 179.632812 77.179688 183.191406 92.34375 C 183.492188 93.597656 183.210938 94.925781 182.421875 95.941406 C 181.652344 96.941406 180.46875 97.523438 179.21875 97.519531 Z M 179.21875 97.519531 "/>
<path style=" stroke:none;fill-rule:nonzero;fill:rgb(93.72549%,61.176471%,0.392157%);fill-opacity:1;" d="M 307.898438 97.519531 L 269.847656 97.519531 C 268.597656 97.523438 267.417969 96.941406 266.644531 95.941406 C 265.859375 94.925781 265.574219 93.597656 265.875 92.34375 C 269.433594 77.179688 269.433594 61.375 265.875 46.207031 C 265.574219 44.953125 265.859375 43.625 266.644531 42.613281 C 267.417969 41.613281 268.597656 41.03125 269.847656 41.035156 L 307.898438 41.035156 C 309.90625 41.039062 311.617188 42.519531 311.941406 44.535156 C 314.421875 60.933594 314.421875 77.621094 311.941406 94.019531 C 311.617188 96.035156 309.90625 97.515625 307.898438 97.519531 Z M 307.898438 97.519531 "/>
<path style=" stroke:none;fill-rule:nonzero;fill:rgb(100%,39.607843%,51.764706%);fill-opacity:1;" d="M 433.25 97.519531 L 395.199219 97.519531 C 393.949219 97.523438 392.769531 96.941406 392 95.941406 C 391.210938 94.925781 390.925781 93.597656 391.226562 92.34375 C 394.789062 77.179688 394.789062 61.375 391.226562 46.207031 C 390.925781 44.953125 391.210938 43.625 392 42.613281 C 392.769531 41.613281 393.949219 41.03125 395.199219 41.035156 L 433.25 41.035156 C 435.257812 41.039062 436.96875 42.519531 437.292969 44.535156 C 439.773438 60.933594 439.773438 77.621094 437.292969 94.019531 C 436.96875 96.035156 435.257812 97.515625 433.25 97.519531 Z M 433.25 97.519531 "/>
<path style=" stroke:none;fill-rule:nonzero;fill:rgb(62.745098%,38.039216%,41.568627%);fill-opacity:1;" d="M 221.390625 382.832031 C 217.722656 382.070312 214.570312 379.695312 212.789062 376.34375 C 211.007812 372.996094 210.773438 369.011719 212.152344 365.472656 L 159.925781 251.398438 L 186.421875 243.824219 L 229.472656 358.476562 C 235.296875 361.289062 238.128906 368.089844 236.066406 374.304688 C 234.003906 380.519531 227.699219 384.179688 221.390625 382.832031 Z M 221.390625 382.832031 "/>
<path style=" stroke:none;fill-rule:nonzero;fill:rgb(62.745098%,38.039216%,41.568627%);fill-opacity:1;" d="M 120.25 564.859375 L 134.691406 564.859375 L 141.5625 508.191406 L 120.246094 508.191406 Z M 120.25 564.859375 "/>
<path style=" stroke:none;fill-rule:nonzero;fill:rgb(18.431373%,18.039216%,25.490196%);fill-opacity:1;" d="M 162.546875 578.5 L 117.15625 578.5 L 117.15625 560.660156 L 145.007812 560.660156 C 154.691406 560.660156 162.542969 568.644531 162.546875 578.5 Z M 162.546875 578.5 "/>
<path style=" stroke:none;fill-rule:nonzero;fill:rgb(62.745098%,38.039216%,41.568627%);fill-opacity:1;" d="M 45.179688 549.019531 L 58.457031 554.804688 L 86.707031 505.46875 L 67.113281 496.929688 Z M 45.179688 549.019531 "/>
<path style=" stroke:none;fill-rule:nonzero;fill:rgb(18.431373%,18.039216%,25.490196%);fill-opacity:1;" d="M 78.78125 578.5 L 37.054688 560.320312 L 43.960938 543.921875 L 69.5625 555.078125 C 78.46875 558.957031 82.59375 569.445312 78.78125 578.5 Z M 78.78125 578.5 "/>
<path style=" stroke:none;fill-rule:nonzero;fill:rgb(62.745098%,38.039216%,41.568627%);fill-opacity:1;" d="M 184.890625 168.449219 C 184.890625 184.707031 171.9375 197.882812 155.957031 197.882812 C 139.976562 197.882812 127.023438 184.707031 127.023438 168.449219 C 127.023438 152.195312 139.976562 139.019531 155.957031 139.019531 C 171.9375 139.019531 184.890625 152.195312 184.890625 168.449219 Z M 184.890625 168.449219 "/>
<path style=" stroke:none;fill-rule:nonzero;fill:rgb(18.431373%,18.039216%,25.490196%);fill-opacity:1;" d="M 135.054688 551.003906 L 119.15625 547.921875 C 116.445312 547.414062 114.578125 544.863281 114.875 542.074219 L 125.417969 437.507812 C 125.625 435.449219 124.320312 433.539062 122.347656 433.019531 C 120.378906 432.5 118.328125 433.523438 117.527344 435.429688 L 71.5 544.679688 C 70.941406 546.003906 69.882812 547.046875 68.5625 547.574219 C 67.242188 548.101562 65.769531 548.066406 64.472656 547.480469 L 51.542969 541.636719 C 49.039062 540.515625 47.792969 537.636719 48.667969 535.003906 L 80.144531 438.933594 C 80.234375 438.664062 80.296875 438.386719 80.328125 438.101562 L 90.546875 350.328125 C 90.773438 348.375 92.027344 346.703125 93.816406 345.964844 L 126.078125 332.632812 C 128.03125 331.824219 130.265625 332.269531 131.773438 333.761719 L 172.496094 374.101562 C 173.785156 375.371094 174.351562 377.222656 174 379.015625 L 141.246094 546.757812 C 140.746094 549.277344 138.570312 551.09375 136.042969 551.097656 C 135.710938 551.097656 135.378906 551.066406 135.054688 551.003906 Z M 135.054688 551.003906 "/>
<path style=" stroke:none;fill-rule:nonzero;fill:rgb(80%,80%,80%);fill-opacity:1;" d="M 116.929688 355.167969 C 111.292969 348.527344 107.179688 345.515625 104.367188 345.988281 C 101.574219 346.449219 99.964844 350.414062 98.257812 354.617188 C 95.933594 360.347656 93.292969 366.847656 86.792969 367.355469 C 84.726562 367.714844 82.640625 366.847656 81.417969 365.113281 C 76.304688 357.375 88.570312 331.769531 89.691406 329.46875 L 89.117188 208.363281 C 89.101562 206.375 90.167969 204.535156 91.886719 203.589844 C 125.597656 185.097656 171.117188 217.257812 179.898438 223.894531 C 181.328125 224.96875 182.128906 226.703125 182.03125 228.507812 C 180.972656 248.789062 175.6875 351.121094 175.6875 373.949219 C 175.6875 380.269531 173.542969 384.285156 169.316406 385.882812 C 167.890625 386.398438 166.386719 386.648438 164.871094 386.625 C 151.976562 386.625 130.859375 371.574219 116.929688 355.167969 Z M 116.929688 355.167969 "/>
<path style=" stroke:none;fill-rule:nonzero;fill:rgb(80%,80%,80%);fill-opacity:1;" d="M 163.972656 296.363281 C 162.542969 295.417969 161.65625 293.820312 161.589844 292.085938 L 159.308594 237.84375 C 159.015625 230.945312 163.6875 224.851562 170.335938 223.453125 C 176.980469 222.058594 183.644531 225.769531 186.0625 232.222656 L 203.152344 277.777344 C 204.191406 280.5625 202.824219 283.675781 200.089844 284.738281 L 168.777344 296.894531 C 167.1875 297.523438 165.394531 297.324219 163.972656 296.363281 Z M 163.972656 296.363281 "/>
<path style=" stroke:none;fill-rule:nonzero;fill:rgb(62.745098%,38.039216%,41.568627%);fill-opacity:1;" d="M 84.402344 381.117188 C 81.296875 378.992188 79.273438 375.574219 78.882812 371.785156 C 78.488281 367.996094 79.765625 364.226562 82.371094 361.488281 L 76.84375 235.773438 L 104.175781 239.050781 L 101.003906 361.738281 C 105.332031 366.597656 105.402344 373.984375 101.164062 378.929688 C 96.929688 383.875 89.730469 384.8125 84.402344 381.117188 Z M 84.402344 381.117188 "/>
<path style=" stroke:none;fill-rule:nonzero;fill:rgb(80%,80%,80%);fill-opacity:1;" d="M 65.425781 269.25 C 64.417969 267.847656 64.148438 266.035156 64.695312 264.390625 L 81.574219 212.882812 C 83.71875 206.335938 90.21875 202.335938 96.917969 203.441406 C 103.617188 204.546875 108.539062 210.433594 108.539062 217.335938 L 108.539062 266.097656 C 108.535156 269.074219 106.164062 271.488281 103.238281 271.488281 L 69.722656 271.488281 C 68.019531 271.5 66.414062 270.664062 65.425781 269.25 Z M 65.425781 269.25 "/>
<path style=" stroke:none;fill-rule:nonzero;fill:rgb(18.431373%,18.039216%,25.490196%);fill-opacity:1;" d="M 137.273438 188.246094 C 135.035156 190.03125 131.84375 189.871094 129.792969 187.867188 C 123.589844 181.972656 118.355469 174.921875 115.707031 166.753906 C 112.671875 157.398438 113.449219 146.441406 119.261719 138.558594 C 124.171875 131.894531 131.949219 128.132812 139.609375 125.1875 C 142.601562 123.902344 145.757812 123.066406 148.988281 122.710938 C 152.246094 122.367188 155.515625 123.300781 158.121094 125.320312 C 160.722656 127.433594 161.785156 130.949219 160.800781 134.183594 C 164.730469 130.554688 169.523438 128.035156 174.703125 126.867188 C 177.984375 125.984375 181.449219 126.128906 184.648438 127.289062 C 189.089844 129.144531 191.976562 133.683594 193.304688 138.378906 C 194.402344 141.960938 194.492188 145.785156 193.5625 149.417969 C 192.59375 153.066406 190.152344 156.128906 186.839844 157.84375 C 182.777344 159.792969 177.953125 159.054688 173.703125 157.574219 C 169.453125 156.089844 165.425781 153.902344 161.03125 152.957031 C 156.632812 152.011719 151.558594 152.5625 148.449219 155.859375 C 146.257812 158.183594 145.398438 161.449219 144.613281 164.566406 L 140.539062 180.785156 C 140.089844 183.148438 139.230469 185.410156 138 187.464844 C 137.792969 187.757812 137.546875 188.019531 137.273438 188.246094 Z M 137.273438 188.246094 "/>
<path style=" stroke:none;fill-rule:nonzero;fill:rgb(93.72549%,61.176471%,0.392157%);fill-opacity:1;" d="M 254.613281 422.269531 L 216.5625 422.269531 C 214.554688 422.265625 212.84375 420.785156 212.519531 418.769531 C 210.039062 402.371094 210.039062 385.683594 212.519531 369.285156 C 212.84375 367.269531 214.554688 365.789062 216.5625 365.785156 L 254.613281 365.785156 C 255.863281 365.78125 257.042969 366.363281 257.816406 367.363281 C 258.601562 368.378906 258.886719 369.703125 258.585938 370.960938 C 255.027344 386.125 255.027344 401.929688 258.585938 417.09375 C 258.886719 418.351562 258.601562 419.679688 257.816406 420.691406 C 257.042969 421.691406 255.863281 422.273438 254.613281 422.269531 Z M 254.613281 422.269531 "/>
<path style=" stroke:none;fill-rule:nonzero;fill:rgb(24.705882%,23.921569%,33.72549%);fill-opacity:1;" d="M 190.835938 580 L 1.179688 580 C 0.527344 580 0 579.464844 0 578.800781 C 0 578.140625 0.527344 577.601562 1.179688 577.601562 L 190.835938 577.601562 C 191.488281 577.601562 192.015625 578.140625 192.015625 578.800781 C 192.015625 579.464844 191.488281 580 190.835938 580 Z M 190.835938 580 "/>
</g>
</svg>
