<?xml version="1.0" standalone="no"?>
<!DOCTYPE svg PUBLIC "-//W3C//DTD SVG 1.0//EN" "http://www.w3.org/TR/2001/REC-SVG-20010904/DTD/svg10.dtd">
<svg xmlns="http://www.w3.org/2000/svg" xmlns:xlink="http://www.w3.org/1999/xlink" id="body_1" width="675" height="591">

<g transform="matrix(1.0002693 0 0 1.0002693 -0 0.12112637)">
    <path transform="matrix(1 0 0 1 -262.59088 -154.70065)"  d="M295.15237 355.9586L262.61432 337.63187C 262.17545 318.02417 266.5295 298.60568 275.2985 281.06256C 282.8003 315.11148 322.27972 331.31088 340.495 361.0398C 351.8592 379.9102 354.02448 402.92474 346.37927 423.58362L346.37927 423.58362L348.5193 449.98288C 314.48566 439.78918 286.62228 415.2041 272.26993 382.7047C 268.38068 373.65637 265.64636 364.15436 264.1315 354.4228C 279.30212 356.0372 295.15237 355.9586 295.15237 355.9586z" stroke="none" fill="#F2F2F2" fill-rule="nonzero" />
    <path transform="matrix(1 0 0 1 -262.59088 -154.70065)"  d="M880.0779 689.3708L881.0756 666.93665C 891.4767 661.377 903.07764 658.44037 914.8712 658.38165C 898.6398 671.6521 900.6682 697.2329 889.66364 715.0784C 882.62476 726.2997 870.86456 733.71063 857.7044 735.2183L857.7044 735.2183L844.12134 743.5348C 840.34937 722.5066 845.9743 700.8812 859.5142 684.356C 863.313 679.81244 867.6687 675.76526 872.47864 672.30994C 875.7318 680.8879 880.0779 689.3708 880.0779 689.3708z" stroke="none" fill="#F2F2F2" fill-rule="nonzero" />
    <path d="M582.489 577.289L570.189 577.288L564.338 529.848L582.491 529.849L582.489 577.289L582.489 577.289" stroke="none" fill="#FFB6B6" fill-rule="nonzero" />
    <path transform="matrix(1 0 0 1 -262.59088 -154.70065)"  d="M848.2162 743.9118L808.55817 743.91034L808.55817 743.40875C 808.5587 734.884 815.46936 727.97345 823.99414 727.97296L823.99414 727.97296L823.9951 727.97296L831.2392 722.47723L844.755 727.9738L848.2169 727.97394L848.2162 743.9118z" stroke="none" fill="#2F2E41" fill-rule="nonzero" />
    <path d="M525.348 577.289L513.049 577.288L507.198 529.848L525.351 529.849L525.348 577.289L525.348 577.289" stroke="none" fill="#FFB6B6" fill-rule="nonzero" />
    <path transform="matrix(1 0 0 1 -262.59088 -154.70065)"  d="M791.0759 743.9118L751.4179 743.91034L751.4179 743.40875C 751.41846 734.884 758.3291 727.97345 766.8539 727.97296L766.8539 727.97296L766.85486 727.97296L774.09894 722.47723L787.61475 727.9738L791.07666 727.97394L791.0759 743.9118z" stroke="none" fill="#2F2E41" fill-rule="nonzero" />
    <path transform="matrix(1 0 0 1 -262.59088 -154.70065)"  d="M782.6155 472.63086L862.6155 474.63086C 877.8092 482.88333 878.0399 500.74463 873.06165 521.9511C 873.06165 521.9511 874.74225 534.55554 871.38104 537.91675C 868.01984 541.27795 866.33923 541.27795 868.01984 547.16003C 869.70044 553.0421 860.82104 562.6493 861.89954 563.7278C 862.978 564.8063 865.4989 570.68835 865.4989 570.68835L865.4989 570.68835L857.0959 618.5853C 857.0959 618.5853 851.2138 701.77484 849.5332 703.45544C 847.8526 705.13605 846.172 703.45544 847.8526 707.6569C 849.5332 711.8584 851.2138 710.1778 849.5332 711.8584C 848.0445 713.4635 846.6421 715.14636 845.3317 716.9002L845.3317 716.9002L825.01575 716.9002C 825.01575 716.9002 823.484 708.4972 823.484 707.6569C 823.484 706.81665 821.8034 701.77484 821.8034 700.9346C 821.8034 700.0943 823.2888 698.6089 823.2888 698.6089C 823.80206 696.9007 824.14886 695.14685 824.3243 693.3719C 824.3243 691.6913 829.3661 626.98834 829.3661 626.98834L829.3661 626.98834L819.28253 542.95856L794.9139 625.3078C 794.9139 625.3078 794.9139 697.5734 793.2333 699.254C 791.5527 700.93463 791.5527 700.0943 792.393 703.4555C 793.23334 706.8167 796.5945 705.9764 794.0736 708.4973C 791.55273 711.01825 790.7124 706.8167 791.55273 711.0182L791.55273 711.0182L792.393 715.21967L767.184 715.58026C 767.184 715.58026 763.8228 708.49725 765.5034 705.9764C 767.184 703.4555 767.0832 704.1436 765.03284 700.0182C 762.9825 695.89276 762.1422 695.0525 762.9825 694.21216C 763.82275 693.3718 763.82275 688.9024 763.82275 688.9024L763.82275 688.9024L768.02423 608.5018C 768.02423 608.5018 768.8645 523.63165 768.8645 521.1108C 768.92786 519.81366 768.6889 518.51953 768.1665 517.3305L768.1665 517.3305L768.1665 513.90875L771.38544 501.78397L782.6155 472.63086z" stroke="none" fill="#2F2E41" fill-rule="nonzero" />
    <path d="M592.9382 126.72635C 592.9382 133.59027 590.5114 139.449 585.6579 144.30252C 580.8044 149.15604 574.9457 151.5828 568.0817 151.5828C 561.21783 151.5828 555.35913 149.15604 550.50555 144.30252C 545.6521 139.449 543.22534 133.59027 543.2253 126.72635C 543.22534 119.862434 545.6521 114.00371 550.50555 109.150185C 555.35913 104.29666 561.21783 101.8699 568.0817 101.8699C 574.9457 101.8699 580.8044 104.29666 585.6579 109.150185C 590.5114 114.00371 592.9382 119.862434 592.9382 126.72635C 592.9382 127.0156 592.9331 127.30476 592.92303 127.59383" stroke="none" fill="#FFB6B6" fill-rule="nonzero" />
    <path transform="matrix(1 0 0 1 -262.59088 -154.70065)"  d="M818.2444 322.71185C 812.8894 325.89542 809.68604 331.74478 807.84717 337.69702C 804.44275 348.71692 802.3935 360.11044 801.74475 371.62595L801.74475 371.62595L799.8025 406.10126L775.74786 479.5089C 796.5952 497.14893 874.9573 483.51797 874.9573 483.51797C 874.9573 483.51797 877.36273 482.7162 874.9573 480.3107C 872.5518 477.9052 870.2101 480.03635 872.61554 477.63086C 875.021 475.22537 873.36273 477.9052 872.5609 475.49973C 871.7591 473.09424 872.5609 474.69794 873.36273 473.8961C 874.16455 473.09424 867.15546 465.87784 867.15546 465.87784L867.15546 465.87784L873.57 423.74118L881.5882 338.74817C 871.9663 326.72086 852.61554 319.63083 852.61554 319.63083L852.61554 319.63083L847.61554 310.63083L822.61554 312.63083L818.2444 322.71185z" stroke="none" fill="#E6E6E6" fill-rule="nonzero" />
    <path transform="matrix(1 0 0 1 -262.59088 -154.70065)"  d="M814.8352 266.83936C 815.79694 266.84686 816.75415 266.97247 817.6853 267.21335C 819.521 267.65463 821.38525 267.96725 823.2644 268.1489C 835.1059 269.26294 844.65924 278.31274 846.41235 290.07663C 847.8567 288.81735 851.1434 286.50095 853.83716 288.65378C 853.8782 288.68796 853.9021 288.70554 853.9968 288.6606C 855.7859 287.81198 858.9617 277.3657 859.0578 268.16794C 859.1086 263.2861 858.34 257.05222 854.3918 255.0781L854.3918 255.0781L854.1838 254.97409L854.1291 254.74802C 853.8654 253.64987 850.91815 251.77536 845.7961 250.31638C 836.4875 247.66501 822.6119 242.50009 814.7984 250.10117C 814.2071 252.66367 812.2834 258.14743 810.34 258.769C 808.1882 259.457 806.3298 260.05075 806.0368 262.6904C 805.7921 266.44684 805.80994 270.2157 806.09 273.9697C 806.81915 271.6726 808.2504 269.66208 810.1823 268.22116C 811.5559 267.29645 813.1796 266.81424 814.8352 266.83936z" stroke="none" fill="#2F2E41" fill-rule="nonzero" />
    <path transform="matrix(1 0 0 1 -262.59088 -154.70065)"  d="M768.5701 404.1821L809.1733 378.1787L788.7228 350.99344L768.5292 375.83344L705.61035 379.69235C 700.99744 375.1324 693.59467 375.06723 688.9021 379.54526C 684.2096 384.02332 683.9286 391.42105 688.2679 396.2422C 692.6072 401.0633 699.9936 401.55988 704.93915 397.363L704.93915 397.363L768.5701 404.1821z" stroke="none" fill="#FFB6B6" fill-rule="nonzero" />
    <path transform="matrix(1 0 0 1 -262.59088 -154.70065)"  d="M846.8585 341.88315C 849.2151 356.1448 804.71295 383.3785 804.71295 383.3785C 804.7123 380.03107 778.1511 405.302 776.9522 402.52576C 773.5448 394.63547 771.1491 375.94693 766.38776 372.95566C 763.6648 371.245 782.787 355.17487 782.787 355.17487C 782.787 355.17487 792.7965 345.09103 805.93195 332.3718C 813.34436 324.92288 824.05664 321.79166 834.314 324.07562C 834.314 324.07562 844.5019 327.62152 846.8585 341.88315z" stroke="none" fill="#E6E6E6" fill-rule="nonzero" />
    <path transform="matrix(1 0 0 1 -262.59088 -154.70065)"  d="M930.5481 411.00763L903.6908 370.96417L876.94464 391.98572L902.2067 411.6488L907.39703 474.4718C 902.9358 479.18033 903.0274 486.5828 907.6038 491.17944C 912.18024 495.7761 919.5822 495.90036 924.31036 491.45996C 929.0385 487.01953 929.3786 479.6243 925.07794 474.76868L925.07794 474.76868L930.5481 411.00763z" stroke="none" fill="#FFB6B6" fill-rule="nonzero" />
    <path transform="matrix(1 0 0 1 -262.59088 -154.70065)"  d="M866.6054 334.056C 880.81396 331.398 908.9839 375.3135 908.9839 375.3135C 905.6372 375.38507 931.4649 401.40515 928.71466 402.6626C 920.89825 406.23633 902.26465 409.02722 899.3749 413.85083C 897.7222 416.60938 881.25085 397.83173 881.25085 397.83173C 881.25085 397.83173 870.95734 388.03796 857.9628 375.17484C 850.3587 367.9218 847.00134 357.27823 849.06757 346.97482C 849.06757 346.97482 852.39685 336.714 866.6054 334.056z" stroke="none" fill="#E6E6E6" fill-rule="nonzero" />
    <path transform="matrix(1 0 0 1 -262.59088 -154.70065)"  d="M937.4091 744.1093C 937.41003 744.42523 937.285 744.72845 937.0616 744.95184C 936.8382 745.17523 936.535 745.3003 936.21906 745.2993L936.21906 745.2993L655.9291 745.2993C 655.5039 745.2993 655.1111 745.0725 654.8985 744.7043C 654.6859 744.3361 654.6859 743.8825 654.8985 743.5143C 655.1111 743.1461 655.5039 742.9193 655.9291 742.9193L655.9291 742.9193L936.2191 742.9193C 936.535 742.91833 936.8382 743.0434 937.0616 743.2668C 937.285 743.4902 937.41003 743.7934 937.4091 744.1093z" stroke="none" fill="#CCCCCC" fill-rule="nonzero" />
    <path transform="matrix(1 0 0 1 -262.59088 -154.70065)"  d="M677.7527 383.49277L337.58264 383.49277C 326.51685 383.50525 317.54935 392.47272 317.53683 403.53854L317.53683 403.53854L317.53683 615.3267C 317.54944 626.3925 326.5169 635.3599 337.58264 635.3725L337.58264 635.3725L677.75244 635.3725C 688.81836 635.36017 697.786 626.39264 697.7985 615.3267L697.7985 615.3267L697.7985 403.53854C 697.78613 392.47266 688.81854 383.50513 677.7527 383.49277z" stroke="none" fill="#EF9C01" fill-rule="nonzero" />
    <path transform="matrix(1 0 0 1 -262.59088 -154.70065)"  d="M677.7527 383.49277L337.58264 383.49277C 326.51685 383.50525 317.54935 392.47272 317.53683 403.53854L317.53683 403.53854L317.53683 615.3267C 317.54944 626.3925 326.5169 635.3599 337.58264 635.3725L337.58264 635.3725L677.75244 635.3725C 688.81836 635.36017 697.786 626.39264 697.7985 615.3267L697.7985 615.3267L697.7985 403.53854C 697.78613 392.47266 688.81854 383.50513 677.7527 383.49277zM684.3311 535.62286C 684.162 580.4725 648.1563 616.9516 603.3127 617.7066C 568.79626 618.1559 622.4103 618.3311 580.78094 618.3311C 485.58826 618.3311 386.32867 617.4215 349.29376 616.83167C 339.16025 616.6227 331.04337 608.3686 331.0042 598.233L331.0042 598.233L331.0042 403.55426C 331.00818 399.92087 333.94788 396.9739 337.58127 396.96094L337.58127 396.96094L677.73895 396.96094C 681.3715 396.96515 684.3178 399.90405 684.3312 403.53662z" stroke="none" fill="#3F3D56" fill-rule="nonzero" />
    <path transform="matrix(1 0 0 1 -262.59088 -154.70065)"  d="M635.8783 261.53845L376.70447 261.53845C 372.00623 261.54517 367.81732 264.49902 366.23346 268.92227L366.23346 268.92227L326.20584 381.22208C 324.99356 384.62347 325.5089 388.4018 327.58786 391.35428C 329.66678 394.3068 333.05026 396.06558 336.66122 396.0708L336.66122 396.0708L684.25586 396.68768L684.27136 396.68768C 688.00793 396.6875 691.4945 394.8101 693.55145 391.6906C 695.60834 388.57114 695.9605 384.62695 694.48865 381.19247L694.48865 381.19247L693.88257 381.45193L694.48865 381.19247L646.09564 268.2758C 644.34674 264.1862 640.3261 261.53494 635.8783 261.53845z" stroke="none" fill="#3F3D56" fill-rule="nonzero" />
    <path transform="matrix(1 0 0 1 -262.59088 -154.70065)"  d="M695.38855 383.63116C 695.38745 385.13696 695.0813 386.62695 694.4885 388.01117L694.4885 388.01117L646.0985 474.93115C 644.33777 479.01093 640.3221 481.6553 635.87854 481.66116L635.87854 481.66116L376.70853 481.66116C 372.00867 481.65656 367.81665 478.70453 366.22852 474.28116L366.22852 474.28116L326.20853 387.98114C 325.2178 385.20438 325.37146 382.1477 326.63565 379.48428C 327.8998 376.8209 330.17084 374.7692 332.94852 373.78113C 334.1383 373.35153 335.3936 373.1316 336.6585 373.13113L336.6585 373.13113L379.1185 373.05118L396.4485 373.02118L624.48846 372.6212L641.8285 372.5912L684.2585 372.5112L684.2685 372.5112C 690.4094 372.5122 695.38745 377.49017 695.38855 383.63116z" stroke="none" fill="#3F3D56" fill-rule="nonzero" />
    <path transform="matrix(1 0 0 1 -262.59088 -154.70065)"  d="M363.08447 542.35834C 368.22382 542.35834 438.79846 546.6715 438.79846 551.81085C 438.79846 556.9502 368.22375 560.96954 363.08447 560.96954C 359.7599 560.96954 356.68787 559.1959 355.02557 556.3167C 353.3633 553.43756 353.3633 549.8903 355.02557 547.0111C 356.68787 544.13196 359.7599 542.35834 363.08447 542.35834z" stroke="none" fill="#3F3D56" fill-rule="nonzero" />
    <path transform="matrix(1 0 0 1 -262.59088 -154.70065)"  d="M619.7385 193.22119L401.20853 193.22119C 389.01437 193.23529 379.1326 203.11707 379.11853 215.31119L379.11853 215.31119L379.11853 481.6612L635.87854 481.6612C 637.9869 481.6679 640.0525 481.0673 641.82855 479.93118L641.82855 479.93118L641.82855 215.31119C 641.81445 203.11707 631.9327 193.23529 619.7385 193.22119z" stroke="none" fill="#E6E6E6" fill-rule="nonzero" />
    <path transform="matrix(1 0 0 1 -262.59088 -154.70065)"  d="M536.32855 211.13116L416.56854 211.13116C 405.46494 211.14198 396.46484 220.13762 396.44855 231.24121L396.44855 231.24121L396.44855 481.6612L624.4885 481.6612L624.4885 299.2912C 624.43243 250.62503 584.99475 211.18732 536.32855 211.13116z" stroke="none" fill="#FFFFFF" fill-rule="nonzero" />
    <path transform="matrix(1 0 0 1 -262.59088 -154.70065)"  d="M585.63855 459.4212L435.29855 459.4212C 433.5461 459.41843 431.9256 460.35175 431.04858 461.86896C 430.17154 463.38617 430.17154 465.25623 431.04858 466.77344C 431.9256 468.29065 433.5461 469.22397 435.29855 469.2212L435.29855 469.2212L585.63855 469.2212C 587.391 469.22397 589.01154 468.29065 589.88855 466.77344C 590.76556 465.25623 590.76556 463.38617 589.88855 461.86896C 589.01154 460.35175 587.391 459.41843 585.63855 459.4212z" stroke="none" fill="#E4E4E4" fill-rule="nonzero" />
    <path transform="matrix(1 0 0 1 -262.59088 -154.70065)"  d="M585.63855 440.0412L435.29855 440.0412C 432.59106 440.04327 430.39734 442.2387 430.39734 444.9462C 430.39734 447.6537 432.59106 449.84912 435.29855 449.8512L435.29855 449.8512L585.63855 449.8512C 587.39185 449.85254 589.0125 448.91797 589.8896 447.39978C 590.7666 445.88162 590.7666 444.01077 589.8896 442.4926C 589.0125 440.97443 587.39185 440.03986 585.63855 440.0412z" stroke="none" fill="#E4E4E4" fill-rule="nonzero" />
    <path transform="matrix(1 0 0 1 -262.59088 -154.70065)"  d="M500.46848 420.6712L435.29846 420.6712C 433.54602 420.66843 431.9255 421.60175 431.0485 423.11896C 430.17145 424.63617 430.17145 426.50623 431.0485 428.02344C 431.9255 429.54065 433.54602 430.47397 435.29846 430.4712L435.29846 430.4712L500.46844 430.4712C 502.2209 430.47397 503.8414 429.54065 504.7184 428.02344C 505.59546 426.50623 505.59546 424.63617 504.7184 423.11896C 503.8414 421.60175 502.2209 420.66843 500.46844 420.6712L500.46844 420.6712L500.46848 420.6712z" stroke="none" fill="#E4E4E4" fill-rule="nonzero" />
    <path transform="matrix(1 0 0 1 -262.59088 -154.70065)"  d="M585.63855 380.0912L435.29855 380.0912C 432.59106 380.09326 430.39734 382.2887 430.39734 384.9962C 430.39734 387.70367 432.59106 389.8991 435.29855 389.90118L435.29855 389.90118L585.63855 389.90118C 587.39185 389.90253 589.0125 388.96796 589.8896 387.44977C 590.7666 385.9316 590.7666 384.06076 589.8896 382.5426C 589.0125 381.0244 587.39185 380.08984 585.63855 380.0912z" stroke="none" fill="#E4E4E4" fill-rule="nonzero" />
    <path transform="matrix(1 0 0 1 -262.59088 -154.70065)"  d="M585.63855 360.7212L435.29855 360.7212C 433.5461 360.7184 431.9256 361.65173 431.04858 363.16895C 430.17154 364.68616 430.17154 366.5562 431.04858 368.07343C 431.9256 369.59064 433.5461 370.52396 435.29855 370.52118L435.29855 370.52118L585.63855 370.52118C 587.391 370.52396 589.01154 369.59064 589.88855 368.07343C 590.76556 366.5562 590.76556 364.68616 589.88855 363.16895C 589.01154 361.65173 587.391 360.7184 585.63855 360.7212z" stroke="none" fill="#E4E4E4" fill-rule="nonzero" />
    <path transform="matrix(1 0 0 1 -262.59088 -154.70065)"  d="M500.46848 341.3412L435.29846 341.3412C 432.59097 341.34326 430.39725 343.5387 430.39725 346.2462C 430.39725 348.95367 432.59097 351.1491 435.29846 351.15118L435.29846 351.15118L500.46844 351.15118C 502.22174 351.15253 503.8424 350.21796 504.71945 348.69977C 505.5965 347.1816 505.5965 345.31076 504.71945 343.7926C 503.8424 342.2744 502.22174 341.33984 500.46844 341.3412L500.46844 341.3412L500.46848 341.3412z" stroke="none" fill="#E4E4E4" fill-rule="nonzero" />
    <path transform="matrix(1 0 0 1 -262.59088 -154.70065)"  d="M585.63855 300.76117L435.29855 300.76117C 432.59106 300.76324 430.39734 302.95868 430.39734 305.66617C 430.39734 308.37366 432.59106 310.5691 435.29855 310.57117L435.29855 310.57117L585.63855 310.57117C 587.39185 310.5725 589.0125 309.63794 589.8896 308.11975C 590.7666 306.6016 590.7666 304.73074 589.8896 303.2126C 589.0125 301.6944 587.39185 300.75983 585.63855 300.76117z" stroke="none" fill="#EF9C01" fill-rule="nonzero" />
    <path transform="matrix(1 0 0 1 -262.59088 -154.70065)"  d="M585.63855 281.39117L435.29855 281.39117C 432.59106 281.39325 430.39734 283.58868 430.39734 286.29617C 430.39734 289.00366 432.59106 291.1991 435.29855 291.20117L435.29855 291.20117L585.63855 291.20117C 587.39185 291.2025 589.0125 290.26794 589.8896 288.74976C 590.7666 287.2316 590.7666 285.36075 589.8896 283.8426C 589.0125 282.3244 587.39185 281.38983 585.63855 281.39117z" stroke="none" fill="#EF9C01" fill-rule="nonzero" />
    <path transform="matrix(1 0 0 1 -262.59088 -154.70065)"  d="M500.46848 262.01117L435.29846 262.01117C 432.59097 262.01324 430.39725 264.20868 430.39725 266.91617C 430.39725 269.62366 432.59097 271.8191 435.29846 271.82117L435.29846 271.82117L500.46844 271.82117C 502.22174 271.8225 503.8424 270.88794 504.71945 269.36975C 505.5965 267.8516 505.5965 265.98074 504.71945 264.4626C 503.8424 262.9444 502.22174 262.00983 500.46844 262.01117L500.46844 262.01117L500.46848 262.01117z" stroke="none" fill="#EF9C01" fill-rule="nonzero" />
    <path d="M409.2076 38.16281C 409.20764 48.701187 405.48175 57.696247 398.03 65.147995C 390.57825 72.599754 381.5832 76.32563 371.0448 76.32563C 360.50644 76.32563 351.51135 72.599754 344.0596 65.147995C 336.60785 57.696247 332.882 48.701187 332.882 38.16281C 332.882 27.624441 336.60785 18.629377 344.0596 11.177624C 351.51135 3.7258697 360.50644 -7.6293945E-06 371.0448 -7.6293945E-06C 381.5832 -7.6293945E-06 390.57825 3.7258697 398.03 11.177624C 405.48175 18.629377 409.20764 27.624441 409.2076 38.16281C 409.20764 38.606903 409.1999 39.050858 409.1844 39.494675" stroke="none" fill="#EF9C01" fill-rule="nonzero" />
    <path transform="matrix(1 0 0 1 -262.59088 -154.70065)"  d="M628.4295 212.72543C 627.0934 212.72543 625.83527 212.09618 625.0338 211.02705L625.0338 211.02705L614.62244 197.14496C 613.7063 195.93202 613.50867 194.32182 614.10425 192.92332C 614.69977 191.52481 615.9976 190.55148 617.50696 190.37143C 619.0163 190.19136 620.5067 190.83205 621.41455 192.0512L621.41455 192.0512L628.2261 201.13249L645.7205 174.89117C 646.56177 173.62924 648.0124 172.91199 649.5259 173.0096C 651.0394 173.10721 652.38586 174.00485 653.0581 175.3644C 653.73035 176.72394 653.62616 178.33884 652.7849 179.60077L652.7849 179.60077L631.962 210.835C 631.19763 211.98123 629.92474 212.68549 628.5476 212.72409C 628.50824 212.72475 628.4689 212.72543 628.4295 212.72543z" stroke="none" fill="#FFFFFF" fill-rule="nonzero" />
</g>
</svg>