<?xml version="1.0" encoding="UTF-8"?>
<svg xmlns="http://www.w3.org/2000/svg" xmlns:xlink="http://www.w3.org/1999/xlink" width="900px" height="580px" viewBox="0 0 900 580" version="1.1">
<g id="surface1">
<path style=" stroke:none;fill-rule:nonzero;fill:rgb(94.117647%,94.117647%,94.117647%);fill-opacity:1;" d="M 28.535156 445.457031 C 32.996094 400.175781 59.964844 354.980469 102.875 339.171875 C 87.019531 386.066406 88.359375 437.027344 106.660156 483.035156 C 113.78125 500.753906 123.558594 519.722656 117.773438 537.917969 C 114.175781 549.238281 104.875 558.066406 94.367188 563.710938 C 83.859375 569.355469 72.109375 572.21875 60.507812 575.027344 L 58.261719 576.976562 C 38.644531 535.871094 24.074219 490.734375 28.535156 445.457031 Z M 28.535156 445.457031 "/>
<path style=" stroke:none;fill-rule:nonzero;fill:rgb(100%,100%,100%);fill-opacity:1;" d="M 103.328125 340.011719 C 79.101562 368.441406 63.851562 404.75 61.183594 441.972656 C 60.609375 450.019531 60.730469 458.234375 62.699219 466.097656 C 64.683594 473.753906 68.691406 480.738281 74.304688 486.332031 C 79.4375 491.648438 85.304688 496.5 89.046875 502.964844 C 92.988281 509.78125 93.339844 517.632812 90.957031 525.042969 C 88.042969 534.109375 82.023438 541.59375 75.882812 548.710938 C 69.0625 556.609375 61.855469 564.710938 59.136719 575.019531 C 58.808594 576.269531 56.878906 575.6875 57.207031 574.441406 C 61.933594 556.503906 79.050781 545.941406 86.921875 529.6875 C 90.59375 522.105469 91.988281 513.378906 88.15625 505.574219 C 84.804688 498.746094 78.757812 493.742188 73.515625 488.402344 C 68.011719 482.792969 63.742188 476.59375 61.425781 469.039062 C 59.058594 461.3125 58.617188 453.085938 58.984375 445.058594 C 59.953125 426.863281 63.792969 408.933594 70.363281 391.921875 C 77.753906 372.46875 88.4375 354.414062 101.953125 338.542969 C 102.792969 337.5625 104.160156 339.035156 103.328125 340.011719 Z M 103.328125 340.011719 "/>
<path style=" stroke:none;fill-rule:nonzero;fill:rgb(100%,100%,100%);fill-opacity:1;" d="M 61.410156 429.828125 C 48.460938 427.054688 39.4375 415.367188 40.097656 402.210938 C 40.128906 401.671875 40.585938 401.257812 41.128906 401.269531 C 41.671875 401.28125 42.109375 401.71875 42.113281 402.261719 C 41.476562 414.511719 49.914062 425.398438 61.992188 427.910156 C 63.261719 428.175781 62.671875 430.09375 61.410156 429.828125 Z M 61.410156 429.828125 "/>
<path style=" stroke:none;fill-rule:nonzero;fill:rgb(100%,100%,100%);fill-opacity:1;" d="M 71.347656 483.972656 C 82.425781 477.003906 90.453125 466.136719 93.828125 453.542969 C 94.164062 452.292969 96.09375 452.875 95.761719 454.121094 C 92.222656 467.21875 83.84375 478.511719 72.300781 485.742188 C 71.199219 486.429688 70.253906 484.660156 71.347656 483.972656 Z M 71.347656 483.972656 "/>
<path style=" stroke:none;fill-rule:nonzero;fill:rgb(100%,100%,100%);fill-opacity:1;" d="M 79.675781 374.320312 C 84.382812 376.394531 89.824219 375.980469 94.15625 373.210938 C 95.246094 372.511719 96.191406 374.28125 95.109375 374.980469 C 90.308594 378.011719 84.3125 378.484375 79.09375 376.238281 C 78.570312 376.066406 78.277344 375.519531 78.417969 374.992188 C 78.582031 374.460938 79.140625 374.164062 79.675781 374.320312 Z M 79.675781 374.320312 "/>
<path style=" stroke:none;fill-rule:nonzero;fill:rgb(94.117647%,94.117647%,94.117647%);fill-opacity:1;" d="M 236.960938 416.359375 C 236.292969 416.820312 235.621094 417.277344 234.953125 417.75 C 225.992188 423.949219 217.550781 430.859375 209.714844 438.414062 C 209.101562 438.988281 208.484375 439.582031 207.886719 440.171875 C 189.203125 458.574219 174.121094 480.269531 163.402344 504.148438 C 159.144531 513.652344 155.625 523.46875 152.863281 533.503906 C 149.054688 547.367188 146.035156 562.699219 138.078125 574.160156 C 137.261719 575.367188 136.371094 576.519531 135.410156 577.617188 L 60.824219 579.550781 C 60.652344 579.46875 60.480469 579.40625 60.308594 579.324219 L 57.335938 579.539062 C 57.441406 579.011719 57.5625 578.464844 57.667969 577.9375 C 57.726562 577.632812 57.804688 577.324219 57.863281 577.019531 C 57.910156 576.816406 57.957031 576.609375 57.984375 576.421875 C 58 576.355469 58.015625 576.289062 58.03125 576.234375 C 58.058594 576.050781 58.109375 575.878906 58.136719 575.707031 C 58.804688 572.660156 59.5 569.613281 60.214844 566.5625 C 60.210938 566.546875 60.210938 566.546875 60.230469 566.53125 C 65.734375 543.3125 73.238281 520.347656 84.007812 499.246094 C 84.332031 498.613281 84.652344 497.960938 85.011719 497.324219 C 89.917969 487.839844 95.597656 478.769531 101.992188 470.207031 C 105.511719 465.527344 109.261719 461.027344 113.234375 456.726562 C 123.527344 445.632812 135.507812 436.214844 148.738281 428.820312 C 175.121094 414.085938 205.953125 407.90625 234.765625 415.742188 C 235.5 415.941406 236.222656 416.144531 236.960938 416.359375 Z M 236.960938 416.359375 "/>
<path style=" stroke:none;fill-rule:nonzero;fill:rgb(100%,100%,100%);fill-opacity:1;" d="M 236.816406 417.304688 C 200.253906 425.503906 166.09375 445.367188 141.421875 473.492188 C 136.085938 479.570312 131.207031 486.199219 128.019531 493.664062 C 124.96875 500.960938 123.9375 508.933594 125.035156 516.761719 C 125.910156 524.078125 127.65625 531.464844 126.726562 538.867188 C 125.75 546.667969 121.273438 553.148438 114.882812 557.636719 C 107.066406 563.132812 97.726562 565.507812 88.515625 567.511719 C 78.285156 569.738281 67.625 571.890625 59.210938 578.496094 C 58.191406 579.296875 57.003906 577.679688 58.019531 576.878906 C 72.65625 565.386719 92.722656 567.195312 108.847656 558.933594 C 116.371094 555.078125 122.773438 548.941406 124.4375 540.414062 C 125.894531 532.960938 124.097656 525.34375 123.148438 517.941406 C 122.148438 510.167969 122.496094 502.664062 125.222656 495.246094 C 128.011719 487.660156 132.640625 480.828125 137.792969 474.636719 C 149.585938 460.691406 163.511719 448.671875 179.058594 439.023438 C 196.742188 427.914062 216.207031 419.894531 236.609375 415.3125 C 237.875 415.027344 238.070312 417.023438 236.816406 417.304688 Z M 236.816406 417.304688 "/>
<path style=" stroke:none;fill-rule:nonzero;fill:rgb(100%,100%,100%);fill-opacity:1;" d="M 148.957031 463.929688 C 140.292969 453.964844 140.171875 439.230469 148.664062 429.125 C 149.496094 428.136719 151.078125 429.378906 150.242188 430.367188 C 142.316406 439.769531 142.460938 453.511719 150.582031 462.746094 C 151.4375 463.71875 149.804688 464.894531 148.957031 463.929688 Z M 148.957031 463.929688 "/>
<path style=" stroke:none;fill-rule:nonzero;fill:rgb(100%,100%,100%);fill-opacity:1;" d="M 124.097656 513.109375 C 137.164062 514.171875 150.15625 510.300781 160.476562 502.269531 C 161.5 501.472656 162.691406 503.089844 161.667969 503.886719 C 150.910156 512.226562 137.386719 516.226562 123.789062 515.089844 C 122.496094 514.980469 122.808594 513 124.097656 513.109375 Z M 124.097656 513.109375 "/>
<path style=" stroke:none;fill-rule:nonzero;fill:rgb(100%,100%,100%);fill-opacity:1;" d="M 197.15625 430.542969 C 199.65625 435.015625 204.253906 437.941406 209.386719 438.324219 C 210.683594 438.417969 210.367188 440.398438 209.078125 440.304688 C 203.410156 439.855469 198.335938 436.644531 195.527344 431.726562 C 195.21875 431.273438 195.3125 430.660156 195.746094 430.324219 C 196.195312 430 196.824219 430.097656 197.15625 430.542969 Z M 197.15625 430.542969 "/>
<path style=" stroke:none;fill-rule:nonzero;fill:rgb(0.392157%,50.196078%,23.529412%);fill-opacity:1;" d="M 674.703125 39.726562 C 673.589844 36.457031 659.625 25.347656 668.183594 23.476562 L 675.199219 32.78125 L 707.464844 0.707031 L 710.707031 3.933594 Z M 674.703125 39.726562 "/>
<path style=" stroke:none;fill-rule:nonzero;fill:rgb(0.392157%,50.196078%,23.529412%);fill-opacity:1;" d="M 674.703125 148.792969 C 673.589844 145.523438 659.625 134.410156 668.183594 132.542969 L 675.199219 141.847656 L 707.464844 109.773438 L 710.707031 112.996094 Z M 674.703125 148.792969 "/>
<path style=" stroke:none;fill-rule:nonzero;fill:rgb(0.392157%,50.196078%,23.529412%);fill-opacity:1;" d="M 674.703125 259.417969 C 673.589844 256.148438 659.625 245.035156 668.183594 243.167969 L 675.199219 252.46875 L 707.464844 220.394531 L 710.707031 223.621094 Z M 674.703125 259.417969 "/>
<path style=" stroke:none;fill-rule:nonzero;fill:rgb(24.705882%,23.921569%,33.72549%);fill-opacity:1;" d="M 654.949219 160.082031 C 654.949219 165.546875 650.492188 169.980469 644.996094 169.980469 C 639.496094 169.980469 635.039062 165.546875 635.039062 160.082031 C 635.039062 154.617188 639.496094 150.183594 644.996094 150.183594 C 650.492188 150.183594 654.949219 154.617188 654.949219 160.082031 Z M 654.949219 160.082031 "/>
<path style=" stroke:none;fill-rule:nonzero;fill:rgb(24.705882%,23.921569%,33.72549%);fill-opacity:1;" d="M 654.949219 52.199219 C 654.949219 57.664062 650.492188 62.097656 644.996094 62.097656 C 639.496094 62.097656 635.039062 57.664062 635.039062 52.199219 C 635.039062 46.730469 639.496094 42.300781 644.996094 42.300781 C 650.492188 42.300781 654.949219 46.730469 654.949219 52.199219 Z M 654.949219 52.199219 "/>
<path style=" stroke:none;fill-rule:nonzero;fill:rgb(24.705882%,23.921569%,33.72549%);fill-opacity:1;" d="M 740.074219 29.433594 L 900.359375 29.433594 L 900.359375 31.414062 L 740.074219 31.414062 Z M 740.074219 29.433594 "/>
<path style=" stroke:none;fill-rule:nonzero;fill:rgb(24.705882%,23.921569%,33.72549%);fill-opacity:1;" d="M 659.929688 275.085938 C 659.929688 280.554688 655.472656 284.984375 649.972656 284.984375 C 644.472656 284.984375 640.015625 280.554688 640.015625 275.085938 C 640.015625 269.621094 644.472656 265.1875 649.972656 265.1875 C 655.472656 265.1875 659.929688 269.621094 659.929688 275.085938 Z M 659.929688 275.085938 "/>
<path style=" stroke:none;fill-rule:nonzero;fill:rgb(24.705882%,23.921569%,33.72549%);fill-opacity:1;" d="M 740.074219 138.5 L 900.359375 138.5 L 900.359375 140.480469 L 740.074219 140.480469 Z M 740.074219 138.5 "/>
<path style=" stroke:none;fill-rule:nonzero;fill:rgb(24.705882%,23.921569%,33.72549%);fill-opacity:1;" d="M 740.074219 249.121094 L 900.359375 249.121094 L 900.359375 251.101562 L 740.074219 251.101562 Z M 740.074219 249.121094 "/>
<path style=" stroke:none;fill-rule:nonzero;fill:rgb(24.705882%,23.921569%,33.72549%);fill-opacity:1;" d="M 699.847656 274.164062 L 650.070312 274.164062 L 650.070312 223.6875 L 683.921875 223.6875 L 683.921875 225.664062 L 652.0625 225.664062 L 652.0625 272.183594 L 697.859375 272.183594 L 697.859375 249.417969 L 699.847656 249.417969 Z M 699.847656 274.164062 "/>
<path style=" stroke:none;fill-rule:nonzero;fill:rgb(24.705882%,23.921569%,33.72549%);fill-opacity:1;" d="M 699.847656 163.3125 L 650.070312 163.3125 L 650.070312 112.832031 L 683.921875 112.832031 L 683.921875 114.8125 L 652.0625 114.8125 L 652.0625 161.332031 L 697.859375 161.332031 L 697.859375 138.566406 L 699.847656 138.566406 Z M 699.847656 163.3125 "/>
<path style=" stroke:none;fill-rule:nonzero;fill:rgb(24.705882%,23.921569%,33.72549%);fill-opacity:1;" d="M 699.847656 50.476562 L 650.070312 50.476562 L 650.070312 0 L 683.921875 0 L 683.921875 1.980469 L 652.0625 1.980469 L 652.0625 48.5 L 697.859375 48.5 L 697.859375 25.734375 L 699.847656 25.734375 Z M 699.847656 50.476562 "/>
<path style=" stroke:none;fill-rule:nonzero;fill:rgb(62.745098%,38.039216%,41.568627%);fill-opacity:1;" d="M 374.839844 179.910156 C 374.839844 179.910156 361.535156 235.753906 377.796875 235.753906 C 394.054688 235.753906 432.488281 172.5625 432.488281 172.5625 L 419.183594 156.398438 L 395.304688 189.355469 L 394.054688 172.5625 Z M 374.839844 179.910156 "/>
<path style=" stroke:none;fill-rule:nonzero;fill:rgb(62.745098%,38.039216%,41.568627%);fill-opacity:1;" d="M 441.886719 162.125 C 441.886719 169.230469 436.089844 174.992188 428.945312 174.992188 C 421.796875 174.992188 416 169.230469 416 162.125 C 416 155.015625 421.796875 149.257812 428.945312 149.257812 C 436.089844 149.257812 441.886719 155.015625 441.886719 162.125 Z M 441.886719 162.125 "/>
<path style=" stroke:none;fill-rule:nonzero;fill:rgb(62.745098%,38.039216%,41.568627%);fill-opacity:1;" d="M 363.558594 560.253906 L 380.785156 560.25 L 388.980469 494.1875 L 363.554688 494.191406 Z M 363.558594 560.253906 "/>
<path style=" stroke:none;fill-rule:nonzero;fill:rgb(18.431373%,18.039216%,25.490196%);fill-opacity:1;" d="M 362.953125 578.117188 L 415.929688 578.117188 L 415.929688 577.449219 C 415.929688 566.128906 406.695312 556.953125 395.308594 556.953125 L 385.628906 549.652344 L 367.574219 556.953125 L 362.949219 556.953125 Z M 362.953125 578.117188 "/>
<path style=" stroke:none;fill-rule:nonzero;fill:rgb(62.745098%,38.039216%,41.568627%);fill-opacity:1;" d="M 178.246094 538.882812 L 193.660156 546.53125 L 230.667969 491.058594 L 207.917969 479.773438 Z M 178.246094 538.882812 "/>
<path style=" stroke:none;fill-rule:nonzero;fill:rgb(18.431373%,18.039216%,25.490196%);fill-opacity:1;" d="M 169.675781 554.601562 L 217.078125 578.117188 L 217.378906 577.523438 C 222.464844 567.394531 218.324219 555.082031 208.136719 550.027344 L 202.753906 539.199219 L 183.320312 537.714844 L 179.183594 535.660156 Z M 169.675781 554.601562 "/>
<path style=" stroke:none;fill-rule:nonzero;fill:rgb(80%,80%,80%);fill-opacity:1;" d="M 0 578.183594 L 567.328125 578.183594 L 567.328125 580.402344 L 0 580.402344 Z M 0 578.183594 "/>
<path style=" stroke:none;fill-rule:nonzero;fill:rgb(18.431373%,18.039216%,25.490196%);fill-opacity:1;" d="M 252.175781 281.21875 C 252.175781 281.21875 245.292969 363.515625 243.816406 381.152344 C 242.800781 392.207031 240.316406 403.078125 236.421875 413.480469 C 236.421875 413.480469 233.46875 419.359375 233.46875 425.238281 L 199.960938 485.773438 C 199.960938 485.773438 189.722656 493.257812 191.199219 499.136719 C 192.679688 505.015625 185.027344 508.539062 185.027344 508.539062 L 220.3125 515.300781 C 220.3125 515.300781 218.835938 510.890625 223.269531 509.421875 C 227.703125 507.953125 231.234375 495.207031 231.234375 495.207031 L 280.769531 414.949219 L 316.246094 341.472656 C 316.246094 341.472656 336.941406 407.601562 341.375 414.949219 C 341.375 414.949219 357.636719 497.246094 360.59375 504.59375 C 363.546875 511.941406 365.027344 511.941406 363.546875 514.882812 C 362.070312 517.820312 362.070312 520.757812 363.546875 522.230469 C 365.027344 523.699219 393.113281 522.230469 393.113281 522.230469 L 385.722656 417.890625 L 372.417969 292.976562 L 304.421875 272.402344 Z M 252.175781 281.21875 "/>
<path style=" stroke:none;fill-rule:nonzero;fill:rgb(62.745098%,38.039216%,41.568627%);fill-opacity:1;" d="M 349.792969 53.894531 C 349.792969 70.9375 335.894531 84.753906 318.75 84.753906 C 301.605469 84.753906 287.707031 70.9375 287.707031 53.894531 C 287.707031 36.851562 301.605469 23.03125 318.75 23.03125 C 335.894531 23.03125 349.792969 36.851562 349.792969 53.894531 Z M 349.792969 53.894531 "/>
<path style=" stroke:none;fill-rule:nonzero;fill:rgb(90.196078%,90.196078%,90.196078%);fill-opacity:1;" d="M 375.375 129.855469 L 338.421875 107.597656 C 338.421875 107.597656 337.394531 93.773438 326.867188 93.125 C 321.582031 92.796875 313.648438 92.296875 301.746094 91.535156 C 299.226562 91.375 297.53125 105.058594 294.648438 104.871094 L 255.640625 115.160156 L 261.554688 215.089844 C 261.554688 215.089844 252.683594 254.769531 255.640625 262.117188 C 258.597656 269.464844 248.25 272.402344 251.207031 273.871094 C 254.160156 275.34375 251.207031 285.628906 251.207031 285.628906 C 251.207031 285.628906 308.855469 315.019531 372.417969 292.976562 L 366.503906 273.871094 C 368.140625 268.796875 367.023438 263.238281 363.546875 259.175781 C 363.546875 259.175781 369.460938 250.359375 362.070312 243.011719 C 362.070312 243.011719 365.027344 229.785156 357.636719 223.90625 L 356.15625 203.332031 L 360.59375 193.046875 Z M 375.375 129.855469 "/>
<path style=" stroke:none;fill-rule:nonzero;fill:rgb(18.431373%,18.039216%,25.490196%);fill-opacity:1;" d="M 291.8125 71.523438 L 290.945312 69.519531 C 290.835938 69.261719 279.855469 43.460938 289.585938 27.546875 C 294.089844 20.179688 302.28125 16.019531 313.929688 15.183594 C 332.15625 13.875 344.628906 18.171875 351.015625 27.949219 C 353.199219 31.324219 353.347656 35.617188 351.414062 39.136719 C 349.476562 42.65625 345.757812 44.84375 341.722656 44.835938 L 341.476562 44.835938 L 338.128906 40.515625 L 337.933594 40.933594 C 336.722656 43.542969 333.9375 44.96875 330.675781 44.65625 C 330.121094 44.617188 329.628906 45.09375 329.234375 46.113281 C 328.964844 47.019531 328.21875 47.707031 327.285156 47.90625 C 324.875 48.375 321.441406 45.355469 319.902344 43.851562 C 319.785156 44.550781 319.363281 45.167969 318.753906 45.535156 C 317.132812 46.464844 314.613281 45.25 313.886719 44.863281 C 308.121094 46.082031 304.390625 45.757812 302.789062 43.898438 C 301.707031 51.523438 299.378906 65.246094 296.589844 66.007812 C 295.992188 66.144531 295.375 65.875 295.066406 65.347656 C 294.394531 64.480469 293.796875 64.046875 293.421875 64.167969 C 292.511719 64.453125 291.976562 67.425781 291.902344 69.34375 Z M 291.8125 71.523438 "/>
<path style=" stroke:none;fill-rule:nonzero;fill:rgb(90.196078%,90.196078%,90.196078%);fill-opacity:1;" d="M 359.113281 131.324219 L 373.859375 128.941406 C 384.480469 139.089844 391.71875 152.230469 394.589844 166.59375 C 399.023438 190.105469 400.503906 194.515625 400.503906 194.515625 L 365.027344 203.332031 L 345.808594 166.59375 Z M 359.113281 131.324219 "/>
<path style=" stroke:none;fill-rule:nonzero;fill:rgb(100%,100%,100%);fill-opacity:1;" d="M 284.570312 276.753906 L 293.683594 161.90625 L 526.234375 180.144531 L 517.121094 294.992188 Z M 284.570312 276.753906 "/>
<path style=" stroke:none;fill-rule:nonzero;fill:rgb(0.392157%,50.196078%,23.529412%);fill-opacity:1;" d="M 318.527344 170.804688 C 312.835938 166.765625 305.609375 166.472656 302.851562 166.53125 C 303.691406 169.144531 306.308594 175.847656 312 179.886719 C 317.707031 183.9375 324.921875 184.222656 327.675781 184.164062 C 326.835938 181.554688 324.21875 174.847656 318.527344 170.804688 Z M 318.527344 170.804688 "/>
<path style=" stroke:none;fill-rule:nonzero;fill:rgb(0.392157%,50.196078%,23.529412%);fill-opacity:1;" d="M 340.976562 243.882812 L 303.636719 240.957031 C 298.996094 240.59375 294.9375 244.035156 294.574219 248.648438 C 294.207031 253.261719 297.671875 257.296875 302.3125 257.660156 L 339.652344 260.589844 C 344.292969 260.953125 348.351562 257.507812 348.71875 252.894531 C 349.082031 248.28125 345.617188 244.25 340.976562 243.882812 Z M 340.976562 243.882812 "/>
<path style=" stroke:none;fill-rule:nonzero;fill:rgb(0.392157%,50.196078%,23.529412%);fill-opacity:1;" d="M 517.066406 168.980469 L 307.707031 152.5625 C 297.464844 151.761719 288.507812 159.363281 287.703125 169.546875 L 279.652344 270.945312 C 278.84375 281.128906 286.492188 290.035156 296.738281 290.84375 L 506.097656 307.261719 C 516.339844 308.0625 525.292969 300.460938 526.097656 290.277344 L 533.75 193.902344 L 533.90625 191.933594 L 534.148438 188.867188 C 534.957031 178.6875 527.308594 169.78125 517.066406 168.980469 Z M 510.882812 257.207031 L 509.558594 273.914062 C 509.050781 280.054688 503.648438 284.636719 497.46875 284.167969 L 469.460938 281.972656 C 463.28125 281.472656 458.671875 276.101562 459.144531 269.957031 L 460.472656 253.25 C 460.980469 247.109375 466.378906 242.527344 472.558594 242.996094 L 500.558594 245.191406 C 506.738281 245.695312 511.347656 251.0625 510.882812 257.207031 Z M 292.71875 248.496094 C 293.171875 242.867188 298.121094 238.664062 303.785156 239.101562 L 341.125 242.03125 C 346.796875 242.46875 351.039062 247.394531 350.597656 253.035156 C 350.15625 258.675781 345.195312 262.886719 339.523438 262.445312 L 339.503906 262.449219 L 302.164062 259.519531 C 299.441406 259.304688 296.914062 258.023438 295.140625 255.953125 C 293.371094 253.886719 292.5 251.203125 292.71875 248.496094 Z M 300.714844 165.867188 L 300.457031 164.832031 L 301.53125 164.734375 C 301.953125 164.6875 311.882812 163.800781 319.617188 169.292969 C 327.347656 174.78125 329.71875 184.417969 329.824219 184.820312 L 330.066406 185.859375 L 328.996094 185.96875 C 327.476562 186.082031 325.949219 186.070312 324.425781 185.9375 C 319.59375 185.65625 314.925781 184.089844 310.910156 181.398438 C 303.175781 175.90625 300.804688 166.273438 300.714844 165.867188 Z M 300.714844 165.867188 "/>
<path style=" stroke:none;fill-rule:nonzero;fill:rgb(0.392157%,50.196078%,23.529412%);fill-opacity:1;" d="M 479.472656 268.285156 L 467.335938 267.335938 C 465.535156 267.195312 463.960938 268.535156 463.816406 270.328125 C 463.675781 272.117188 465.019531 273.6875 466.820312 273.832031 L 478.957031 274.78125 C 480.757812 274.921875 482.335938 273.582031 482.476562 271.789062 C 482.617188 270 481.273438 268.429688 479.472656 268.285156 Z M 479.472656 268.285156 "/>
<path style=" stroke:none;fill-rule:nonzero;fill:rgb(0.392157%,50.196078%,23.529412%);fill-opacity:1;" d="M 501.875 270.042969 L 489.742188 269.089844 C 487.9375 268.953125 486.367188 270.292969 486.222656 272.085938 C 486.082031 273.875 487.425781 275.441406 489.226562 275.589844 L 501.363281 276.539062 C 503.164062 276.675781 504.734375 275.335938 504.878906 273.546875 C 505.019531 271.757812 503.679688 270.1875 501.875 270.042969 Z M 501.875 270.042969 "/>
<path style=" stroke:none;fill-rule:nonzero;fill:rgb(0.392157%,50.196078%,23.529412%);fill-opacity:1;" d="M 480.136719 259.933594 L 468 258.980469 C 466.199219 258.84375 464.625 260.183594 464.480469 261.972656 C 464.339844 263.765625 465.683594 265.332031 467.484375 265.476562 L 479.621094 266.429688 C 481.421875 266.566406 482.996094 265.230469 483.140625 263.4375 C 483.28125 261.644531 481.9375 260.078125 480.136719 259.933594 Z M 480.136719 259.933594 "/>
<path style=" stroke:none;fill-rule:nonzero;fill:rgb(0.392157%,50.196078%,23.529412%);fill-opacity:1;" d="M 502.539062 261.691406 L 490.402344 260.738281 C 488.601562 260.601562 487.027344 261.941406 486.882812 263.730469 C 486.742188 265.523438 488.085938 267.089844 489.886719 267.234375 L 502.023438 268.1875 C 503.828125 268.324219 505.402344 266.988281 505.542969 265.195312 C 505.6875 263.402344 504.339844 261.835938 502.539062 261.691406 Z M 502.539062 261.691406 "/>
<path style=" stroke:none;fill-rule:nonzero;fill:rgb(0.392157%,50.196078%,23.529412%);fill-opacity:1;" d="M 480.796875 251.582031 L 468.660156 250.628906 C 466.859375 250.492188 465.285156 251.828125 465.140625 253.621094 C 465 255.414062 466.34375 256.980469 468.148438 257.125 L 480.28125 258.078125 C 482.085938 258.214844 483.65625 256.875 483.800781 255.085938 C 483.941406 253.292969 482.597656 251.726562 480.796875 251.582031 Z M 480.796875 251.582031 "/>
<path style=" stroke:none;fill-rule:nonzero;fill:rgb(0.392157%,50.196078%,23.529412%);fill-opacity:1;" d="M 503.203125 253.335938 L 491.066406 252.386719 C 489.265625 252.25 487.691406 253.589844 487.550781 255.378906 C 487.40625 257.167969 488.75 258.738281 490.550781 258.882812 L 502.6875 259.835938 C 504.488281 259.972656 506.0625 258.632812 506.203125 256.839844 C 506.347656 255.050781 505.003906 253.484375 503.203125 253.335938 Z M 503.203125 253.335938 "/>
<path style=" stroke:none;fill-rule:nonzero;fill:rgb(100%,100%,100%);fill-opacity:1;" d="M 284.433594 203.515625 L 284.589844 201.539062 L 530.351562 220.734375 L 530.195312 222.707031 Z M 284.433594 203.515625 "/>
<path style=" stroke:none;fill-rule:nonzero;fill:rgb(24.705882%,23.921569%,33.72549%);fill-opacity:1;" d="M 533.90625 191.929688 L 533.75 193.902344 L 525.199219 193.234375 L 434.070312 186.117188 L 434.234375 184.144531 L 525.351562 191.265625 Z M 533.90625 191.929688 "/>
<path style=" stroke:none;fill-rule:nonzero;fill:rgb(62.745098%,38.039216%,41.568627%);fill-opacity:1;" d="M 233.46875 171.003906 C 233.46875 171.003906 220.164062 226.847656 236.421875 226.847656 C 252.683594 226.847656 291.117188 163.65625 291.117188 163.65625 L 277.8125 147.488281 L 253.933594 180.449219 L 252.683594 163.65625 Z M 233.46875 171.003906 "/>
<path style=" stroke:none;fill-rule:nonzero;fill:rgb(62.745098%,38.039216%,41.568627%);fill-opacity:1;" d="M 300.515625 153.214844 C 300.515625 160.320312 294.71875 166.082031 287.570312 166.082031 C 280.425781 166.082031 274.628906 160.320312 274.628906 153.214844 C 274.628906 146.109375 280.425781 140.347656 287.570312 140.347656 C 294.71875 140.347656 300.515625 146.109375 300.515625 153.214844 Z M 300.515625 153.214844 "/>
<path style=" stroke:none;fill-rule:nonzero;fill:rgb(90.196078%,90.196078%,90.196078%);fill-opacity:1;" d="M 266.410156 123.976562 L 257.539062 115.160156 C 257.539062 115.160156 239.800781 125.445312 238.324219 135.734375 C 236.84375 146.019531 229.453125 178.351562 229.453125 178.351562 L 256.800781 180.554688 L 265.667969 167.328125 Z M 266.410156 123.976562 "/>
</g>
</svg>
