<?xml version="1.0" standalone="no"?>
<!DOCTYPE svg PUBLIC "-//W3C//DTD SVG 1.0//EN" "http://www.w3.org/TR/2001/REC-SVG-20010904/DTD/svg10.dtd">
<svg xmlns="http://www.w3.org/2000/svg" xmlns:xlink="http://www.w3.org/1999/xlink" id="body_1" width="675" height="591">

<g transform="matrix(0.80960095 0 0 0.80960095 1.1108294 -0)">
    <path transform="matrix(1 0 0 1 -184.5 -85.00533)"  d="M908.4762 788.5769L908.4762 716.23694C 908.4762 716.23694 936.66785 767.5229 908.4762 788.5769z" stroke="none" fill="#F1F1F1" fill-rule="nonzero" />
    <path transform="matrix(1 0 0 1 -184.5 -85.00533)"  d="M910.21765 788.56415L856.928 739.64294C 856.928 739.64294 913.77325 753.5585 910.21765 788.56415z" stroke="none" fill="#F1F1F1" fill-rule="nonzero" />
    <path transform="matrix(1 0 0 1 -184.5 -85.00533)"  d="M290.95914 788.5769L290.95914 716.23694C 290.95914 716.23694 262.76746 767.5229 290.95914 788.5769z" stroke="none" fill="#F1F1F1" fill-rule="nonzero" />
    <path transform="matrix(1 0 0 1 -184.5 -85.00533)"  d="M289.21765 788.56415L342.5073 739.6429C 342.5073 739.6429 285.66208 753.5585 289.21765 788.56415z" stroke="none" fill="#F1F1F1" fill-rule="nonzero" />
    <path transform="matrix(1 0 0 1 -184.5 -85.00533)"  d="M775.2558 252.05354L771.39343 252.05354L771.39343 146.24467C 771.3935 130.003 764.9415 114.42654 753.4569 102.94193C 741.97235 91.45733 726.3959 85.00534 710.1542 85.005325L710.1542 85.005325L485.9837 85.005325C 469.74207 85.005295 454.1656 91.45724 442.68097 102.9418C 431.19635 114.42638 424.74435 130.00282 424.7443 146.24448L424.7443 146.24448L424.7443 726.72034C 424.74426 742.962 431.19623 758.53845 442.68082 770.0231C 454.16537 781.5077 469.74182 787.95966 485.98352 787.9597L485.98352 787.9597L710.15393 787.9597C 726.39557 787.9597 741.9721 781.5078 753.4567 770.02325C 764.94135 758.5387 771.3934 742.9622 771.39343 726.7206L771.39343 726.7206L771.39343 327.3701L775.25586 327.3701L775.2558 252.05354z" stroke="none" fill="#3F3D56" fill-rule="nonzero" />
    <path transform="matrix(1 0 0 1 -184.5 -85.00533)"  d="M712.625 100.93768L683.36334 100.93768C 686.09595 107.63731 685.3143 115.25765 681.2784 121.262985C 677.2425 127.26831 670.48206 130.8706 663.2466 130.87115L663.2466 130.87115L534.8222 130.87115C 527.5867 130.87064 520.8262 127.26834 516.7903 121.263C 512.7544 115.25765 511.97278 107.63728 514.70544 100.937645L514.70544 100.937645L487.375 100.937645C 462.11746 100.93763 441.64218 121.41288 441.64215 146.67041L441.64215 146.67041L441.64215 726.2945C 441.64215 751.552 462.1174 772.0273 487.37494 772.02734L487.37494 772.02734L712.625 772.02734C 737.88257 772.02734 758.35785 751.55206 758.35785 726.29456L758.35785 726.29456L758.35785 146.67046C 758.35785 134.54137 753.53955 122.909035 744.963 114.33247C 736.3864 105.75592 724.7541 100.93767 712.625 100.93768z" stroke="none" fill="#FFFFFF" fill-rule="nonzero" />
    <path transform="matrix(1 0 0 1 -184.5 -85.00533)"  d="M706.98254 762.07513L493.01746 762.07513C 468.43225 762.07513 448.4308 744.2226 448.4308 722.27924L448.4308 722.27924L448.4308 693.4687C 448.4308 675.97894 464.35974 661.74994 483.93884 661.74994L483.93884 661.74994L716.06116 661.74994C 735.64026 661.74994 751.5692 675.97894 751.5692 693.4687L751.5692 693.4687L751.5692 722.27924C 751.5692 744.2226 731.56775 762.07513 706.98254 762.07513z" stroke="none" fill="#E5E5E5" fill-rule="nonzero" />
    <path transform="matrix(1 0 0 1 -184.5 -85.00533)"  d="M515.5094 277.85025L467.78192 277.85025C 466.00174 277.84818 464.55917 276.4056 464.5571 274.62543L464.5571 274.62543L464.5571 226.8979C 464.55917 225.11775 466.00174 223.67517 467.78192 223.67308L467.78192 223.67308L515.5094 223.67308C 517.28955 223.67516 518.7321 225.11774 518.73425 226.8979L518.73425 226.8979L518.73425 274.62543C 518.7321 276.4056 517.28955 277.84818 515.5094 277.85025z" stroke="none" fill="#EF9C01" fill-rule="nonzero" />
    <path transform="matrix(1 0 0 1 -184.5 -85.00533)"  d="M587.74567 277.85025L540.0182 277.85025C 538.23804 277.84818 536.7955 276.4056 536.79333 274.62543L536.79333 274.62543L536.79333 226.8979C 536.7955 225.11774 538.23804 223.67516 540.0182 223.67308L540.0182 223.67308L587.74567 223.67308C 589.5258 223.67516 590.9684 225.11774 590.9705 226.8979L590.9705 226.8979L590.9705 274.62543C 590.9684 276.4056 589.5258 277.84818 587.74567 277.85025z" stroke="none" fill="#E5E5E5" fill-rule="nonzero" />
    <path transform="matrix(1 0 0 1 -184.5 -85.00533)"  d="M659.9819 277.85025L612.2544 277.85025C 610.47424 277.84818 609.0317 276.4056 609.02954 274.62543L609.02954 274.62543L609.02954 226.8979C 609.0317 225.11774 610.47424 223.67516 612.2544 223.67308L612.2544 223.67308L659.9819 223.67308C 661.762 223.67516 663.2046 225.11774 663.2067 226.8979L663.2067 226.8979L663.2067 274.62543C 663.2046 276.4056 661.762 277.84818 659.9819 277.85025z" stroke="none" fill="#E5E5E5" fill-rule="nonzero" />
    <path transform="matrix(1 0 0 1 -184.5 -85.00533)"  d="M732.2181 277.85025L684.4906 277.85025C 682.71045 277.84818 681.2679 276.4056 681.26575 274.62543L681.26575 274.62543L681.26575 226.8979C 681.2679 225.11774 682.71045 223.67516 684.4906 223.67308L684.4906 223.67308L732.21814 223.67308C 733.9983 223.67516 735.44086 225.11774 735.443 226.8979L735.443 226.8979L735.443 274.62543C 735.4409 276.40564 733.9983 277.84824 732.2181 277.85025z" stroke="none" fill="#E5E5E5" fill-rule="nonzero" />
    <path transform="matrix(1 0 0 1 -184.5 -85.00533)"  d="M515.3387 366.21063L467.61118 366.21063C 465.83102 366.20853 464.38846 364.76593 464.38635 362.98578L464.38635 362.98578L464.38635 315.25827C 464.38846 313.47815 465.83105 312.03555 467.61118 312.03345L467.61118 312.03345L515.3387 312.03345C 517.11884 312.03555 518.5614 313.47812 518.56354 315.25827L518.56354 315.25827L518.56354 362.98578C 518.56146 364.76593 517.11884 366.20853 515.3387 366.21063z" stroke="none" fill="#E5E5E5" fill-rule="nonzero" />
    <path transform="matrix(1 0 0 1 -184.5 -85.00533)"  d="M587.57495 366.21063L539.8475 366.21063C 538.0673 366.20853 536.6247 364.76593 536.6226 362.98578L536.6226 362.98578L536.6226 315.25827C 536.62476 313.47812 538.0673 312.03555 539.8475 312.03345L539.8475 312.03345L587.57495 312.03345C 589.3551 312.03555 590.79767 313.47812 590.7998 315.25827L590.7998 315.25827L590.7998 362.98578C 590.7977 364.76596 589.3551 366.20856 587.57495 366.21063z" stroke="none" fill="#E5E5E5" fill-rule="nonzero" />
    <path transform="matrix(1 0 0 1 -184.5 -85.00533)"  d="M659.81116 366.21063L612.0837 366.21063C 610.3035 366.20856 608.8609 364.76596 608.8588 362.98578L608.8588 362.98578L608.8588 315.25827C 608.86096 313.47812 610.3035 312.03555 612.0837 312.03345L612.0837 312.03345L659.81116 312.03345C 661.5913 312.03555 663.0339 313.47812 663.036 315.25827L663.036 315.25827L663.036 362.98578C 663.03394 364.76596 661.5913 366.20856 659.81116 366.21063z" stroke="none" fill="#EF9C01" fill-rule="nonzero" />
    <path transform="matrix(1 0 0 1 -184.5 -85.00533)"  d="M732.04736 366.21063L684.3199 366.21063C 682.53973 366.20856 681.0971 364.76596 681.09503 362.98578L681.09503 362.98578L681.09503 315.25827C 681.09717 313.47812 682.53973 312.03555 684.3199 312.03345L684.3199 312.03345L732.04736 312.03345C 733.8275 312.03555 735.2701 313.47812 735.2722 315.25827L735.2722 315.25827L735.2722 362.98578C 735.27014 364.76593 733.8275 366.20853 732.04736 366.21063z" stroke="none" fill="#EF9C01" fill-rule="nonzero" />
    <path transform="matrix(1 0 0 1 -184.5 -85.00533)"  d="M515.168 454.571L467.4405 454.571C 465.6603 454.5689 464.21774 453.1263 464.21567 451.34616L464.21567 451.34616L464.21567 403.61865C 464.21774 401.8385 465.66034 400.3959 467.4405 400.39383L467.4405 400.39383L515.168 400.39383C 516.9482 400.3959 518.39075 401.83847 518.3929 403.61865L518.3929 403.61865L518.3929 451.34616C 518.3908 453.12634 516.9482 454.56894 515.168 454.571z" stroke="none" fill="#E5E5E5" fill-rule="nonzero" />
    <path transform="matrix(1 0 0 1 -184.5 -85.00533)"  d="M587.40424 454.571L539.6767 454.571C 537.89655 454.56894 536.4539 453.12634 536.45184 451.34616L536.45184 451.34616L536.45184 403.61865C 536.454 401.83847 537.89655 400.3959 539.6767 400.39383L539.6767 400.39383L587.4042 400.39383C 589.1843 400.3959 590.6269 401.83847 590.629 403.61865L590.629 403.61865L590.629 451.34616C 590.6269 453.1263 589.1843 454.5689 587.40424 454.571z" stroke="none" fill="#E5E5E5" fill-rule="nonzero" />
    <path transform="matrix(1 0 0 1 -184.5 -85.00533)"  d="M659.64044 454.571L611.913 454.571C 610.1329 454.56894 608.69025 453.12634 608.6882 451.34616L608.6882 451.34616L608.6882 403.61865C 608.6903 401.83847 610.1329 400.3959 611.913 400.39383L611.913 400.39383L659.6405 400.39383C 661.42065 400.3959 662.8632 401.83847 662.86536 403.61865L662.86536 403.61865L662.86536 451.34616C 662.86334 453.12634 661.4207 454.56897 659.64044 454.571z" stroke="none" fill="#E5E5E5" fill-rule="nonzero" />
    <path transform="matrix(1 0 0 1 -184.5 -85.00533)"  d="M731.87665 454.571L684.1492 454.571C 682.369 454.5689 680.9264 453.1263 680.9243 451.34616L680.9243 451.34616L680.9243 403.61865C 680.92645 401.83847 682.369 400.3959 684.1492 400.39383L684.1492 400.39383L731.87665 400.39383C 733.6568 400.3959 735.09937 401.83847 735.1015 403.61865L735.1015 403.61865L735.1015 451.34616C 735.0994 453.1263 733.6568 454.5689 731.87665 454.571z" stroke="none" fill="#E5E5E5" fill-rule="nonzero" />
    <path transform="matrix(1 0 0 1 -184.5 -85.00533)"  d="M514.9973 542.9314L467.26978 542.9314C 465.48962 542.9293 464.04703 541.4867 464.04495 539.70654L464.04495 539.70654L464.04495 491.97903C 464.04703 490.19888 465.4896 488.75632 467.26978 488.7542L467.26978 488.7542L514.9973 488.7542C 516.77747 488.75632 518.22003 490.19888 518.22217 491.97903L518.22217 491.97903L518.22217 539.70654C 518.2201 541.4867 516.77747 542.9293 514.9973 542.9314z" stroke="none" fill="#E5E5E5" fill-rule="nonzero" />
    <path transform="matrix(1 0 0 1 -184.5 -85.00533)"  d="M587.2335 542.9314L539.506 542.9314C 537.7258 542.9293 536.2832 541.4867 536.2811 539.70654L536.2811 539.70654L536.2811 491.97903C 536.28326 490.19888 537.7258 488.75632 539.506 488.7542L539.506 488.7542L587.23346 488.7542C 589.0136 488.75632 590.4562 490.19888 590.4583 491.97903L590.4583 491.97903L590.4583 539.70654C 590.4563 541.4867 589.01373 542.92926 587.2335 542.9314z" stroke="none" fill="#E5E5E5" fill-rule="nonzero" />
    <path transform="matrix(1 0 0 1 -184.5 -85.00533)"  d="M659.4697 542.9314L611.74225 542.9314C 609.9621 542.9293 608.5195 541.4867 608.5174 539.70654L608.5174 539.70654L608.5174 491.97903C 608.51953 490.19888 609.9621 488.75632 611.74225 488.7542L611.74225 488.7542L659.4697 488.7542C 661.2499 488.75632 662.69244 490.19888 662.6946 491.97903L662.6946 491.97903L662.6946 539.70654C 662.6925 541.4867 661.2499 542.9293 659.4697 542.9314z" stroke="none" fill="#E5E5E5" fill-rule="nonzero" />
    <path transform="matrix(1 0 0 1 -184.5 -85.00533)"  d="M731.706 542.9314L683.97845 542.9314C 682.1983 542.9293 680.7557 541.4867 680.7536 539.70654L680.7536 539.70654L680.7536 491.97903C 680.75574 490.19888 682.1983 488.75632 683.97845 488.7542L683.97845 488.7542L731.706 488.7542C 733.48615 488.75632 734.9287 490.19888 734.93085 491.97903L734.93085 491.97903L734.93085 539.70654C 734.9288 541.4867 733.48615 542.9293 731.706 542.9314z" stroke="none" fill="#E5E5E5" fill-rule="nonzero" />
    <path transform="matrix(1 0 0 1 -184.5 -85.00533)"  d="M515.5094 740.2911L467.78192 740.2911C 466.00177 740.289 464.55917 738.8464 464.5571 737.0662L464.5571 737.0662L464.5571 689.33875C 464.55917 687.5586 466.00174 686.116 467.78192 686.1139L467.78192 686.1139L515.5094 686.1139C 517.28955 686.11597 518.7322 687.5586 518.73425 689.33875L518.73425 689.33875L518.73425 737.0662C 518.7322 738.8464 517.28955 740.289 515.5094 740.2911z" stroke="none" fill="#FFFFFF" fill-rule="nonzero" />
    <path transform="matrix(1 0 0 1 -184.5 -85.00533)"  d="M587.74567 740.2911L540.0182 740.2911C 538.23804 740.289 536.7954 738.8464 536.79333 737.0662L536.79333 737.0662L536.79333 689.33875C 536.7954 687.5586 538.23804 686.11597 540.0182 686.1139L540.0182 686.1139L587.74567 686.1139C 589.5258 686.11597 590.96844 687.5586 590.9705 689.33875L590.9705 689.33875L590.9705 737.0662C 590.96844 738.8464 589.5258 740.289 587.74567 740.2911z" stroke="none" fill="#FFFFFF" fill-rule="nonzero" />
    <path transform="matrix(1 0 0 1 -184.5 -85.00533)"  d="M659.9819 740.2911L612.2544 740.2911C 610.47424 740.289 609.0316 738.8464 609.02954 737.0662L609.02954 737.0662L609.02954 689.33875C 609.0316 687.5586 610.47424 686.11597 612.2544 686.1139L612.2544 686.1139L659.9819 686.1139C 661.762 686.11597 663.20465 687.5586 663.2067 689.33875L663.2067 689.33875L663.2067 737.0662C 663.20465 738.8464 661.762 740.289 659.9819 740.2911z" stroke="none" fill="#FFFFFF" fill-rule="nonzero" />
    <path transform="matrix(1 0 0 1 -184.5 -85.00533)"  d="M732.2181 740.2911L684.4906 740.2911C 682.71045 740.289 681.2678 738.8464 681.26575 737.0662L681.26575 737.0662L681.26575 689.33875C 681.2678 687.5586 682.71045 686.11597 684.4906 686.1139L684.4906 686.1139L732.21814 686.1139C 733.9983 686.11597 735.4409 687.5586 735.443 689.33875L735.443 689.33875L735.443 737.0662C 735.4409 738.84644 733.9983 740.289 732.2181 740.2911z" stroke="none" fill="#FFFFFF" fill-rule="nonzero" />
    <path d="M398.56015 548.2213C 398.56018 550.0023 397.93048 551.5226 396.6711 552.7819C 395.41174 554.04126 393.89154 554.67096 392.1105 554.67096C 390.32947 554.67096 388.80927 554.04126 387.5499 552.7819C 386.29053 551.5226 385.66086 550.0023 385.66086 548.2213C 385.66086 546.4403 386.29053 544.92017 387.5499 543.6607C 388.80927 542.40137 390.32947 541.77167 392.1105 541.77167C 393.89154 541.77167 395.41174 542.40137 396.6711 543.6607C 397.93048 544.92017 398.56018 546.4403 398.56015 548.2213C 398.56018 548.2964 398.55887 548.3714 398.55624 548.4464" stroke="none" fill="#E5E5E5" fill-rule="nonzero" />
    <path d="M421.77893 548.2213C 421.77896 550.0023 421.1493 551.5226 419.8899 552.7819C 418.63055 554.04126 417.11035 554.67096 415.32928 554.67096C 413.54828 554.67096 412.02808 554.04126 410.76868 552.7819C 409.50934 551.5226 408.87964 550.0023 408.87964 548.2213C 408.87964 546.4403 409.50934 544.92017 410.76868 543.6607C 412.02808 542.40137 413.54828 541.77167 415.32928 541.77167C 417.11035 541.77167 418.63055 542.40137 419.8899 543.6607C 421.1493 544.92017 421.77896 546.4403 421.77893 548.2213C 421.77896 548.2964 421.77765 548.3714 421.77502 548.4464" stroke="none" fill="#E5E5E5" fill-rule="nonzero" />
    <path d="M444.9977 548.2213C 444.99774 550.0023 444.36804 551.5226 443.10867 552.7819C 441.8493 554.04126 440.3291 554.67096 438.54807 554.67096C 436.76703 554.67096 435.24683 554.04126 433.98746 552.7819C 432.7281 551.5226 432.09842 550.0023 432.09842 548.2213C 432.09842 546.4403 432.7281 544.92017 433.98746 543.6607C 435.24683 542.40137 436.76703 541.77167 438.54807 541.77167C 440.3291 541.77167 441.8493 542.40137 443.10867 543.6607C 444.36804 544.92017 444.99774 546.4403 444.9977 548.2213C 444.99774 548.2964 444.99643 548.3714 444.9938 548.4464" stroke="none" fill="#E5E5E5" fill-rule="nonzero" />
    <path transform="matrix(1 0 0 1 -184.5 -85.00533)"  d="M1014.5 789.0053L185.5 789.0053C 184.94771 789.0053 184.5 788.5576 184.5 788.0053C 184.5 787.453 184.94771 787.0053 185.5 787.0053L185.5 787.0053L1014.5 787.0053C 1015.0523 787.0053 1015.5 787.453 1015.5 788.0053C 1015.5 788.5576 1015.0523 789.0053 1014.5 789.0053z" stroke="none" fill="#CBCBCB" fill-rule="nonzero" />
    <path transform="matrix(1 0 0 1 -184.5 -85.00533)"  d="M510.864 592.1072C 513.59534 589.377 514.97705 585.57733 514.63745 581.7304C 514.2978 577.88354 512.27167 574.3847 509.10428 572.1753L509.10428 572.1753L521.6999 527.54614L498.7357 534.8495L490.29535 576.11035C 486.86096 581.80237 488.22668 589.1636 493.47433 593.2448C 498.722 597.32605 506.1928 596.8373 510.864 592.1072z" stroke="none" fill="#FFB7B7" fill-rule="nonzero" />
    <path transform="matrix(1 0 0 1 -184.5 -85.00533)"  d="M517.3937 564.7519C 516.98346 564.8305 516.5661 564.8658 516.1486 564.8572L516.1486 564.8572L494.119 564.4158C 492.44183 564.38214 490.86017 563.62885 489.77704 562.34796C 488.69394 561.067 488.21396 559.38214 488.4595 557.7228L488.4595 557.7228L510.8071 406.732C 512.1854 397.70828 519.936 391.03632 529.06433 391.0154C 534.71655 391.02954 540.04913 393.63895 543.5286 398.09323C 547.0081 402.54755 548.24896 408.35315 546.89435 413.84067L546.89435 413.84067L531.0539 477.9973L522.0707 559.658C 521.8031 562.20044 519.90405 564.26874 517.3937 564.7519z" stroke="none" fill="#3F3D56" fill-rule="nonzero" />
    <path d="M342.105 718.105L354.365 718.105L360.198 670.817L342.103 670.818L342.105 718.105L342.105 718.105" stroke="none" fill="#FFB7B7" fill-rule="nonzero" />
    <path transform="matrix(1 0 0 1 -184.5 -85.00533)"  d="M523.47815 799.108L547.62213 799.107L547.6231 799.107C 556.1205 799.1074 563.009 805.9958 563.0096 814.4932L563.0096 814.4932L563.0096 814.9932L523.4788 814.9947L523.47815 799.108z" stroke="none" fill="#2F2E41" fill-rule="nonzero" />
    <path d="M394.382 714.123L406.565 715.489L417.632 669.146L399.65 667.13L394.382 714.123L394.382 714.123" stroke="none" fill="#FFB7B7" fill-rule="nonzero" />
    <path transform="matrix(1 0 0 1 -184.5 -85.00533)"  d="M576.22003 794.8023L600.21375 797.4924L600.2147 797.4925C 608.6591 798.44006 614.73694 806.0532 613.7904 814.4978L613.7904 814.4978L613.7347 814.9947L574.4501 810.5901L576.22003 794.8023z" stroke="none" fill="#2F2E41" fill-rule="nonzero" />
    <path transform="matrix(1 0 0 1 -184.5 -85.00533)"  d="M515.0986 539.9603C 515.0986 539.9603 498.29056 577.1692 513.13336 601.3373L513.13336 601.3373L521.9762 789.5054L542.27936 789.5054L561.9762 637.5054L596.9762 682.5054L575.6525 787.53296L600.4841 788.92694L634.9762 682.5053C 634.9762 682.5053 608.47833 565.1566 599.72723 562.331L599.72723 562.331L593.9762 535.5054L515.0986 539.9603z" stroke="none" fill="#2F2E41" fill-rule="nonzero" />
    <path transform="matrix(1 0 0 1 -184.5 -85.00533)"  d="M507.61792 572.6274C 507.61792 572.6274 492.4762 590.0053 532.4762 596.0053C 572.4762 602.0053 614.4762 593.0053 615.4762 581.0053C 616.4762 569.0053 507.61792 572.6274 507.61792 572.6274z" stroke="none" fill="#CBCBCB" fill-rule="nonzero" />
    <path transform="matrix(1 0 0 1 -184.5 -85.00533)"  d="M708.1348 357.05838C 708.0094 360.49237 706.3693 363.69446 703.65594 365.80295C 700.94257 367.91147 697.43463 368.70984 694.07605 367.98325L694.07605 367.98325L678.9562 389.78763L663.4647 383.8311L685.2494 353.33896C 686.8799 347.65283 692.50555 344.0848 698.3442 345.03372C 704.18286 345.98267 708.38904 351.1486 708.1348 357.05838z" stroke="none" fill="#FFB7B7" fill-rule="nonzero" />
    <path transform="matrix(1 0 0 1 -184.5 -85.00533)"  d="M580.2636 385.112L558.8862 375.441L531.49664 377.399C 531.49664 377.399 498.4762 416.00528 511.4762 453.00528L511.4762 453.00528L503.4762 582.00525C 554.4762 596.00525 577.6593 569.74744 614.4762 581.00525L614.4762 581.00525L603.10425 437.636L580.2636 385.112z" stroke="none" fill="#3F3D56" fill-rule="nonzero" />
    <path transform="matrix(1 0 0 1 -184.5 -85.00533)"  d="M565.9762 394.50534L580.2636 385.11197C 580.2636 385.11197 600.11005 382.11197 608.04315 389.80865C 608.04315 389.80865 634.9697 392.0624 641.47296 398.78387L641.47296 398.78387L648.63324 400.39798L672.42017 369.59613L686.97626 377.50534L665.97626 434.50534L603.10425 437.636L565.9762 394.50534z" stroke="none" fill="#3F3D56" fill-rule="nonzero" />
    <path transform="matrix(0.8774545 -0.47965977 0.47965977 0.8774545 -277.19937 222.12213)"  d="M588.46484 334.9828C 588.46484 344.30118 585.1703 352.2549 578.58124 358.844C 571.9922 365.4331 564.03845 368.72763 554.72003 368.72763C 545.4016 368.72763 537.4479 365.4331 530.8588 358.844C 524.2698 352.2549 520.9752 344.30118 520.9752 334.9828C 520.9752 325.66443 524.2698 317.7107 530.8588 311.12158C 537.4479 304.5325 545.4016 301.23795 554.72003 301.23795C 564.03845 301.23795 571.9922 304.5325 578.58124 311.12158C 585.1703 317.7107 588.46484 325.66443 588.46484 334.9828C 588.46484 335.3755 588.458 335.76804 588.44434 336.16046" stroke="none" fill="#FFB7B7" fill-rule="nonzero" />
    <path transform="matrix(1 0 0 1 -184.5 -85.00533)"  d="M525.5329 308.60052C 531.5563 297.7669 539.08325 290.75217 551.4762 291.0053C 563.86914 291.25845 574.58905 290.7686 580.165 301.83914C 581.6388 299.0799 582.37683 295.9875 582.3079 292.86005C 585.74915 295.094 587.5332 299.15973 586.8472 303.20477C 589.05115 301.91394 590.4479 299.5914 590.555 297.0395C 594.691 298.41595 595.7665 304.2447 593.67365 308.06842C 591.5808 311.89215 587.4764 314.10324 583.53845 315.9724C 579.6005 317.84158 581.4186 327.7276 578.84705 331.24728C 577.05237 333.7037 576.23157 336.71408 575.0223 339.50558C 574.9717 339.61588 574.8855 339.7059 574.77747 339.76123C 572.0047 341.3073 570.2546 344.0698 570.7441 347.2065C 570.8021 347.44168 570.7884 347.6888 570.70465 347.9161C 567.19446 354.5291 563.4054 361.44806 557.04285 365.3941C 551.9375 368.47708 545.82227 369.42236 540.02423 368.0248C 533.5207 366.46988 527.8983 362.15802 523.8442 356.84036C 519.79004 351.5227 517.1822 345.23788 515.22266 338.8446C 513.4844 333.17322 512.22034 327.1093 513.5986 321.33984C 514.9768 315.57037 519.6457 310.22784 525.56067 309.782" stroke="none" fill="#2F2E41" fill-rule="nonzero" />
</g>
</svg>