<?xml version="1.0" encoding="UTF-8"?>
<svg xmlns="http://www.w3.org/2000/svg" xmlns:xlink="http://www.w3.org/1999/xlink" width="900px" height="580px" viewBox="0 0 900 580" version="1.1">
<g id="surface1">
<path style=" stroke:none;fill-rule:nonzero;fill:rgb(94.901961%,94.901961%,94.901961%);fill-opacity:1;" d="M 717.804688 105.703125 C 713.136719 146.65625 699.84375 189.839844 678.992188 231.503906 C 653.210938 283.027344 617.980469 328.410156 577.117188 362.742188 L 574.847656 361.167969 C 615.515625 327 650.582031 281.816406 676.261719 230.507812 C 699.46875 184.136719 713.269531 135.882812 716.195312 90.984375 L 719.09375 91.371094 C 718.785156 96.113281 718.355469 100.890625 717.804688 105.703125 Z M 717.804688 105.703125 "/>
<path style=" stroke:none;fill-rule:nonzero;fill:rgb(94.901961%,94.901961%,94.901961%);fill-opacity:1;" d="M 736.390625 343.546875 C 678.996094 416.273438 609.363281 468.238281 540.316406 489.863281 L 538.917969 487.824219 C 607.484375 466.347656 676.714844 414.648438 733.847656 342.253906 Z M 736.390625 343.546875 "/>
<path style=" stroke:none;fill-rule:nonzero;fill:rgb(94.901961%,94.901961%,94.901961%);fill-opacity:1;" d="M 716.410156 156.691406 C 711.746094 197.644531 698.449219 240.824219 677.601562 282.488281 C 651.816406 334.011719 616.589844 379.394531 575.722656 413.730469 L 573.453125 412.15625 C 614.121094 377.984375 649.1875 332.804688 674.867188 281.492188 C 698.074219 235.125 711.875 186.871094 714.800781 141.972656 L 717.699219 142.359375 C 717.390625 147.101562 716.960938 151.878906 716.410156 156.691406 Z M 716.410156 156.691406 "/>
<path style=" stroke:none;fill-rule:nonzero;fill:rgb(90.196078%,90.196078%,90.196078%);fill-opacity:1;" d="M 72.058594 261.828125 L 34.398438 261.828125 C 32.769531 261.832031 31.226562 261.238281 30.214844 260.222656 C 29.214844 259.230469 28.835938 257.929688 29.195312 256.691406 C 32.78125 244.085938 32.554688 230.980469 28.539062 218.460938 C 28.015625 216.773438 28.835938 215.003906 30.609375 213.992188 C 49.976562 202.898438 65.226562 203.222656 75.933594 214.949219 C 76.421875 215.484375 76.738281 216.101562 76.871094 216.75 C 79.734375 230.457031 79.890625 244.433594 77.34375 258.175781 C 76.976562 260.273438 74.722656 261.832031 72.058594 261.828125 Z M 72.058594 261.828125 "/>
<path style=" stroke:none;fill-rule:nonzero;fill:rgb(100%,100%,100%);fill-opacity:1;" d="M 60.382812 231.792969 L 47.429688 231.792969 C 45.9375 231.792969 44.730469 230.828125 44.730469 229.640625 C 44.730469 228.453125 45.9375 227.488281 47.429688 227.488281 L 60.382812 227.488281 C 61.878906 227.492188 63.078125 228.453125 63.078125 229.640625 C 63.078125 230.828125 61.878906 231.789062 60.382812 231.792969 Z M 60.382812 231.792969 "/>
<path style=" stroke:none;fill-rule:nonzero;fill:rgb(100%,100%,100%);fill-opacity:1;" d="M 60.382812 239.335938 L 47.429688 239.335938 C 45.9375 239.335938 44.730469 238.375 44.730469 237.183594 C 44.730469 235.996094 45.9375 235.035156 47.429688 235.035156 L 60.382812 235.035156 C 61.878906 235.035156 63.078125 236 63.078125 237.183594 C 63.078125 238.371094 61.878906 239.332031 60.382812 239.335938 Z M 60.382812 239.335938 "/>
<path style=" stroke:none;fill-rule:nonzero;fill:rgb(100%,100%,100%);fill-opacity:1;" d="M 60.382812 246.882812 L 47.429688 246.882812 C 45.9375 246.882812 44.730469 245.917969 44.730469 244.730469 C 44.730469 243.542969 45.9375 242.578125 47.429688 242.578125 L 60.382812 242.578125 C 61.878906 242.582031 63.078125 243.542969 63.078125 244.730469 C 63.078125 245.917969 61.878906 246.878906 60.382812 246.882812 Z M 60.382812 246.882812 "/>
<path style=" stroke:none;fill-rule:nonzero;fill:rgb(90.196078%,90.196078%,90.196078%);fill-opacity:1;" d="M 756.476562 395.746094 L 718.824219 395.746094 C 717.191406 395.75 715.644531 395.15625 714.632812 394.140625 C 713.632812 393.148438 713.257812 391.847656 713.613281 390.609375 C 717.199219 378.003906 716.976562 364.902344 712.953125 352.378906 C 712.433594 350.691406 713.253906 348.921875 715.027344 347.910156 C 734.390625 336.816406 749.644531 337.140625 760.351562 348.867188 C 760.839844 349.402344 761.15625 350.019531 761.289062 350.667969 C 764.152344 364.375 764.316406 378.351562 761.761719 392.09375 C 761.394531 394.191406 759.140625 395.753906 756.476562 395.746094 Z M 756.476562 395.746094 "/>
<path style=" stroke:none;fill-rule:nonzero;fill:rgb(100%,100%,100%);fill-opacity:1;" d="M 744.800781 365.710938 L 731.847656 365.710938 C 730.359375 365.707031 729.152344 364.746094 729.152344 363.558594 C 729.152344 362.371094 730.359375 361.410156 731.847656 361.40625 L 744.800781 361.40625 C 746.292969 361.40625 747.507812 362.371094 747.507812 363.558594 C 747.507812 364.746094 746.292969 365.710938 744.800781 365.710938 Z M 744.800781 365.710938 "/>
<path style=" stroke:none;fill-rule:nonzero;fill:rgb(100%,100%,100%);fill-opacity:1;" d="M 744.800781 373.253906 L 731.847656 373.253906 C 730.359375 373.253906 729.152344 372.289062 729.152344 371.105469 C 729.152344 369.917969 730.359375 368.953125 731.847656 368.953125 L 744.800781 368.953125 C 746.292969 368.953125 747.507812 369.914062 747.507812 371.105469 C 747.507812 372.292969 746.292969 373.253906 744.800781 373.253906 Z M 744.800781 373.253906 "/>
<path style=" stroke:none;fill-rule:nonzero;fill:rgb(100%,100%,100%);fill-opacity:1;" d="M 744.800781 380.800781 L 731.847656 380.800781 C 730.359375 380.796875 729.152344 379.835938 729.152344 378.648438 C 729.152344 377.460938 730.359375 376.5 731.847656 376.496094 L 744.800781 376.496094 C 746.292969 376.496094 747.507812 377.460938 747.507812 378.648438 C 747.507812 379.835938 746.292969 380.800781 744.800781 380.800781 Z M 744.800781 380.800781 "/>
<path style=" stroke:none;fill-rule:nonzero;fill:rgb(80%,80%,80%);fill-opacity:1;" d="M 898.980469 579.183594 C 898.984375 579.484375 898.832031 579.769531 898.570312 579.980469 C 898.304688 580.191406 897.949219 580.308594 897.570312 580.308594 L 2.039062 580.308594 C 1.257812 580.308594 0.628906 579.804688 0.628906 579.183594 C 0.628906 578.566406 1.257812 578.0625 2.039062 578.0625 L 897.570312 578.0625 C 897.949219 578.0625 898.304688 578.179688 898.570312 578.390625 C 898.832031 578.601562 898.984375 578.886719 898.980469 579.183594 Z M 898.980469 579.183594 "/>
<path style=" stroke:none;fill-rule:nonzero;fill:rgb(94.901961%,94.901961%,94.901961%);fill-opacity:1;" d="M 236.863281 510.472656 L 234.515625 484.453125 C 219.128906 478.328125 202.097656 475.285156 184.902344 475.59375 C 209.097656 490.484375 207.15625 520.253906 223.914062 540.628906 C 234.625 553.433594 252.0625 561.664062 271.3125 563 L 291.441406 572.226562 C 296.109375 547.6875 287.042969 522.753906 266.640625 503.996094 C 260.925781 498.839844 254.410156 494.28125 247.261719 490.417969 C 242.863281 500.484375 236.863281 510.472656 236.863281 510.472656 Z M 236.863281 510.472656 "/>
<path style=" stroke:none;fill-rule:nonzero;fill:rgb(94.901961%,94.901961%,94.901961%);fill-opacity:1;" d="M 662.746094 514.242188 L 665.097656 488.226562 C 680.480469 482.101562 697.511719 479.058594 714.707031 479.363281 C 690.515625 494.257812 692.449219 524.027344 675.695312 544.398438 C 664.988281 557.207031 647.546875 565.4375 628.300781 566.769531 L 608.164062 575.996094 C 603.503906 551.460938 612.566406 526.527344 632.964844 507.769531 C 638.683594 502.613281 645.195312 498.050781 652.34375 494.191406 C 656.75 504.257812 662.746094 514.242188 662.746094 514.242188 Z M 662.746094 514.242188 "/>
<path style=" stroke:none;fill-rule:nonzero;fill:rgb(0.392157%,50.196078%,23.529412%);fill-opacity:1;" d="M 461.648438 202.710938 C 461.648438 212.605469 451.570312 220.628906 439.148438 220.628906 C 426.722656 220.628906 416.652344 212.605469 416.652344 202.710938 C 416.652344 192.8125 426.722656 184.792969 439.148438 184.792969 C 451.570312 184.792969 461.648438 192.8125 461.648438 202.710938 Z M 461.648438 202.710938 "/>
<path style=" stroke:none;fill-rule:nonzero;fill:rgb(100%,100%,100%);fill-opacity:1;" d="M 450.695312 195.242188 C 449.996094 194.707031 448.890625 194.707031 448.183594 195.242188 C 443.410156 198.273438 439.125 201.761719 435.417969 205.628906 C 434.507812 204.226562 433.601562 202.824219 432.6875 201.421875 C 431.640625 199.804688 428.574219 201.234375 429.625 202.851562 C 430.953125 204.902344 432.285156 206.953125 433.613281 209 C 433.9375 209.425781 434.519531 209.6875 435.148438 209.6875 C 435.777344 209.6875 436.355469 209.425781 436.679688 209 C 440.632812 204.574219 445.351562 200.613281 450.695312 197.242188 C 451.382812 196.6875 451.382812 195.796875 450.695312 195.242188 Z M 450.695312 195.242188 "/>
<path style=" stroke:none;fill-rule:nonzero;fill:rgb(62.745098%,38.039216%,41.568627%);fill-opacity:1;" d="M 338.480469 253.519531 L 304.554688 211.085938 L 343.839844 194.328125 L 354.148438 226.703125 L 426.804688 257.972656 C 434.796875 255.679688 443.632812 258.867188 446.738281 265.167969 C 449.851562 271.464844 446.105469 278.589844 438.292969 281.25 C 430.476562 283.910156 421.429688 281.136719 417.863281 274.992188 Z M 338.480469 253.519531 "/>
<path style=" stroke:none;fill-rule:nonzero;fill:rgb(24.705882%,23.921569%,33.72549%);fill-opacity:1;" d="M 279.765625 160.1875 C 269.105469 172.65625 306.988281 217.964844 306.988281 217.964844 C 308.835938 214.796875 326.476562 250.375 329.433594 248.273438 C 337.828125 242.300781 350.972656 225.664062 358.28125 224.921875 C 362.464844 224.496094 348.59375 200.890625 348.59375 200.890625 C 348.59375 200.890625 342.25 186.953125 333.652344 169.148438 C 328.941406 158.84375 317.9375 151.179688 304.488281 148.839844 C 304.488281 148.839844 290.425781 147.722656 279.765625 160.1875 Z M 279.765625 160.1875 "/>
<path style=" stroke:none;fill-rule:nonzero;fill:rgb(62.745098%,38.039216%,41.568627%);fill-opacity:1;" d="M 280.289062 566.316406 L 296.398438 566.316406 L 304.0625 516.816406 L 280.28125 516.820312 Z M 280.289062 566.316406 "/>
<path style=" stroke:none;fill-rule:nonzero;fill:rgb(18.431373%,18.039216%,25.490196%);fill-opacity:1;" d="M 276.179688 562.125 L 280.710938 562.125 L 298.414062 556.390625 L 307.90625 562.125 C 319.078125 562.125 328.132812 569.335938 328.132812 578.230469 L 328.132812 578.753906 L 276.179688 578.757812 Z M 276.179688 562.125 "/>
<path style=" stroke:none;fill-rule:nonzero;fill:rgb(62.745098%,38.039216%,41.568627%);fill-opacity:1;" d="M 355.140625 566.316406 L 371.253906 566.316406 L 378.921875 516.816406 L 355.136719 516.820312 Z M 355.140625 566.316406 "/>
<path style=" stroke:none;fill-rule:nonzero;fill:rgb(18.431373%,18.039216%,25.490196%);fill-opacity:1;" d="M 351.03125 562.125 L 355.570312 562.125 L 373.273438 556.390625 L 382.761719 562.125 L 382.765625 562.125 C 393.933594 562.125 402.984375 569.335938 402.984375 578.230469 L 402.984375 578.753906 L 351.03125 578.757812 Z M 351.03125 562.125 "/>
<path style=" stroke:none;fill-rule:nonzero;fill:rgb(18.431373%,18.039216%,25.490196%);fill-opacity:1;" d="M 362.113281 295.707031 L 257.3125 297.792969 C 237.40625 306.40625 237.109375 325.039062 243.628906 347.167969 C 243.628906 347.167969 241.429688 360.316406 245.828125 363.824219 C 250.234375 367.332031 252.4375 367.332031 250.234375 373.46875 C 248.035156 379.605469 259.664062 389.628906 258.25 390.757812 C 256.835938 391.882812 253.539062 398.019531 253.539062 398.019531 L 264.546875 447.992188 C 264.546875 447.992188 272.25 534.792969 274.449219 536.542969 C 276.652344 538.296875 278.855469 536.542969 276.652344 540.929688 C 274.449219 545.3125 272.25 543.558594 274.449219 545.3125 C 276.402344 546.988281 278.238281 548.742188 279.953125 550.574219 L 306.570312 550.574219 C 306.570312 550.574219 308.574219 541.804688 308.574219 540.929688 C 308.574219 540.050781 310.777344 534.792969 310.777344 533.914062 C 310.777344 533.039062 308.835938 531.488281 308.835938 531.488281 C 308.164062 529.707031 307.707031 527.875 307.476562 526.023438 C 307.476562 524.269531 300.871094 456.761719 300.871094 456.761719 L 314.078125 369.085938 L 346.003906 455.007812 C 346.003906 455.007812 346.003906 530.40625 348.207031 532.160156 C 350.410156 533.914062 350.410156 533.039062 349.308594 536.542969 C 348.207031 540.050781 343.804688 539.175781 347.105469 541.804688 C 350.410156 544.433594 351.507812 540.050781 350.410156 544.433594 L 349.308594 548.820312 L 382.335938 549.195312 C 382.335938 549.195312 386.734375 541.804688 384.535156 539.175781 C 382.335938 536.542969 382.460938 537.261719 385.152344 532.957031 C 387.839844 528.652344 388.9375 527.777344 387.839844 526.902344 C 386.734375 526.023438 386.734375 521.359375 386.734375 521.359375 L 381.230469 437.472656 C 381.230469 437.472656 380.128906 348.921875 380.128906 346.289062 C 380.046875 344.9375 380.359375 343.585938 381.042969 342.347656 L 381.042969 338.777344 L 376.828125 326.125 Z M 362.113281 295.707031 "/>
<path style=" stroke:none;fill-rule:nonzero;fill:rgb(62.745098%,38.039216%,41.568627%);fill-opacity:1;" d="M 331.722656 96.210938 C 331.722656 110.53125 317.144531 122.144531 299.160156 122.144531 C 281.175781 122.144531 266.597656 110.53125 266.597656 96.210938 C 266.597656 81.886719 281.175781 70.273438 299.160156 70.273438 C 317.144531 70.273438 331.722656 81.886719 331.722656 96.210938 Z M 331.722656 96.210938 "/>
<path style=" stroke:none;fill-rule:nonzero;fill:rgb(24.705882%,23.921569%,33.72549%);fill-opacity:1;" d="M 315.4375 139.285156 C 322.457031 142.605469 326.652344 148.710938 329.058594 154.921875 C 333.523438 166.417969 336.207031 178.304688 337.058594 190.320312 L 339.601562 226.292969 L 371.113281 302.882812 C 343.804688 321.289062 241.144531 307.066406 241.144531 307.066406 C 241.144531 307.066406 237.992188 306.230469 241.144531 303.71875 C 244.296875 301.210938 247.367188 303.433594 244.214844 300.925781 C 241.0625 298.414062 243.234375 301.210938 244.285156 298.699219 C 245.332031 296.191406 244.285156 297.863281 243.234375 297.027344 C 242.183594 296.191406 251.367188 288.660156 251.367188 288.660156 L 242.960938 244.695312 L 232.457031 156.015625 C 245.0625 143.46875 270.414062 136.070312 270.414062 136.070312 L 276.964844 126.679688 L 309.714844 128.765625 Z M 315.4375 139.285156 "/>
<path style=" stroke:none;fill-rule:nonzero;fill:rgb(18.431373%,18.039216%,25.490196%);fill-opacity:1;" d="M 326 82.429688 C 328.535156 83.933594 330.410156 86.03125 331.363281 88.429688 C 331.730469 84.511719 331.753906 80.578125 331.429688 76.660156 C 331.046875 73.90625 328.613281 73.285156 325.792969 72.570312 C 323.25 71.921875 320.367188 71.1875 319.597656 68.515625 C 309.359375 60.582031 291.542969 60.984375 279.351562 63.75 C 272.636719 65.273438 268.777344 67.226562 268.429688 68.375 L 268.359375 68.609375 L 268.085938 68.71875 C 262.914062 70.777344 261.910156 77.28125 261.972656 82.375 C 262.101562 91.972656 266.257812 102.871094 268.605469 103.757812 C 268.730469 103.804688 268.757812 103.785156 268.8125 103.75 C 272.34375 101.503906 276.648438 103.921875 278.539062 105.234375 C 280.835938 92.960938 293.351562 83.519531 308.863281 82.355469 C 311.324219 82.164062 313.769531 81.839844 316.175781 81.378906 C 317.394531 81.128906 318.644531 80.996094 319.90625 80.988281 C 322.078125 80.960938 324.203125 81.464844 326 82.429688 Z M 326 82.429688 "/>
<path style=" stroke:none;fill-rule:nonzero;fill:rgb(100%,72.156863%,72.156863%);fill-opacity:1;" d="M 528.148438 316.371094 L 590.785156 265.710938 L 607.289062 225.195312 L 580.730469 216.636719 C 567.578125 227.207031 554.035156 259.5625 554.035156 259.5625 L 511.28125 305.261719 C 510.9375 305.363281 510.601562 305.472656 510.265625 305.597656 C 504.832031 307.640625 501.949219 312.445312 503.371094 317.097656 C 504.792969 321.746094 510.125 324.957031 516.128906 324.78125 C 522.132812 324.609375 527.15625 321.09375 528.148438 316.371094 Z M 528.148438 316.371094 "/>
<path style=" stroke:none;fill-rule:nonzero;fill:rgb(0.392157%,50.196078%,23.529412%);fill-opacity:1;" d="M 573.488281 221.273438 L 607.074219 229.011719 L 607.195312 228.992188 C 619.546875 227.082031 629.3125 210.742188 635.328125 197.371094 C 639.4375 188.21875 633.941406 178.097656 622.757812 174.210938 C 614.625 171.4375 605.21875 172.578125 598.492188 177.160156 L 581.742188 188.644531 Z M 573.488281 221.273438 "/>
<path style=" stroke:none;fill-rule:nonzero;fill:rgb(100%,72.156863%,72.156863%);fill-opacity:1;" d="M 544.753906 564.8125 L 526.691406 564.8125 L 518.097656 509.324219 L 544.753906 509.324219 Z M 544.753906 564.8125 "/>
<path style=" stroke:none;fill-rule:nonzero;fill:rgb(18.431373%,18.039216%,25.490196%);fill-opacity:1;" d="M 549.359375 560.113281 L 544.277344 560.113281 L 524.425781 553.6875 L 513.792969 560.113281 L 513.785156 560.113281 C 501.269531 560.113281 491.121094 568.195312 491.121094 578.167969 L 491.121094 578.753906 L 549.359375 578.757812 Z M 549.359375 560.113281 "/>
<path style=" stroke:none;fill-rule:nonzero;fill:rgb(100%,72.156863%,72.156863%);fill-opacity:1;" d="M 624.898438 564.8125 L 606.839844 564.8125 L 598.246094 509.324219 L 624.902344 509.324219 Z M 624.898438 564.8125 "/>
<path style=" stroke:none;fill-rule:nonzero;fill:rgb(18.431373%,18.039216%,25.490196%);fill-opacity:1;" d="M 629.507812 560.113281 L 624.421875 560.113281 L 604.574219 553.6875 L 593.933594 560.113281 C 581.414062 560.113281 571.265625 568.195312 571.265625 578.167969 L 571.265625 578.753906 L 629.503906 578.757812 Z M 629.507812 560.113281 "/>
<path style=" stroke:none;fill-rule:nonzero;fill:rgb(18.431373%,18.039216%,25.490196%);fill-opacity:1;" d="M 652.4375 325.808594 C 652.4375 325.808594 654.550781 345.964844 649.277344 365.285156 C 644.003906 384.601562 644.003906 439.003906 644.003906 439.003906 L 632.40625 545.019531 L 597.601562 542.5 L 588.109375 365.285156 L 554.367188 424.914062 L 557.53125 433.3125 L 553.316406 435.414062 C 553.316406 435.414062 556.476562 451.792969 554.367188 451.792969 C 552.257812 451.792969 546.984375 454.3125 546.984375 454.3125 L 551.207031 540.820312 L 515.347656 539.980469 L 502.695312 418.195312 L 516.402344 348.484375 L 517.460938 335.046875 L 522.203125 335.203125 L 524.617188 329.589844 L 529.058594 319.929688 Z M 652.4375 325.808594 "/>
<path style=" stroke:none;fill-rule:nonzero;fill:rgb(0.392157%,50.196078%,23.529412%);fill-opacity:1;" d="M 654.265625 330.042969 L 654.453125 329.832031 C 664.488281 318.640625 649.394531 291.746094 647.117188 287.847656 L 656.703125 285.367188 L 654.542969 270.746094 L 653.523438 264.230469 L 660.855469 258.390625 L 660.875 258.246094 L 665.089844 228.847656 L 671.222656 209.324219 C 675.929688 194.296875 670.089844 178.417969 655.949219 167.785156 L 641.773438 157.136719 L 624.542969 136.835938 L 596.757812 136.835938 L 587.230469 151.164062 C 568.171875 154.675781 554.988281 168.53125 555.902344 184.09375 L 558.0625 221.683594 L 549.605469 268.480469 L 549.601562 276.949219 L 540.089844 285.371094 L 542.167969 293.640625 L 534.929688 296.113281 L 531.734375 307.992188 C 530.40625 309.382812 521.675781 318.65625 521.675781 321.1875 C 521.675781 321.570312 522.03125 321.9375 522.789062 322.347656 C 528.738281 325.554688 561.625 332.097656 576.179688 327.457031 C 591.6875 322.519531 653.320312 329.929688 653.941406 330.003906 Z M 654.265625 330.042969 "/>
<path style=" stroke:none;fill-rule:nonzero;fill:rgb(100%,72.156863%,72.156863%);fill-opacity:1;" d="M 643.855469 100.972656 C 643.855469 117.160156 627.382812 130.28125 607.0625 130.28125 C 586.742188 130.28125 570.269531 117.160156 570.269531 100.972656 C 570.269531 84.789062 586.742188 71.667969 607.0625 71.667969 C 627.382812 71.667969 643.855469 84.789062 643.855469 100.972656 Z M 643.855469 100.972656 "/>
<path style=" stroke:none;fill-rule:nonzero;fill:rgb(18.431373%,18.039216%,25.490196%);fill-opacity:1;" d="M 603.539062 130.753906 C 609.234375 130.707031 614.921875 130.273438 620.523438 129.457031 C 626.074219 128.4375 638.316406 120.898438 641.65625 116.445312 C 644.136719 113.132812 645.621094 108.015625 646.433594 104.300781 C 648.652344 94.367188 645.476562 84.152344 637.699219 76.1875 C 636.214844 74.539062 634.195312 73.238281 631.863281 72.425781 C 631.660156 72.367188 631.449219 72.3125 631.230469 72.269531 C 627.847656 71.636719 624.78125 70.207031 622.421875 68.175781 C 621.960938 67.761719 621.46875 67.378906 620.941406 67.023438 C 618.292969 65.335938 615.183594 64.171875 611.867188 63.625 C 606.503906 62.597656 598.835938 63.882812 589.070312 67.449219 C 584.164062 69.238281 578.71875 68.738281 574.519531 68.101562 C 574.042969 68.039062 573.558594 68.183594 573.25 68.480469 C 571.515625 69.84375 569.199219 70.636719 566.761719 70.695312 C 565.269531 70.777344 563.757812 72.457031 561.933594 74.640625 C 561.523438 75.136719 561.042969 75.714844 560.691406 76.066406 L 560.621094 75.40625 L 559.800781 76.164062 C 557.183594 78.585938 556.304688 81.90625 557.476562 84.964844 C 558.644531 88.023438 561.703125 90.390625 565.574219 91.234375 C 567.085938 91.519531 568.628906 91.683594 570.183594 91.722656 C 571.121094 91.769531 572.097656 91.820312 573.03125 91.929688 C 579.140625 92.796875 584.230469 96.15625 586.4375 100.773438 C 586.953125 101.839844 588.0625 102.652344 589.4375 102.972656 C 590.8125 103.292969 592.292969 103.085938 593.453125 102.414062 C 595.382812 101.15625 597.964844 100.726562 600.367188 101.265625 C 601.394531 101.695312 602.207031 102.390625 602.667969 103.238281 C 603.222656 104.183594 604.121094 104.976562 605.242188 105.511719 C 609.078125 106.988281 609.558594 113.859375 608.386719 119.621094 C 607.253906 125.175781 604.800781 129.226562 602.410156 129.472656 C 600.574219 129.660156 600.363281 129.769531 600.238281 130.03125 L 600.125 130.269531 L 600.34375 130.480469 C 601.367188 130.753906 602.457031 130.847656 603.539062 130.753906 Z M 603.539062 130.753906 "/>
<path style=" stroke:none;fill-rule:nonzero;fill:rgb(100%,72.156863%,72.156863%);fill-opacity:1;" d="M 573.007812 224.40625 L 555.320312 206.457031 C 537.304688 210.410156 505.339844 233.101562 505.339844 233.101562 L 439.6875 255.792969 C 433.632812 254.984375 427.71875 257.757812 425.671875 262.367188 C 423.621094 266.980469 426.035156 272.097656 431.382812 274.503906 C 436.734375 276.90625 443.480469 275.898438 447.375 272.117188 L 533.375 253.007812 Z M 573.007812 224.40625 "/>
<path style=" stroke:none;fill-rule:nonzero;fill:rgb(0.392157%,50.196078%,23.529412%);fill-opacity:1;" d="M 568.769531 228.511719 L 596.679688 203.734375 L 598.226562 186.175781 C 598.816406 179.144531 594.34375 172.453125 586.6875 168.917969 C 576.085938 164.101562 562.613281 166.644531 555.863281 174.738281 C 545.996094 186.574219 535.390625 202.578125 540.851562 211.601562 L 540.90625 211.695312 Z M 568.769531 228.511719 "/>
<path style=" stroke:none;fill-rule:nonzero;fill:rgb(90.196078%,90.196078%,90.196078%);fill-opacity:1;" d="M 311.550781 321.640625 L 239.019531 292.054688 C 233.863281 289.949219 232.152344 284.367188 235.214844 279.613281 L 282.503906 206.066406 C 285.5625 201.308594 292.25 199.152344 297.410156 201.257812 L 369.941406 230.84375 C 375.097656 232.945312 376.804688 238.527344 373.746094 243.285156 L 326.457031 316.832031 C 323.398438 321.585938 316.710938 323.746094 311.550781 321.640625 Z M 311.550781 321.640625 "/>
<path style=" stroke:none;fill-rule:nonzero;fill:rgb(100%,100%,100%);fill-opacity:1;" d="M 299.160156 308.039062 L 249.878906 287.9375 C 245.046875 285.96875 243.445312 280.738281 246.308594 276.285156 L 285.601562 215.183594 C 288.46875 210.730469 294.726562 208.710938 299.558594 210.679688 L 359.078125 234.957031 C 363.910156 236.929688 365.511719 242.15625 362.648438 246.613281 L 341.304688 279.804688 C 328.542969 299.648438 320.683594 316.820312 299.160156 308.039062 Z M 299.160156 308.039062 "/>
<path style=" stroke:none;fill-rule:nonzero;fill:rgb(0.392157%,50.196078%,23.529412%);fill-opacity:1;" d="M 323.527344 274.671875 L 279.875 256.867188 C 278.773438 256.242188 278.410156 255.066406 279.03125 254.105469 C 279.648438 253.148438 281.058594 252.691406 282.339844 253.039062 L 325.984375 270.84375 C 327.089844 271.46875 327.449219 272.644531 326.832031 273.605469 C 326.214844 274.566406 324.808594 275.019531 323.527344 274.671875 Z M 323.527344 274.671875 "/>
<path style=" stroke:none;fill-rule:nonzero;fill:rgb(0.392157%,50.196078%,23.529412%);fill-opacity:1;" d="M 284.972656 268.496094 L 275.007812 264.433594 C 273.910156 263.808594 273.546875 262.632812 274.164062 261.671875 C 274.785156 260.710938 276.191406 260.257812 277.472656 260.605469 L 287.4375 264.667969 C 288.535156 265.292969 288.898438 266.46875 288.28125 267.429688 C 287.664062 268.390625 286.253906 268.84375 284.972656 268.496094 Z M 284.972656 268.496094 "/>
<path style=" stroke:none;fill-rule:nonzero;fill:rgb(0.392157%,50.196078%,23.529412%);fill-opacity:1;" d="M 297.746094 283.257812 L 270.148438 272 C 269.042969 271.375 268.683594 270.199219 269.300781 269.238281 C 269.917969 268.277344 271.328125 267.824219 272.609375 268.171875 L 300.210938 279.429688 C 301.3125 280.054688 301.675781 281.230469 301.058594 282.191406 C 300.4375 283.152344 299.03125 283.605469 297.746094 283.257812 Z M 297.746094 283.257812 "/>
<path style=" stroke:none;fill-rule:nonzero;fill:rgb(0.392157%,50.196078%,23.529412%);fill-opacity:1;" d="M 340.792969 247.8125 L 297.148438 230.007812 C 296.042969 229.382812 295.6875 228.207031 296.304688 227.246094 C 296.921875 226.285156 298.328125 225.832031 299.613281 226.179688 L 343.257812 243.980469 C 344.363281 244.609375 344.722656 245.785156 344.105469 246.746094 C 343.484375 247.703125 342.082031 248.160156 340.792969 247.8125 Z M 340.792969 247.8125 "/>
<path style=" stroke:none;fill-rule:nonzero;fill:rgb(0.392157%,50.196078%,23.529412%);fill-opacity:1;" d="M 302.246094 241.636719 L 292.28125 237.574219 C 291.179688 236.949219 290.820312 235.773438 291.4375 234.8125 C 292.058594 233.851562 293.460938 233.398438 294.746094 233.742188 L 304.707031 237.808594 C 305.808594 238.433594 306.167969 239.609375 305.554688 240.570312 C 304.9375 241.527344 303.527344 241.984375 302.246094 241.636719 Z M 302.246094 241.636719 "/>
<path style=" stroke:none;fill-rule:nonzero;fill:rgb(0.392157%,50.196078%,23.529412%);fill-opacity:1;" d="M 315.023438 256.398438 L 287.417969 245.140625 C 286.316406 244.511719 285.953125 243.335938 286.574219 242.378906 C 287.191406 241.417969 288.601562 240.960938 289.882812 241.308594 L 317.488281 252.570312 C 318.585938 253.195312 318.949219 254.371094 318.332031 255.332031 C 317.710938 256.292969 316.304688 256.746094 315.023438 256.398438 Z M 315.023438 256.398438 "/>
<path style=" stroke:none;fill-rule:nonzero;fill:rgb(62.745098%,38.039216%,41.568627%);fill-opacity:1;" d="M 251.445312 257.613281 L 235.0625 209.027344 L 278.847656 202.425781 L 276.496094 235.773438 L 334.027344 282.957031 C 342.519531 282.679688 349.746094 287.832031 350.339844 294.582031 C 350.933594 301.332031 344.683594 307.234375 336.226562 307.90625 C 327.769531 308.578125 320.175781 303.769531 319.09375 297.058594 Z M 251.445312 257.613281 "/>
<path style=" stroke:none;fill-rule:nonzero;fill:rgb(24.705882%,23.921569%,33.72549%);fill-opacity:1;" d="M 230.582031 154.550781 C 215.71875 163.898438 234.796875 216.171875 234.796875 216.171875 C 237.746094 213.589844 241.179688 251.746094 244.792969 250.445312 C 255.050781 246.753906 273.855469 234.019531 281.109375 235.058594 C 285.257812 235.652344 280.910156 209.820312 280.910156 209.820312 C 280.910156 209.820312 280.109375 195.011719 278.609375 175.96875 C 278 165.015625 270.390625 155.074219 258.4375 149.628906 C 258.4375 149.628906 245.445312 145.207031 230.582031 154.550781 Z M 230.582031 154.550781 "/>
<path style=" stroke:none;fill-rule:nonzero;fill:rgb(90.196078%,90.196078%,90.196078%);fill-opacity:1;" d="M 477.890625 365.449219 L 438.308594 350.566406 C 436.59375 349.921875 435.34375 348.691406 434.910156 347.222656 C 434.480469 345.785156 434.890625 344.269531 436.039062 343.105469 C 447.503906 331.4375 455.375 317.789062 459.023438 303.257812 C 459.59375 300.964844 462.117188 299.308594 465.054688 299.304688 C 485.246094 299.359375 500.328125 305.230469 509.898438 316.753906 C 510.917969 317.964844 511.214844 319.476562 510.714844 320.878906 C 505.167969 336.085938 496.742188 350.527344 485.714844 363.703125 C 484.023438 365.761719 480.683594 366.507812 477.890625 365.449219 Z M 477.890625 365.449219 "/>
<path style=" stroke:none;fill-rule:nonzero;fill:rgb(100%,100%,100%);fill-opacity:1;" d="M 489.535156 344.574219 L 459.269531 333.191406 C 457.703125 332.601562 457.03125 331.109375 457.773438 329.863281 C 458.515625 328.613281 460.386719 328.078125 461.949219 328.667969 L 492.21875 340.050781 C 493.785156 340.640625 494.457031 342.128906 493.714844 343.378906 C 492.972656 344.628906 491.101562 345.164062 489.535156 344.574219 Z M 489.535156 344.574219 "/>
<path style=" stroke:none;fill-rule:nonzero;fill:rgb(100%,100%,100%);fill-opacity:1;" d="M 494.234375 336.644531 L 463.972656 325.261719 C 462.402344 324.671875 461.734375 323.179688 462.472656 321.933594 C 463.214844 320.683594 465.082031 320.148438 466.65625 320.738281 L 496.914062 332.121094 C 498.480469 332.710938 499.15625 334.203125 498.414062 335.449219 C 497.671875 336.699219 495.800781 337.234375 494.234375 336.644531 Z M 494.234375 336.644531 "/>
<path style=" stroke:none;fill-rule:nonzero;fill:rgb(94.901961%,94.901961%,94.901961%);fill-opacity:1;" d="M 453.796875 87.722656 L 450.976562 87.96875 C 438.417969 48.65625 414.074219 21.421875 380.570312 9.207031 C 337.980469 -6.320312 285.316406 4.105469 232.277344 38.566406 C 178.972656 73.199219 131.78125 127.90625 99.398438 192.613281 L 96.664062 191.613281 C 129.1875 126.628906 176.621094 71.65625 230.230469 36.828125 C 284.101562 1.824219 337.84375 -8.675781 381.542969 7.257812 C 416.007812 19.820312 440.996094 47.644531 453.796875 87.722656 Z M 453.796875 87.722656 "/>
<path style=" stroke:none;fill-rule:nonzero;fill:rgb(94.901961%,94.901961%,94.901961%);fill-opacity:1;" d="M 142.996094 138.921875 C 135.632812 151.28125 128.625 164.085938 122.167969 176.980469 C 85.03125 251.1875 66.21875 326.96875 67.753906 396.140625 L 64.851562 395.894531 C 63.3125 326.464844 82.183594 250.421875 119.4375 175.984375 C 125.910156 163.054688 132.9375 150.210938 140.324219 137.816406 Z M 142.996094 138.921875 "/>
<path style=" stroke:none;fill-rule:nonzero;fill:rgb(94.901961%,94.901961%,94.901961%);fill-opacity:1;" d="M 141.601562 189.90625 C 134.238281 202.269531 127.230469 215.074219 120.777344 227.96875 C 83.644531 302.171875 64.824219 377.957031 66.359375 447.128906 L 63.457031 446.878906 C 61.921875 377.453125 80.789062 301.40625 118.042969 226.972656 C 124.515625 214.042969 131.542969 201.199219 138.929688 188.804688 Z M 141.601562 189.90625 "/>
<path style=" stroke:none;fill-rule:nonzero;fill:rgb(80%,80%,80%);fill-opacity:1;" d="M 59.359375 196.171875 C 53.804688 193.230469 46.703125 193.957031 43.5 197.800781 C 40.289062 201.640625 42.1875 207.136719 47.742188 210.078125 C 53.289062 213.019531 60.390625 212.292969 63.601562 208.449219 C 66.808594 204.609375 64.90625 199.113281 59.359375 196.171875 Z M 59.359375 196.171875 "/>
<path style=" stroke:none;fill-rule:nonzero;fill:rgb(80%,80%,80%);fill-opacity:1;" d="M 742.523438 334.871094 C 736.96875 331.929688 729.871094 332.65625 726.664062 336.5 C 723.453125 340.339844 725.351562 345.835938 730.90625 348.777344 C 736.453125 351.71875 743.554688 350.992188 746.765625 347.148438 C 749.972656 343.308594 748.070312 337.8125 742.523438 334.871094 Z M 742.523438 334.871094 "/>
</g>
</svg>
