<?xml version="1.0" standalone="no"?>
<!DOCTYPE svg PUBLIC "-//W3C//DTD SVG 1.0//EN" "http://www.w3.org/TR/2001/REC-SVG-20010904/DTD/svg10.dtd">
<svg xmlns="http://www.w3.org/2000/svg" xmlns:xlink="http://www.w3.org/1999/xlink" id="body_1" width="675" height="591">

<g transform="matrix(1 0 0 1 0 0)">
	<g transform="matrix(0.99290603 0 0 0.99290603 58.58197 -0)">
        <path d="M452.988 570.009L438.754 570.009L431.98 515.106L452.988 515.106L452.988 570.009" stroke="none" fill="#FFB6B6" fill-rule="nonzero" />
        <path transform="matrix(1 0 0 1 -319.08923 -152.38876)"  d="M779.5899 747.0598L769.3821 747.0598L767.56 737.42236L762.89343 747.05975L735.81976 747.05975C 733.1562 747.0599 730.80194 745.3279 730.0093 742.7849C 729.2166 740.242 730.1697 737.47906 732.3616 735.9657L732.3616 735.9657L753.9818 721.034L753.9818 711.2909L776.72253 712.6482L779.5899 747.0598z" stroke="none" fill="#2F2E41" fill-rule="nonzero" />
        <path d="M335.988 569.009L321.754 569.009L314.98 514.106L335.988 514.106L335.988 569.009" stroke="none" fill="#FFB6B6" fill-rule="nonzero" />
        <path transform="matrix(1 0 0 1 -319.08923 -152.38876)"  d="M662.5899 746.0598L652.3821 746.0598L650.56 736.42236L645.89343 746.05975L618.81976 746.05975C 616.1562 746.0599 613.80194 744.3279 613.0093 741.7849C 612.2166 739.242 613.1697 736.47906 615.3616 734.9657L615.3616 734.9657L636.9818 720.034L636.9818 710.2909L659.72253 711.6482L662.5899 746.0598z" stroke="none" fill="#2F2E41" fill-rule="nonzero" />
        <path transform="matrix(1 0 0 1 -319.08923 -152.38876)"  d="M797.37854 691.6643C 794.32855 704.6343 745.52856 702.3443 736.37854 703.8643C 727.2285 705.39435 714.07855 496.6043 714.07855 496.6043C 700.1575 496.60986 673.63855 594.4943 673.63855 594.4943C 673.63855 594.4943 683.0647 697.862 671.63855 699.4943C 664.63855 700.4943 615.64856 696.58435 608.7886 693.5343C 603.7201 691.2809 653.73126 471.04773 653.73126 471.04773L653.73126 471.04773L682.63855 416.49432L717.12854 413.49432L746.8685 413.49432L748.7785 420.3543C 753.9955 414.8265 775.15265 438.80615 768.4082 496.336C 758.3941 581.75635 799.1842 683.99164 797.37854 691.6643z" stroke="none" fill="#2F2E41" fill-rule="nonzero" />
        <path transform="matrix(1 0 0 1 -319.08923 -152.38876)"  d="M759.63855 420.49432C 759.63855 420.49432 732.66534 453.49432 702.66534 444.49432C 672.66534 435.49432 664.63855 432.49432 664.63855 432.49432C 672.6281 412.5368 680.29205 379.78284 662.16406 361.80994C 637.63855 337.49432 657.8252 336.55933 653.6009 322.9353L653.6009 322.9353L641.2382 297.512L667.60004 296.36105L673.8931 287.20837C 675.3852 283.76254 678.8755 281.62012 682.6234 281.84946L682.6234 281.84946L695.4574 282.63477C 699.32776 282.87158 702.60175 285.58173 703.5574 289.33975L703.5574 289.33975L709.66516 295.49432L736.8292 305.69263L720.6653 325.49432L736.6385 395.49432C 749.651 401.89008 757.6412 410.10608 759.63855 420.49432z" stroke="none" fill="#EF9C01" fill-rule="nonzero" />
        <path transform="matrix(1 0 0 1 -319.08923 -152.38876)"  d="M808.1623 467.8592C 809.63617 465.5849 810.027 462.7746 809.22955 460.18448C 808.4321 457.59433 806.5284 455.49045 804.03064 454.43893L804.03064 454.43893L773.7394 376.92432L758.087 386.02475L791.7001 459.89874C 790.17834 464.30872 792.1955 469.15994 796.3954 471.19083C 800.5953 473.22174 805.65045 471.79044 808.16223 467.8592L808.16223 467.8592L808.1623 467.8592z" stroke="none" fill="#FFB6B6" fill-rule="nonzero" />
        <path transform="matrix(1 0 0 1 -319.08923 -152.38876)"  d="M732.90765 304.76053C 732.90765 304.76053 736.93 302.07278 740.82355 311.55408C 743.9406 319.1446 786.90295 397.50522 788.28735 408.81332C 791.5528 409.16818 794.16315 411.68973 794.6308 414.94086L794.6308 414.94086L771.5963 420.4262C 767.1688 417.39648 765.62933 412.8564 767.0688 411.31757L767.0688 411.31757L760.6017 397.9824L715.6317 322.40585L729.96564 306.65167L732.90765 304.76053z" stroke="none" fill="#EF9C01" fill-rule="nonzero" />
        <path transform="matrix(1 0 0 1 -319.08923 -152.38876)"  d="M529.9421 234.23747C 529.89465 236.94714 531.04987 239.53868 533.09686 241.31473C 535.1439 243.09077 537.8725 243.8689 540.54834 243.43971L540.54834 243.43971L607.2633 293.19098L615.73083 277.18738L548.12317 232.283C 547.0813 227.73563 542.8029 224.68617 538.1644 225.18481C 533.526 225.68346 529.9935 229.57259 529.9421 234.2375L529.9421 234.2375L529.9421 234.23747z" stroke="none" fill="#FFB6B6" fill-rule="nonzero" />
        <path transform="matrix(1 0 0 1 -319.08923 -152.38876)"  d="M680.0918 332.825C 680.0918 332.825 678.1005 337.23386 669.7803 331.24817C 663.1193 326.45618 585.2043 282.69086 578.04675 273.82745C 575.0881 275.25394 571.5389 274.49527 569.42194 271.98386L569.42194 271.98386L586.0664 255.1423C 591.4264 255.37079 595.1348 258.40894 594.7274 260.47635L594.7274 260.47635L607.27045 268.3708L685.41614 308.71136L681.58765 329.66367L680.0918 332.825z" stroke="none" fill="#EF9C01" fill-rule="nonzero" />
        <path transform="matrix(1 0 0 1 -319.08923 -152.38876)"  d="M666.0076 246.19405C 666.0076 262.39154 674.11066 278.87405 690.3081 278.87405C 706.50555 278.87405 728.8537 267.1428 723.826 242.00436C 720.6494 226.12141 711.53326 216.86594 695.33575 216.86594C 679.1383 216.86597 666.0077 229.99658 666.0076 246.19405z" stroke="none" fill="#2F2E41" fill-rule="nonzero" />
        <path d="M394.3201 101.93492C 394.3201 108.59724 391.9646 114.283875 387.25363 118.994835C 382.54266 123.7058 376.85605 126.06128 370.19373 126.06128C 363.53143 126.06128 357.8448 123.7058 353.13382 118.994835C 348.42285 114.283875 346.06738 108.59724 346.06735 101.93492C 346.06738 95.27261 348.42285 89.585976 353.13382 84.87501C 357.8448 80.16405 363.53143 77.80856 370.19373 77.80856C 376.85605 77.80856 382.54266 80.16405 387.25363 84.87501C 391.9646 89.585976 394.3201 95.27261 394.3201 101.93492C 394.3201 102.215675 394.3152 102.49634 394.3054 102.77692" stroke="none" fill="#FFB6B6" fill-rule="nonzero" />
        <path transform="matrix(1 0 0 1 -319.08923 -152.38876)"  d="M714.5322 260.6486C 714.31354 260.61404 714.0949 260.56796 713.8762 260.5334C 710.11285 259.86594 706.34955 259.21 702.5977 258.53088L702.5977 258.53088L702.2524 250.02608L697.7065 257.64468C 687.33716 261.0858 677.6353 259.14087 668.5089 254.84814C 665.4986 253.41907 662.57764 251.80872 659.76227 250.02606C 657.799 238.04617 662.7519 228.60506 675.4717 227.3999C 675.8667 227.36249 676.1507 227.0317 676.496 226.8589C 676.4991 226.85898 676.502 226.85777 676.5042 226.8556C 676.50635 226.85342 676.50757 226.85046 676.50745 226.84738C 677.0944 226.57118 677.6929 226.30652 678.2913 226.06487C 687.8545 222.32753 698.715 224.43329 706.1884 231.47386C 713.554 238.50584 716.86847 250.11809 714.5322 260.6486z" stroke="none" fill="#2F2E41" fill-rule="nonzero" />
        <path transform="matrix(1 0 0 1 -319.08923 -152.38876)"  d="M705.2884 226.24818L705.2884 226.2686C 705.28546 227.53139 705.44653 228.78922 705.7676 230.01054C 705.8186 230.22469 705.87976 230.44897 705.9512 230.6631L705.9512 230.6631L705.9512 230.67331C 707.3378 235.09467 710.715 238.6115 715.0766 240.17606C 715.39264 240.2984 715.71893 240.40033 716.0452 240.49214C 716.73267 240.69147 717.4351 240.83467 718.1456 240.92035C 718.78394 241.01083 719.428 241.05513 720.0727 241.0529C 720.57654 241.05502 721.0802 241.0312 721.58167 240.98152C 722.755 240.86273 723.9092 240.59901 725.01776 240.1964C 725.1914 240.14595 725.36163 240.08467 725.5276 240.01288C 725.6109 239.98328 725.6926 239.94925 725.77234 239.91093C 729.5103 238.34624 732.4432 235.3172 733.8865 231.53069C 735.3298 227.74417 735.1573 223.53145 733.4092 219.87564L733.4092 219.87564L733.399 219.86543C 732.67413 218.34772 731.6908 216.96768 730.493 215.787C 727.8216 213.12584 726.6445 206.4566 722.5865 206.4566C 722.3926 206.45323 722.19855 206.46002 722.0053 206.47696C 719.28296 206.56876 714.2507 212.44273 712.10956 213.82938C 710.51935 214.834 709.1408 216.1398 708.0516 217.67331C 706.9141 219.2508 706.10297 221.03944 705.66565 222.93445C 705.4155 224.0213 705.28894 225.13292 705.2884 226.24818z" stroke="none" fill="#2F2E41" fill-rule="nonzero" />
        <path transform="matrix(1 0 0 1 -319.08923 -152.38876)"  d="M723.35205 221.1001C 725.6481 223.7731 729.24286 224.8122 732.4857 226.20322C 744.10516 231.30061 752.459 241.80559 754.80865 254.27446C 755.7052 259.27698 755.58795 264.45544 757.0041 269.33234C 758.41187 274.2092 761.8977 278.9939 766.90027 279.84024C 770.2856 280.41843 773.67926 279.11124 776.8634 277.82077C 778.61475 277.11694 780.3661 276.41028 782.1174 275.70078C 785.04425 280.02646 788.4481 284.00937 792.2649 287.57452C 798.54114 285.0439 804.82294 282.5133 811.11035 279.98267C 795.64185 280.04132 798.2814 265.02533 794.8207 249.95905C 792.9185 241.68011 776.721 236.07425 773.54517 228.19751C 770.0411 219.4738 761.7834 213.58456 752.3941 213.11293C 743.00476 212.64131 734.1985 217.67342 729.8378 226.00209C 721.1901 213.51668 721.098 218.46059 723.35205 221.1001z" stroke="none" fill="#2F2E41" fill-rule="nonzero" />
        <path transform="matrix(1 0 0 1 -319.08923 -152.38876)"  d="M611.4674 316.0468L432.15918 316.0468L433.51166 314.57425C 441.99966 305.33237 447.25354 287.65225 449.57516 260.52612C 450.7616 245.2363 463.538 233.4484 478.8737 233.49434L478.8737 233.49434L564.8927 233.49434C 580.21014 233.45648 592.974 245.2188 594.1852 260.48834C 596.25037 284.18134 601.4425 301.39835 610.52655 314.67285L610.52655 314.67285L611.4674 316.0468z" stroke="none" fill="#E6E6E6" fill-rule="nonzero" />
        <path transform="matrix(1 0 0 1 -319.08923 -152.38876)"  d="M564.8927 745.9943L478.87372 745.9943C 463.53827 746.0404 450.76196 734.2529 449.5752 718.9634C 447.25357 691.83636 441.9997 605.1571 433.5117 595.9135L433.5117 595.9135L432.1592 594.44183L611.4674 594.44183L610.52655 595.81573C 601.4425 609.0902 596.25037 695.3081 594.1852 718.9994C 592.9741 734.26904 580.2103 746.0317 564.8927 745.9943z" stroke="none" fill="#E6E6E6" fill-rule="nonzero" />
        <path transform="matrix(1 0 0 1 -319.08923 -152.38876)"  d="M651.95636 373.131C 650.68604 373.1366 649.44147 373.48972 648.3575 374.15213C 646.54407 337.18536 616.0444 308.1441 579.03314 308.14288L579.03314 308.14288L464.0488 308.14288C 425.71454 308.14288 394.6385 339.21893 394.6385 377.5532L394.6385 377.5532L394.6385 535.57007C 394.6385 553.9788 401.95132 571.6336 414.96826 584.65063C 427.98523 597.6676 445.64 604.98047 464.04877 604.98047L464.04877 604.98047L579.03314 604.98047C 617.36743 604.98047 648.4435 573.90436 648.4434 535.57007L648.4434 535.57007L648.4434 424.84955C 649.50684 425.48102 650.7194 425.8174 651.9563 425.82404C 655.8365 425.82404 658.98206 422.6785 658.98206 418.7983L658.98206 418.7983L658.98206 380.1567C 658.9821 378.29337 658.2419 376.50635 656.9243 375.18878C 655.60675 373.87122 653.8197 373.131 651.95636 373.131z" stroke="none" fill="#3F3D56" fill-rule="nonzero" />
        <path transform="matrix(1 0 0 1 -319.08923 -152.38876)"  d="M636.9685 368.9843C 636.9285 368.0943 636.8585 367.21432 636.7685 366.33432C 634.10455 339.8001 611.7861 319.59033 585.11847 319.56433L585.11847 319.56433L458.84848 319.56433C 432.1796 319.587 409.85922 339.7985 407.1985 366.33432C 407.1085 367.21432 407.03848 368.09433 406.99847 368.9843C 406.9585 369.81433 406.93848 370.64432 406.93848 371.4743L406.93848 371.4743L406.93848 539.8943C 406.9662 568.5519 430.1909 591.77655 458.84848 591.80426L458.84848 591.80426L585.11847 591.80426C 613.77466 591.773 636.99725 568.5504 637.02844 539.8943L637.02844 539.8943L637.02844 371.4743C 637.0285 370.6443 637.00854 369.8143 636.9685 368.9843z" stroke="none" fill="#FFFFFF" fill-rule="nonzero" />
        <path d="M317.939 368.606L317.939 374.566L317.139 372.946L296.769 331.896L296.749 331.886L239.519 216.596L239.519 216.586L238.199 213.946L238.199 213.926L214.999 167.176L217.969 167.176L241.159 213.926L241.179 213.946L242.489 216.586L242.489 216.596L298.259 328.956L298.259 328.966L299.579 331.606L299.579 331.626L317.939 368.606" stroke="none" fill="#3F3D56" fill-rule="nonzero" />
        <path transform="matrix(1 0 0 1 -319.08923 -152.38876)"  d="M645.63855 367.49432L406.35855 368.9843L406.35855 366.33432L644.63855 365.49432C 645.3585 366.36432 644.95844 366.6043 645.63855 367.49432z" stroke="none" fill="#3F3D56" fill-rule="nonzero" />
        <path d="M318.449 375.596L87.849 375.596L87.849 372.946L317.939 372.946L317.939 374.566L318.449 375.596" stroke="none" fill="#3F3D56" fill-rule="nonzero" />
        <path transform="matrix(1 0 0 1 -319.08923 -152.38876)"  d="M571.63007 378.98523C 560.07776 370.84967 545.7668 367.63647 531.8454 370.0525C 517.924 372.4685 505.53256 380.3158 497.39706 391.8681C 480.45572 415.92447 463.45636 479.00632 475.4562 515.5501C 511.24878 477.74326 566.2369 473.81467 584.51294 453.21823C 604.04156 431.2102 595.68646 395.92657 571.63007 378.98523z" stroke="none" fill="#EF9C01" fill-rule="nonzero" />
        <path d="M238.51591 263.69574C 238.51593 268.49368 236.81961 272.58896 233.42696 275.9816C 230.03432 279.37424 225.93903 281.07056 221.1411 281.07056C 216.34319 281.07056 212.2479 279.37424 208.85524 275.9816C 205.46262 272.58896 203.7663 268.49368 203.76628 263.69574C 203.7663 258.89783 205.46262 254.80254 208.85524 251.40988C 212.2479 248.01726 216.34319 246.32094 221.1411 246.32092C 225.93903 246.32094 230.03432 248.01726 233.42696 251.40988C 236.81961 254.80254 238.51593 258.89783 238.51591 263.69574C 238.51593 263.89795 238.5124 264.10007 238.50534 264.30212" stroke="none" fill="#FFFFFF" fill-rule="nonzero" />
        <path d="M153.05937 370.70334C 153.05937 373.8459 151.94832 376.5282 149.72621 378.7503C 147.5041 380.9724 144.82178 382.0835 141.67924 382.08347C 138.53671 382.0835 135.85439 380.9724 133.63228 378.7503C 131.41017 376.5282 130.29912 373.8459 130.29912 370.70334C 130.29912 367.5608 131.41017 364.87848 133.63228 362.65637C 135.85439 360.43427 138.53671 359.3232 141.67924 359.3232C 144.82178 359.3232 147.5041 360.43427 149.72621 362.65637C 151.94832 364.87848 153.05937 367.5608 153.05937 370.70334C 153.05937 370.83575 153.05707 370.96814 153.05244 371.1005" stroke="none" fill="#EF9C01" fill-rule="nonzero" />
        <path transform="matrix(1 0 0 1 -319.08923 -152.38876)"  d="M558.81934 412.07544C 563.6577 420.362 560.86237 431.00186 552.5758 435.8402C 544.28925 440.67856 533.6494 437.88324 528.81104 429.59668C 535.21686 435.2164 544.75305 435.36017 551.3254 429.9361C 557.8977 424.51202 559.5655 415.12167 555.26294 407.76614C 556.6731 409.0013 557.8741 410.45654 558.81934 412.07544z" stroke="none" fill="#231F20" fill-rule="nonzero" fill-opacity="0.2" />
        <path transform="matrix(1 0 0 1 -319.08923 -152.38876)"  d="M584.54565 453.30014C 566.26965 473.89655 511.2815 477.82513 475.48895 515.632C 474.37183 512.1743 473.51193 508.63895 472.9163 505.0544C 508.69104 470.6845 560.6179 466.3409 578.27594 446.4411C 594.08014 428.63034 591.61993 402.12628 577.3568 383.6846C 596.91846 401.8175 602.4418 433.13187 584.54565 453.30014z" stroke="none" fill="#231F20" fill-rule="nonzero" fill-opacity="0.2" />
        <path transform="matrix(1 0 0 1 -319.08923 -152.38876)"  d="M373.13028 746.4212C 373.12933 746.7371 373.25443 747.04034 373.4778 747.26373C 373.7012 747.4871 374.00443 747.6122 374.32034 747.6112L374.32034 747.6112L862.61035 747.6112C 863.2676 747.6112 863.80035 747.0784 863.80035 746.4212C 863.80035 745.764 863.2676 745.2312 862.61035 745.2312L862.61035 745.2312L374.32034 745.2312C 374.00443 745.2302 373.7012 745.3553 373.4778 745.5787C 373.25443 745.802 373.12933 746.1053 373.13028 746.4212z" stroke="none" fill="#CCCCCC" fill-rule="nonzero" />
        <path transform="matrix(0.93256736 -0.36099592 0.36099592 0.93256736 -442.9202 178.80914)"  d="M817.05066 497.05936C 817.05066 494.1561 820.4339 491.80255 824.6073 491.80255C 828.7807 491.80255 832.16394 494.1561 832.16394 497.05936C 832.16394 499.96262 828.7807 502.31616 824.6073 502.31616C 820.4339 502.31616 817.05066 499.96262 817.05066 497.05936" stroke="none" fill="#E6E6E6" fill-rule="nonzero" />
        <path transform="matrix(0.93257 -0.361 0.361 0.93257 -437.3465 196.07532)"  d="M866.0542 490.77322C 866.0542 487.86996 869.43744 485.51642 873.61084 485.51642C 877.78424 485.51642 881.1675 487.86996 881.1675 490.77322C 881.1675 493.67648 877.78424 496.03003 873.61084 496.03003C 869.43744 496.03003 866.0542 493.67648 866.0542 490.77322" stroke="none" fill="#E6E6E6" fill-rule="nonzero" />
        <path transform="matrix(0.93256736 -0.36099592 0.36099592 0.93256736 -458.29938 180.09418)"  d="M812.8007 538.86755C 812.8007 535.9643 816.18396 533.6107 820.35736 533.6107C 824.53076 533.6107 827.914 535.9643 827.914 538.86755C 827.914 541.7708 824.53076 544.1244 820.35736 544.1244C 816.18396 544.1244 812.8007 541.7708 812.8007 538.86755" stroke="none" fill="#E6E6E6" fill-rule="nonzero" />
        <path transform="matrix(0.9731131 -0.23032762 0.23032762 0.9731131 -425.81458 48.47193)"  d="M803.6564 557.5642C 803.6564 554.9266 805.14386 552.7884 806.9787 552.7884C 808.81354 552.7884 810.301 554.9266 810.301 557.5642C 810.301 560.20184 808.81354 562.34 806.9787 562.34C 805.14386 562.34 803.6564 560.20184 803.6564 557.5642" stroke="none" fill="#E6E6E6" fill-rule="nonzero" />
        <path transform="matrix(0.9731131 -0.23032762 0.23032762 0.9731131 -433.01382 49.24424)"  d="M803.3648 588.7868C 803.3648 586.1492 804.8523 584.011 806.68713 584.011C 808.522 584.011 810.00946 586.1492 810.00946 588.7868C 810.00946 591.42444 808.522 593.5626 806.68713 593.5626C 804.8523 593.5626 803.3648 591.42444 803.3648 588.7868" stroke="none" fill="#E6E6E6" fill-rule="nonzero" />
        <path transform="matrix(0.9731131 -0.23032762 0.23032762 0.9731131 -416.96234 57.41165)"  d="M846.3738 524.11755C 846.3738 521.4799 847.86127 519.34174 849.6961 519.34174C 851.53094 519.34174 853.01843 521.4799 853.01843 524.11755C 853.01843 526.7552 851.53094 528.8934 849.6961 528.8934C 847.86127 528.8934 846.3738 526.7552 846.3738 524.11755" stroke="none" fill="#E6E6E6" fill-rule="nonzero" />
        <path transform="matrix(0.9731131 -0.23032762 0.23032762 0.9731131 -416.2127 51.29864)"  d="M820.56494 517.8502C 820.56494 515.2126 822.0524 513.0744 823.88727 513.0744C 825.7221 513.0744 827.2096 515.2126 827.2096 517.8502C 827.2096 520.48785 825.7221 522.62604 823.88727 522.62604C 822.0524 522.62604 820.56494 520.48785 820.56494 517.8502" stroke="none" fill="#E6E6E6" fill-rule="nonzero" />
        <path transform="matrix(0.9731131 -0.23032762 0.23032762 0.9731131 -408.85513 56.82636)"  d="M847.9205 489.09946C 847.9205 486.46185 849.40796 484.32364 851.2428 484.32364C 853.07764 484.32364 854.5651 486.46185 854.5651 489.09946C 854.5651 491.73706 853.07764 493.87527 851.2428 493.87527C 849.40796 493.87527 847.9205 491.73706 847.9205 489.09946" stroke="none" fill="#E6E6E6" fill-rule="nonzero" />
        <path transform="matrix(0.9354998 -0.35332713 0.35332713 0.9354998 -517.5618 4.89033)"  d="M326.28854 622.2486C 326.28854 618.0752 328.6421 614.69196 331.54535 614.69196C 334.4486 614.69196 336.80215 618.0752 336.80215 622.2486C 336.80215 626.422 334.4486 629.80524 331.54535 629.80524C 328.6421 629.80524 326.28854 626.422 326.28854 622.2486" stroke="none" fill="#E6E6E6" fill-rule="nonzero" />
        <path transform="matrix(0.9354998 -0.35332713 0.35332713 0.9354998 -500.60938 -0.35246)"  d="M320.40494 573.1951C 320.40494 569.0217 322.75848 565.6385 325.66174 565.6385C 328.565 565.6385 330.91855 569.0217 330.91855 573.1951C 330.91855 577.3685 328.565 580.7518 325.66174 580.7518C 322.75848 580.7518 320.40494 577.3685 320.40494 573.1951" stroke="none" fill="#E6E6E6" fill-rule="nonzero" />
        <path transform="matrix(0.9354998 -0.35332713 0.35332713 0.9354998 -516.49036 19.94572)"  d="M368.06042 626.8416C 368.06042 622.6682 370.41397 619.285 373.31723 619.285C 376.2205 619.285 378.57404 622.6682 378.57404 626.8416C 378.57404 631.015 376.2205 634.39825 373.31723 634.39825C 370.41397 634.39825 368.06042 631.015 368.06042 626.8416" stroke="none" fill="#E6E6E6" fill-rule="nonzero" />
        <path transform="matrix(0.97497135 -0.2223303 0.2223303 0.97497135 -451.65488 -49.22908)"  d="M387.12762 640.37335C 387.12762 638.5385 389.26584 637.051 391.90344 637.051C 394.54105 637.051 396.67926 638.5385 396.67926 640.37335C 396.67926 642.2082 394.54105 643.6957 391.90344 643.6957C 389.26584 643.6957 387.12762 642.2082 387.12762 640.37335" stroke="none" fill="#E6E6E6" fill-rule="nonzero" />
        <path transform="matrix(0.97497135 -0.2223303 0.2223303 0.97497135 -450.99533 -42.2744)"  d="M418.34677 640.92126C 418.34677 639.0864 420.485 637.59894 423.1226 637.59894C 425.7602 637.59894 427.8984 639.0864 427.8984 640.92126C 427.8984 642.7561 425.7602 644.2436 423.1226 644.2436C 420.485 644.2436 418.34677 642.7561 418.34677 640.92126" stroke="none" fill="#E6E6E6" fill-rule="nonzero" />
        <path transform="matrix(0.97497135 -0.2223303 0.2223303 0.97497135 -442.92508 -57.66305)"  d="M354.03284 597.3828C 354.03284 595.548 356.17105 594.0605 358.80865 594.0605C 361.44626 594.0605 363.58447 595.548 363.58447 597.3828C 363.58447 599.21765 361.44626 600.70514 358.80865 600.70514C 356.17105 600.70514 354.03284 599.21765 354.03284 597.3828" stroke="none" fill="#E6E6E6" fill-rule="nonzero" />
        <path transform="matrix(0.97497135 -0.2223303 0.2223303 0.97497135 -448.8137 -58.45889)"  d="M347.5538 623.13934C 347.5538 621.3045 349.69202 619.817 352.32962 619.817C 354.96722 619.817 357.10544 621.3045 357.10544 623.13934C 357.10544 624.9742 354.96722 626.4617 352.32962 626.4617C 349.69202 626.4617 347.5538 624.9742 347.5538 623.13934" stroke="none" fill="#E6E6E6" fill-rule="nonzero" />
        <path transform="matrix(0.97497135 -0.2223303 0.2223303 0.97497135 -443.3934 -65.49146)"  d="M319.0286 595.5487C 319.0286 593.71387 321.1668 592.2264 323.8044 592.2264C 326.44202 592.2264 328.58023 593.71387 328.58023 595.5487C 328.58023 597.38354 326.44202 598.87103 323.8044 598.87103C 321.1668 598.87103 319.0286 597.38354 319.0286 595.5487" stroke="none" fill="#E6E6E6" fill-rule="nonzero" />
        <path transform="matrix(0.93256736 -0.36099592 0.36099592 0.93256736 -350.71692 8.41318)"  d="M407.05063 165.05936C 407.05063 162.1561 410.43387 159.80255 414.6073 159.80255C 418.78073 159.80255 422.16397 162.1561 422.16397 165.05936C 422.16397 167.96262 418.78073 170.31616 414.6073 170.31616C 410.43387 170.31616 407.05063 167.96262 407.05063 165.05936" stroke="none" fill="#E6E6E6" fill-rule="nonzero" />
        <path transform="matrix(0.93256736 -0.36099592 0.36099592 0.93256736 -345.14322 25.67936)"  d="M456.05417 158.77321C 456.05417 155.86996 459.4374 153.5164 463.61084 153.5164C 467.78427 153.5164 471.1675 155.86996 471.1675 158.77321C 471.1675 161.67645 467.78427 164.03001 463.61084 164.03001C 459.4374 164.03001 456.05417 161.67645 456.05417 158.77321" stroke="none" fill="#E6E6E6" fill-rule="nonzero" />
        <path transform="matrix(0.93256736 -0.36099592 0.36099592 0.93256736 -366.0961 9.69821)"  d="M402.80072 206.86752C 402.80072 203.96426 406.18396 201.61072 410.3574 201.61072C 414.53082 201.61072 417.91406 203.96426 417.91406 206.86752C 417.91406 209.77078 414.53082 212.12433 410.3574 212.12433C 406.18396 212.12433 402.80072 209.77078 402.80072 206.86752" stroke="none" fill="#E6E6E6" fill-rule="nonzero" />
        <path transform="matrix(0.9731131 -0.23032762 0.23032762 0.9731131 -360.3694 -54.88886)"  d="M393.65643 225.56422C 393.65643 222.92662 395.14386 220.78842 396.97873 220.78842C 398.8136 220.78842 400.30103 222.92662 400.30103 225.56422C 400.30103 228.20183 398.8136 230.34003 396.97873 230.34003C 395.14386 230.34003 393.65643 228.20183 393.65643 225.56422" stroke="none" fill="#E6E6E6" fill-rule="nonzero" />
        <path transform="matrix(0.9731131 -0.23032762 0.23032762 0.9731131 -367.56866 -54.11655)"  d="M393.36484 256.7868C 393.36484 254.1492 394.85226 252.011 396.68713 252.011C 398.522 252.011 400.00943 254.1492 400.00943 256.7868C 400.00943 259.4244 398.522 261.56262 396.68713 261.56262C 394.85226 261.56262 393.36484 259.4244 393.36484 256.7868" stroke="none" fill="#E6E6E6" fill-rule="nonzero" />
        <path transform="matrix(0.9731131 -0.23032762 0.23032762 0.9731131 -351.51718 -45.94914)"  d="M436.3738 192.11757C 436.3738 189.47997 437.86124 187.34177 439.6961 187.34177C 441.53098 187.34177 443.0184 189.47997 443.0184 192.11757C 443.0184 194.75517 441.53098 196.89337 439.6961 196.89337C 437.86124 196.89337 436.3738 194.75517 436.3738 192.11757" stroke="none" fill="#E6E6E6" fill-rule="nonzero" />
        <path transform="matrix(0.9731131 -0.23032762 0.23032762 0.9731131 -350.76755 -52.06215)"  d="M410.56494 185.85023C 410.56494 183.21263 412.05237 181.07443 413.88724 181.07443C 415.7221 181.07443 417.20953 183.21263 417.20953 185.85023C 417.20953 188.48784 415.7221 190.62604 413.88724 190.62604C 412.05237 190.62604 410.56494 188.48784 410.56494 185.85023" stroke="none" fill="#E6E6E6" fill-rule="nonzero" />
        <path transform="matrix(0.9731131 -0.23032762 0.23032762 0.9731131 -343.40994 -46.53443)"  d="M437.92047 157.09947C 437.92047 154.46187 439.4079 152.32367 441.24277 152.32367C 443.07764 152.32367 444.56506 154.46187 444.56506 157.09947C 444.56506 159.73708 443.07764 161.87527 441.24277 161.87527C 439.4079 161.87527 437.92047 159.73708 437.92047 157.09947" stroke="none" fill="#E6E6E6" fill-rule="nonzero" />
        <path d="M224.54929 408.10556C 224.54929 415.00912 222.10852 420.90167 217.22696 425.78323C 212.34543 430.6648 206.45287 433.1056 199.54929 433.10556C 192.64572 433.1056 186.75317 430.6648 181.87161 425.78323C 176.99007 420.90167 174.54929 415.00912 174.54929 408.10556C 174.54929 401.202 176.99007 395.30945 181.87161 390.4279C 186.75317 385.54636 192.64572 383.1056 199.54929 383.10556C 206.45287 383.1056 212.34543 385.54636 217.22696 390.4279C 222.10852 395.30945 224.54929 401.202 224.54929 408.10556C 224.54929 408.39648 224.54422 408.68732 224.53406 408.97806" stroke="none" fill="#E6E6E6" fill-rule="nonzero" />
        <path d="M155.54929 408.10556C 155.54929 411.97156 154.18245 415.2714 151.44878 418.00507C 148.71512 420.73874 145.41528 422.1056 141.54929 422.10556C 137.68329 422.1056 134.38347 420.73874 131.6498 418.00507C 128.91612 415.2714 127.549286 411.97156 127.549286 408.10556C 127.549286 404.2396 128.91612 400.93976 131.6498 398.20605C 134.38347 395.4724 137.68329 394.1056 141.54929 394.10556C 145.41528 394.1056 148.71512 395.4724 151.44878 398.20605C 154.18245 400.93976 155.54929 404.2396 155.54929 408.10556C 155.54929 408.2685 155.54645 408.43137 155.54076 408.59415" stroke="none" fill="#E6E6E6" fill-rule="nonzero" />
        <path d="M271.5493 408.10556C 271.54932 411.97156 270.18246 415.2714 267.4488 418.00507C 264.71512 420.73874 261.41528 422.1056 257.5493 422.10556C 253.68329 422.1056 250.38345 420.73874 247.6498 418.00507C 244.91614 415.2714 243.54929 411.97156 243.54929 408.10556C 243.54929 404.2396 244.91614 400.93976 247.6498 398.20605C 250.38345 395.4724 253.68329 394.1056 257.5493 394.10556C 261.41528 394.1056 264.71512 395.4724 267.4488 398.20605C 270.18246 400.93976 271.54932 404.2396 271.5493 408.10556C 271.54932 408.2685 271.54645 408.43137 271.54077 408.59415" stroke="none" fill="#E6E6E6" fill-rule="nonzero" />
        <path d="M87.84907 262.69565L158.47406 262.69565L158.47406 264.69565L87.84907 264.69565L87.84907 262.69565z" stroke="none" fill="#3F3D56" fill-rule="nonzero" />
	</g>
</g>
</svg>